GeoramaExtraExtended-Black.ufo
<glyph name="exclam" format="2">
  <advance width="390"/>
  <unicode hex="0021"/>
  <outline>
    <contour>
      <point x="73" y="259" type="line"/>
      <point x="324" y="259" type="line"/>
      <point x="344" y="740" type="line"/>
      <point x="53" y="740" type="line"/>
    </contour>
    <contour>
      <point x="32" y="103" type="curve" smooth="yes"/>
      <point x="32" y="28"/>
      <point x="77" y="-11"/>
      <point x="195" y="-11" type="curve" smooth="yes"/>
      <point x="313" y="-11"/>
      <point x="358" y="28"/>
      <point x="358" y="103" type="curve" smooth="yes"/>
      <point x="358" y="179"/>
      <point x="313" y="218"/>
      <point x="195" y="218" type="curve" smooth="yes"/>
      <point x="77" y="218"/>
      <point x="32" y="179"/>
    </contour>
  </outline>
</glyph>
<glyph name="numbersign" format="2">
  <advance width="1050"/>
  <unicode hex="0023"/>
  <outline>
    <contour>
      <point x="105" y="418" type="line"/>
      <point x="189" y="418" type="line"/>
      <point x="160" y="291" type="line"/>
      <point x="79" y="291" type="line"/>
      <point x="79" y="129" type="line"/>
      <point x="122" y="129" type="line"/>
      <point x="93" y="0" type="line"/>
      <point x="403" y="0" type="line"/>
      <point x="432" y="129" type="line"/>
      <point x="515" y="129" type="line"/>
      <point x="486" y="0" type="line"/>
      <point x="796" y="0" type="line"/>
      <point x="825" y="129" type="line"/>
      <point x="946" y="129" type="line"/>
      <point x="946" y="291" type="line"/>
      <point x="863" y="291" type="line"/>
      <point x="892" y="418" type="line"/>
      <point x="972" y="418" type="line"/>
      <point x="972" y="578" type="line"/>
      <point x="929" y="578" type="line"/>
      <point x="957" y="700" type="line"/>
      <point x="647" y="700" type="line"/>
      <point x="619" y="578" type="line"/>
      <point x="536" y="578" type="line"/>
      <point x="564" y="700" type="line"/>
      <point x="254" y="700" type="line"/>
      <point x="226" y="578" type="line"/>
      <point x="105" y="578" type="line"/>
    </contour>
    <contour>
      <point x="499" y="418" type="line"/>
      <point x="582" y="418" type="line"/>
      <point x="553" y="291" type="line"/>
      <point x="470" y="291" type="line"/>
    </contour>
  </outline>
</glyph>
<glyph name="dollar" format="2">
  <advance width="1050"/>
  <unicode hex="0024"/>
  <outline>
    <contour>
      <point x="458" y="-10" type="curve" smooth="yes"/>
      <point x="782" y="-21"/>
      <point x="995" y="51"/>
      <point x="995" y="235" type="curve" smooth="yes"/>
      <point x="995" y="364"/>
      <point x="895" y="435"/>
      <point x="670" y="455" type="curve" smooth="yes"/>
      <point x="463" y="473"/>
      <point x="412" y="457"/>
      <point x="412" y="488" type="curve" smooth="yes"/>
      <point x="412" y="510"/>
      <point x="436" y="514"/>
      <point x="521" y="514" type="curve" smooth="yes"/>
      <point x="650" y="514"/>
      <point x="799" y="496"/>
      <point x="886" y="470" type="curve"/>
      <point x="932" y="670" type="line"/>
      <point x="823" y="693"/>
      <point x="692" y="710"/>
      <point x="559" y="710" type="curve" smooth="yes"/>
      <point x="271" y="710"/>
      <point x="86" y="654"/>
      <point x="86" y="457" type="curve" smooth="yes"/>
      <point x="86" y="339"/>
      <point x="169" y="272"/>
      <point x="325" y="250" type="curve" smooth="yes"/>
      <point x="569" y="216"/>
      <point x="661" y="239"/>
      <point x="661" y="204" type="curve" smooth="yes"/>
      <point x="661" y="184"/>
      <point x="635" y="180"/>
      <point x="550" y="180" type="curve" smooth="yes"/>
      <point x="408" y="180"/>
      <point x="242" y="205"/>
      <point x="106" y="248" type="curve"/>
      <point x="56" y="47" type="line"/>
      <point x="171" y="15"/>
      <point x="313" y="-5"/>
    </contour>
    <contour>
      <point x="446" y="-105" type="line"/>
      <point x="647" y="-105" type="line"/>
      <point x="647" y="12" type="line"/>
      <point x="446" y="7" type="line"/>
    </contour>
    <contour>
      <point x="446" y="691" type="line"/>
      <point x="647" y="692" type="line"/>
      <point x="647" y="805" type="line"/>
      <point x="446" y="805" type="line"/>
    </contour>
  </outline>
</glyph>
<glyph name="quotesingle" format="2">
  <advance width="310"/>
  <unicode hex="0027"/>
  <outline>
    <contour>
      <point x="40" y="427" type="line"/>
      <point x="270" y="427" type="line"/>
      <point x="280" y="700" type="line"/>
      <point x="30" y="700" type="line"/>
    </contour>
  </outline>
</glyph>
<glyph name="hyphen" format="2">
  <advance width="480"/>
  <unicode hex="002D"/>
  <outline>
    <contour>
      <point x="50" y="234" type="line"/>
      <point x="430" y="234" type="line"/>
      <point x="430" y="442" type="line"/>
      <point x="50" y="442" type="line"/>
    </contour>
  </outline>
</glyph>
<glyph name="one" format="2">
  <advance width="1050"/>
  <unicode hex="0031"/>
  <outline>
    <contour>
      <point x="172" y="0" type="line"/>
      <point x="958" y="0" type="line"/>
      <point x="958" y="210" type="line"/>
      <point x="738" y="210" type="line"/>
      <point x="738" y="700" type="line"/>
      <point x="586" y="700" type="line"/>
      <point x="150" y="546" type="line"/>
      <point x="221" y="341" type="line"/>
      <point x="430" y="413" type="line"/>
      <point x="430" y="210" type="line"/>
      <point x="172" y="210" type="line"/>
    </contour>
  </outline>
</glyph>
<glyph name="two" format="2">
  <advance width="1050"/>
  <unicode hex="0032"/>
  <outline>
    <contour>
      <point x="76" y="158" type="curve"/>
      <point x="76" y="0" type="line"/>
      <point x="978" y="0" type="line"/>
      <point x="978" y="210" type="line"/>
      <point x="633" y="210" type="line"/>
      <point x="812" y="283"/>
      <point x="878" y="349"/>
      <point x="878" y="458" type="curve" smooth="yes"/>
      <point x="878" y="609"/>
      <point x="730" y="710"/>
      <point x="484" y="710" type="curve" smooth="yes"/>
      <point x="349" y="710"/>
      <point x="178" y="672"/>
      <point x="77" y="620" type="curve"/>
      <point x="152" y="427" type="line"/>
      <point x="253" y="465"/>
      <point x="346" y="484"/>
      <point x="416" y="484" type="curve" smooth="yes"/>
      <point x="519" y="484"/>
      <point x="553" y="451"/>
      <point x="553" y="402" type="curve" smooth="yes"/>
      <point x="553" y="320"/>
      <point x="401" y="244"/>
    </contour>
  </outline>
</glyph>
<glyph name="three" format="2">
  <advance width="1050"/>
  <unicode hex="0033"/>
  <outline>
    <contour>
      <point x="59" y="43" type="line"/>
      <point x="165" y="8"/>
      <point x="301" y="-9"/>
      <point x="476" y="-9" type="curve" smooth="yes"/>
      <point x="816" y="-9"/>
      <point x="970" y="67"/>
      <point x="970" y="209" type="curve" smooth="yes"/>
      <point x="970" y="287"/>
      <point x="916" y="341"/>
      <point x="811" y="363" type="curve"/>
      <point x="901" y="382"/>
      <point x="948" y="430"/>
      <point x="948" y="510" type="curve" smooth="yes"/>
      <point x="948" y="641"/>
      <point x="830" y="710"/>
      <point x="495" y="710" type="curve" smooth="yes"/>
      <point x="326" y="710"/>
      <point x="153" y="693"/>
      <point x="78" y="669" type="curve"/>
      <point x="119" y="466" type="line"/>
      <point x="213" y="485"/>
      <point x="331" y="497"/>
      <point x="445" y="497" type="curve" smooth="yes"/>
      <point x="585" y="497"/>
      <point x="649" y="489"/>
      <point x="649" y="470" type="curve" smooth="yes"/>
      <point x="649" y="445"/>
      <point x="605" y="438"/>
      <point x="445" y="438" type="curve" smooth="yes"/>
      <point x="265" y="438" type="line"/>
      <point x="265" y="259" type="line"/>
      <point x="405" y="259" type="line" smooth="yes"/>
      <point x="576" y="259"/>
      <point x="660" y="248"/>
      <point x="660" y="225" type="curve" smooth="yes"/>
      <point x="660" y="204"/>
      <point x="627" y="200"/>
      <point x="465" y="200" type="curve" smooth="yes"/>
      <point x="340" y="200"/>
      <point x="186" y="215"/>
      <point x="108" y="235" type="curve"/>
    </contour>
  </outline>
</glyph>
<glyph name="five" format="2">
  <advance width="1050"/>
  <unicode hex="0035"/>
  <outline>
    <contour>
      <point x="60" y="42" type="line"/>
      <point x="186" y="1"/>
      <point x="330" y="-10"/>
      <point x="473" y="-10" type="curve" smooth="yes"/>
      <point x="775" y="-10"/>
      <point x="974" y="58"/>
      <point x="974" y="238" type="curve" smooth="yes"/>
      <point x="974" y="417"/>
      <point x="805" y="446"/>
      <point x="493" y="446" type="curve" smooth="yes"/>
      <point x="374" y="446" type="line"/>
      <point x="382" y="490" type="line"/>
      <point x="907" y="490" type="line"/>
      <point x="907" y="700" type="line"/>
      <point x="177" y="700" type="line"/>
      <point x="107" y="269" type="line"/>
      <point x="118" y="262" type="line"/>
      <point x="398" y="262" type="line" smooth="yes"/>
      <point x="646" y="262"/>
      <point x="674" y="242"/>
      <point x="674" y="225" type="curve" smooth="yes"/>
      <point x="674" y="201"/>
      <point x="622" y="193"/>
      <point x="461" y="193" type="curve" smooth="yes"/>
      <point x="336" y="193"/>
      <point x="190" y="208"/>
      <point x="112" y="228" type="curve"/>
    </contour>
  </outline>
</glyph>
<glyph name="six" format="2">
  <advance width="1050"/>
  <unicode hex="0036"/>
  <outline>
    <contour>
      <point x="540" y="-10" type="curve" smooth="yes"/>
      <point x="846" y="-10"/>
      <point x="1004" y="73"/>
      <point x="1004" y="240" type="curve" smooth="yes"/>
      <point x="1004" y="382"/>
      <point x="885" y="454"/>
      <point x="631" y="454" type="curve" smooth="yes"/>
      <point x="500" y="454"/>
      <point x="398" y="436"/>
      <point x="313" y="394" type="curve"/>
      <point x="316" y="238" type="line"/>
      <point x="412" y="253"/>
      <point x="475" y="268"/>
      <point x="570" y="268" type="curve" smooth="yes"/>
      <point x="675" y="268"/>
      <point x="708" y="255"/>
      <point x="708" y="227" type="curve" smooth="yes"/>
      <point x="708" y="197"/>
      <point x="669" y="184"/>
      <point x="581" y="184" type="curve" smooth="yes"/>
      <point x="385" y="184"/>
      <point x="334" y="236"/>
      <point x="334" y="338" type="curve" smooth="yes"/>
      <point x="334" y="457"/>
      <point x="432" y="505"/>
      <point x="618" y="505" type="curve" smooth="yes"/>
      <point x="736" y="505"/>
      <point x="797" y="496"/>
      <point x="919" y="473" type="curve"/>
      <point x="963" y="669" type="line"/>
      <point x="877" y="695"/>
      <point x="753" y="710"/>
      <point x="589" y="710" type="curve" smooth="yes"/>
      <point x="226" y="710"/>
      <point x="46" y="573"/>
      <point x="46" y="327" type="curve" smooth="yes"/>
      <point x="46" y="104"/>
      <point x="214" y="-10"/>
    </contour>
  </outline>
</glyph>
<glyph name="seven" format="2">
  <advance width="1050"/>
  <unicode hex="0037"/>
  <outline>
    <contour>
      <point x="267" y="0" type="curve"/>
      <point x="588" y="0" type="line"/>
      <point x="596" y="99"/>
      <point x="653" y="196"/>
      <point x="775" y="322" type="curve" smooth="yes"/>
      <point x="973" y="526" type="line"/>
      <point x="973" y="700" type="line"/>
      <point x="110" y="700" type="line"/>
      <point x="110" y="490" type="line"/>
      <point x="603" y="490" type="line"/>
      <point x="430" y="320" type="line" smooth="yes"/>
      <point x="313" y="206"/>
      <point x="267" y="114"/>
    </contour>
  </outline>
</glyph>
<glyph name="eight" format="2">
  <advance width="1050"/>
  <unicode hex="0038"/>
  <outline>
    <contour>
      <point x="602" y="418" type="curve"/>
      <point x="829" y="381" type="line"/>
      <point x="918" y="400"/>
      <point x="951" y="466"/>
      <point x="951" y="515" type="curve" smooth="yes"/>
      <point x="951" y="639"/>
      <point x="797" y="710"/>
      <point x="518" y="710" type="curve" smooth="yes"/>
      <point x="245" y="710"/>
      <point x="92" y="632"/>
      <point x="92" y="482" type="curve" smooth="yes"/>
      <point x="92" y="182"/>
      <point x="674" y="282"/>
      <point x="674" y="198" type="curve" smooth="yes"/>
      <point x="674" y="178"/>
      <point x="638" y="170"/>
      <point x="550" y="170" type="curve" smooth="yes"/>
      <point x="413" y="170"/>
      <point x="344" y="191"/>
      <point x="344" y="228" type="curve" smooth="yes"/>
      <point x="344" y="246"/>
      <point x="359" y="258"/>
      <point x="391" y="274" type="curve"/>
      <point x="189" y="349" type="line"/>
      <point x="84" y="348"/>
      <point x="35" y="271"/>
      <point x="35" y="208" type="curve" smooth="yes"/>
      <point x="35" y="65"/>
      <point x="201" y="-10"/>
      <point x="535" y="-10" type="curve" smooth="yes"/>
      <point x="875" y="-10"/>
      <point x="1016" y="61"/>
      <point x="1016" y="223" type="curve" smooth="yes"/>
      <point x="1016" y="491"/>
      <point x="386" y="428"/>
      <point x="386" y="495" type="curve" smooth="yes"/>
      <point x="386" y="515"/>
      <point x="408" y="531"/>
      <point x="523" y="531" type="curve" smooth="yes"/>
      <point x="626" y="531"/>
      <point x="666" y="508"/>
      <point x="666" y="480" type="curve" smooth="yes"/>
      <point x="666" y="456"/>
      <point x="646" y="441"/>
    </contour>
  </outline>
</glyph>
<glyph name="nine" format="2">
  <advance width="1050"/>
  <unicode hex="0039"/>
  <outline>
    <contour>
      <point x="461" y="-10" type="curve" smooth="yes"/>
      <point x="824" y="-10"/>
      <point x="1004" y="121"/>
      <point x="1004" y="357" type="curve" smooth="yes"/>
      <point x="1004" y="590"/>
      <point x="836" y="710"/>
      <point x="510" y="710" type="curve" smooth="yes"/>
      <point x="204" y="710"/>
      <point x="44" y="626"/>
      <point x="44" y="469" type="curve" smooth="yes"/>
      <point x="44" y="317"/>
      <point x="175" y="247"/>
      <point x="429" y="247" type="curve" smooth="yes"/>
      <point x="567" y="247"/>
      <point x="660" y="264"/>
      <point x="737" y="306" type="curve"/>
      <point x="734" y="465" type="line"/>
      <point x="638" y="445"/>
      <point x="581" y="433"/>
      <point x="496" y="433" type="curve" smooth="yes"/>
      <point x="378" y="433"/>
      <point x="341" y="441"/>
      <point x="341" y="476" type="curve" smooth="yes"/>
      <point x="341" y="509"/>
      <point x="396" y="516"/>
      <point x="476" y="516" type="curve" smooth="yes"/>
      <point x="623" y="516"/>
      <point x="715" y="489"/>
      <point x="715" y="364" type="curve" smooth="yes"/>
      <point x="715" y="245"/>
      <point x="624" y="195"/>
      <point x="418" y="195" type="curve" smooth="yes"/>
      <point x="320" y="195"/>
      <point x="249" y="204"/>
      <point x="128" y="228" type="curve"/>
      <point x="86" y="31" type="line"/>
      <point x="172" y="5"/>
      <point x="297" y="-10"/>
    </contour>
  </outline>
</glyph>
<glyph name="less" format="2">
  <advance width="782"/>
  <unicode hex="003C"/>
  <outline>
    <contour>
      <point x="722" y="21" type="line"/>
      <point x="722" y="234" type="line"/>
      <point x="306" y="318" type="line"/>
      <point x="722" y="401" type="line"/>
      <point x="722" y="616" type="line"/>
      <point x="60" y="419" type="line"/>
      <point x="60" y="214" type="line"/>
    </contour>
  </outline>
</glyph>
<glyph name="equal" format="2">
  <advance width="782"/>
  <unicode hex="003D"/>
  <outline>
    <contour>
      <point x="722" y="295" type="line"/>
      <point x="60" y="295" type="line"/>
      <point x="60" y="90" type="line"/>
      <point x="722" y="90" type="line"/>
    </contour>
    <contour>
      <point x="722" y="547" type="line"/>
      <point x="60" y="547" type="line"/>
      <point x="60" y="342" type="line"/>
      <point x="722" y="342" type="line"/>
    </contour>
  </outline>
</glyph>
<glyph name="question" format="2">
  <advance width="754"/>
  <unicode hex="003F"/>
  <outline>
    <contour>
      <point x="230" y="259" type="line"/>
      <point x="481" y="259" type="line"/>
      <point x="483" y="303" type="line"/>
      <point x="679" y="345"/>
      <point x="739" y="412"/>
      <point x="739" y="516" type="curve" smooth="yes"/>
      <point x="739" y="687"/>
      <point x="563" y="750"/>
      <point x="386" y="750" type="curve" smooth="yes"/>
      <point x="275" y="750"/>
      <point x="114" y="713"/>
      <point x="22" y="660" type="curve"/>
      <point x="89" y="465" type="line"/>
      <point x="178" y="503"/>
      <point x="264" y="532"/>
      <point x="335" y="532" type="curve" smooth="yes"/>
      <point x="398" y="532"/>
      <point x="427" y="525"/>
      <point x="427" y="503" type="curve" smooth="yes"/>
      <point x="427" y="481"/>
      <point x="419" y="468"/>
      <point x="223" y="435" type="curve"/>
    </contour>
    <contour>
      <point x="191" y="103" type="curve" smooth="yes"/>
      <point x="191" y="28"/>
      <point x="236" y="-11"/>
      <point x="354" y="-11" type="curve" smooth="yes"/>
      <point x="472" y="-11"/>
      <point x="517" y="28"/>
      <point x="517" y="103" type="curve" smooth="yes"/>
      <point x="517" y="179"/>
      <point x="472" y="218"/>
      <point x="354" y="218" type="curve" smooth="yes"/>
      <point x="236" y="218"/>
      <point x="191" y="179"/>
    </contour>
  </outline>
</glyph>
<glyph name="A" format="2">
  <advance width="1122"/>
  <unicode hex="0041"/>
  <anchor x="1117" y="0" name="ogonek"/>
  <anchor x="546" y="0" name="bottom"/>
  <anchor x="563" y="700" name="top"/>
  <outline>
    <contour>
      <point x="5" y="0" type="line"/>
      <point x="350" y="0" type="line"/>
      <point x="389" y="91" type="line"/>
      <point x="707" y="91" type="line"/>
      <point x="746" y="0" type="line"/>
      <point x="1117" y="0" type="line"/>
      <point x="726" y="700" type="line"/>
      <point x="396" y="700" type="line"/>
    </contour>
    <contour>
      <point x="470" y="281" type="line"/>
      <point x="548" y="464" type="line"/>
      <point x="626" y="281" type="line"/>
    </contour>
  </outline>
</glyph>
<glyph name="C" format="2">
  <advance width="1065"/>
  <unicode hex="0043"/>
  <anchor x="575" y="700" name="top"/>
  <anchor x="555" y="0" name="bottom"/>
  <outline>
    <contour>
      <point x="36" y="327" type="curve" smooth="yes"/>
      <point x="36" y="82"/>
      <point x="227" y="-10"/>
      <point x="572" y="-10" type="curve" smooth="yes"/>
      <point x="803" y="-10"/>
      <point x="908" y="15"/>
      <point x="1019" y="42" type="curve"/>
      <point x="963" y="243" type="line"/>
      <point x="851" y="223"/>
      <point x="727" y="209"/>
      <point x="619" y="209" type="curve" smooth="yes"/>
      <point x="433" y="209"/>
      <point x="365" y="251"/>
      <point x="365" y="338" type="curve" smooth="yes"/>
      <point x="365" y="439"/>
      <point x="427" y="486"/>
      <point x="625" y="486" type="curve" smooth="yes"/>
      <point x="711" y="486"/>
      <point x="816" y="475"/>
      <point x="932" y="458" type="curve"/>
      <point x="994" y="669" type="line"/>
      <point x="869" y="699"/>
      <point x="790" y="710"/>
      <point x="610" y="710" type="curve" smooth="yes"/>
      <point x="236" y="710"/>
      <point x="36" y="594"/>
    </contour>
  </outline>
</glyph>
<glyph name="D" format="2">
  <advance width="1139"/>
  <unicode hex="0044"/>
  <anchor x="567" y="700" name="top"/>
  <outline>
    <contour>
      <point x="576" y="-10" type="curve" smooth="yes"/>
      <point x="917" y="-10"/>
      <point x="1103" y="115"/>
      <point x="1103" y="344" type="curve" smooth="yes"/>
      <point x="1103" y="597"/>
      <point x="930" y="710"/>
      <point x="545" y="710" type="curve" smooth="yes"/>
      <point x="378" y="710"/>
      <point x="249" y="707"/>
      <point x="75" y="700" type="curve"/>
      <point x="75" y="0" type="line"/>
      <point x="223" y="-4"/>
      <point x="357" y="-10"/>
    </contour>
    <contour>
      <point x="596" y="189" type="curve" smooth="yes"/>
      <point x="506" y="189"/>
      <point x="468" y="192"/>
      <point x="395" y="194" type="curve"/>
      <point x="395" y="508" type="line"/>
      <point x="437" y="511"/>
      <point x="499" y="512"/>
      <point x="585" y="512" type="curve" smooth="yes"/>
      <point x="704" y="512"/>
      <point x="778" y="449"/>
      <point x="778" y="347" type="curve" smooth="yes"/>
      <point x="778" y="254"/>
      <point x="703" y="189"/>
    </contour>
  </outline>
</glyph>
<glyph name="F" format="2">
  <advance width="978"/>
  <unicode hex="0046"/>
  <outline>
    <contour>
      <point x="75" y="0" type="line"/>
      <point x="395" y="0" type="line"/>
      <point x="395" y="176" type="line"/>
      <point x="880" y="176" type="line"/>
      <point x="880" y="386" type="line"/>
      <point x="395" y="386" type="line"/>
      <point x="395" y="480" type="line"/>
      <point x="953" y="480" type="line"/>
      <point x="953" y="700" type="line"/>
      <point x="75" y="700" type="line"/>
    </contour>
  </outline>
</glyph>
<glyph name="G" format="2">
  <advance width="1086"/>
  <unicode hex="0047"/>
  <anchor x="573" y="700" name="top"/>
  <anchor x="559" y="0" name="bottom"/>
  <outline>
    <contour>
      <point x="36" y="327" type="curve" smooth="yes"/>
      <point x="36" y="99"/>
      <point x="205" y="-10"/>
      <point x="555" y="-10" type="curve" smooth="yes"/>
      <point x="741" y="-10"/>
      <point x="897" y="12"/>
      <point x="1031" y="58" type="curve"/>
      <point x="1031" y="434" type="line"/>
      <point x="590" y="434" type="line"/>
      <point x="590" y="244" type="line"/>
      <point x="751" y="244" type="line"/>
      <point x="751" y="200" type="line"/>
      <point x="718" y="196"/>
      <point x="669" y="193"/>
      <point x="619" y="193" type="curve" smooth="yes"/>
      <point x="448" y="193"/>
      <point x="365" y="230"/>
      <point x="365" y="338" type="curve" smooth="yes"/>
      <point x="365" y="445"/>
      <point x="437" y="486"/>
      <point x="625" y="486" type="curve" smooth="yes"/>
      <point x="706" y="486"/>
      <point x="811" y="477"/>
      <point x="935" y="458" type="curve"/>
      <point x="994" y="669" type="line"/>
      <point x="858" y="701"/>
      <point x="776" y="710"/>
      <point x="610" y="710" type="curve" smooth="yes"/>
      <point x="223" y="710"/>
      <point x="36" y="585"/>
    </contour>
  </outline>
</glyph>
<glyph name="H" format="2">
  <advance width="1156"/>
  <unicode hex="0048"/>
  <anchor x="578" y="700" name="top"/>
  <outline>
    <contour>
      <point x="75" y="0" type="line"/>
      <point x="395" y="0" type="line"/>
      <point x="395" y="211" type="line"/>
      <point x="761" y="211" type="line"/>
      <point x="761" y="0" type="line"/>
      <point x="1081" y="0" type="line"/>
      <point x="1081" y="700" type="line"/>
      <point x="761" y="700" type="line"/>
      <point x="761" y="451" type="line"/>
      <point x="395" y="451" type="line"/>
      <point x="395" y="700" type="line"/>
      <point x="75" y="700" type="line"/>
    </contour>
  </outline>
</glyph>
<glyph name="I" format="2">
  <advance width="470"/>
  <unicode hex="0049"/>
  <anchor x="395" y="0" name="ogonek"/>
  <anchor x="235" y="0" name="bottom"/>
  <anchor x="235" y="700" name="top"/>
  <outline>
    <contour>
      <point x="75" y="0" type="line"/>
      <point x="395" y="0" type="line"/>
      <point x="395" y="700" type="line"/>
      <point x="75" y="700" type="line"/>
    </contour>
  </outline>
</glyph>
<glyph name="J" format="2">
  <advance width="915"/>
  <unicode hex="004A"/>
  <anchor x="464" y="700" name="top"/>
  <outline>
    <contour>
      <point x="12" y="41" type="line"/>
      <point x="173" y="3"/>
      <point x="323" y="-10"/>
      <point x="448" y="-10" type="curve" smooth="yes"/>
      <point x="740" y="-10"/>
      <point x="847" y="89"/>
      <point x="847" y="306" type="curve" smooth="yes"/>
      <point x="847" y="700" type="line"/>
      <point x="89" y="700" type="line"/>
      <point x="89" y="467" type="line"/>
      <point x="527" y="467" type="line"/>
      <point x="527" y="339" type="line" smooth="yes"/>
      <point x="527" y="250"/>
      <point x="485" y="214"/>
      <point x="377" y="214" type="curve" smooth="yes"/>
      <point x="305" y="214"/>
      <point x="206" y="230"/>
      <point x="75" y="256" type="curve"/>
    </contour>
  </outline>
</glyph>
<glyph name="L" format="2">
  <advance width="966"/>
  <unicode hex="004C"/>
  <anchor x="483" y="350" name="center"/>
  <anchor x="235" y="700" name="top"/>
  <anchor x="556" y="700" name="topright"/>
  <anchor x="507" y="0" name="bottom"/>
  <outline>
    <contour>
      <point x="75" y="0" type="line"/>
      <point x="931" y="0" type="line"/>
      <point x="931" y="240" type="line"/>
      <point x="395" y="240" type="line"/>
      <point x="395" y="700" type="line"/>
      <point x="75" y="700" type="line"/>
    </contour>
  </outline>
</glyph>
<glyph name="N" format="2">
  <advance width="1065"/>
  <unicode hex="004E"/>
  <anchor x="533" y="700" name="top"/>
  <anchor x="533" y="0" name="bottom"/>
  <outline>
    <contour>
      <point x="75" y="0" type="line"/>
      <point x="365" y="0" type="line"/>
      <point x="365" y="314" type="line"/>
      <point x="719" y="0" type="line"/>
      <point x="990" y="0" type="line"/>
      <point x="990" y="700" type="line"/>
      <point x="700" y="700" type="line"/>
      <point x="700" y="355" type="line"/>
      <point x="347" y="700" type="line"/>
      <point x="75" y="700" type="line"/>
    </contour>
  </outline>
</glyph>
<glyph name="P" format="2">
  <advance width="1131"/>
  <unicode hex="0050"/>
  <outline>
    <contour>
      <point x="75" y="0" type="line"/>
      <point x="395" y="0" type="line"/>
      <point x="395" y="167" type="line"/>
      <point x="556" y="163"/>
      <point x="490" y="163"/>
      <point x="658" y="163" type="curve" smooth="yes"/>
      <point x="1005" y="163"/>
      <point x="1104" y="239"/>
      <point x="1104" y="438" type="curve" smooth="yes"/>
      <point x="1104" y="646"/>
      <point x="1005" y="710"/>
      <point x="569" y="710" type="curve" smooth="yes"/>
      <point x="506" y="710"/>
      <point x="328" y="707"/>
      <point x="75" y="700" type="curve"/>
    </contour>
    <contour>
      <point x="395" y="501" type="line"/>
      <point x="507" y="505"/>
      <point x="519" y="505"/>
      <point x="596" y="505" type="curve" smooth="yes"/>
      <point x="741" y="505"/>
      <point x="777" y="481"/>
      <point x="777" y="437" type="curve" smooth="yes"/>
      <point x="777" y="391"/>
      <point x="764" y="371"/>
      <point x="517" y="371" type="curve" smooth="yes"/>
      <point x="486" y="371"/>
      <point x="464" y="372"/>
      <point x="395" y="376" type="curve"/>
    </contour>
  </outline>
</glyph>
<glyph name="R" format="2">
  <advance width="1162"/>
  <unicode hex="0052"/>
  <anchor x="584" y="700" name="top"/>
  <anchor x="584" y="0" name="bottom"/>
  <outline>
    <contour>
      <point x="1074" y="-10" type="curve" smooth="yes"/>
      <point x="1086" y="-10"/>
      <point x="1102" y="-9"/>
      <point x="1111" y="-8" type="curve"/>
      <point x="1111" y="244" type="line"/>
      <point x="1103" y="244"/>
      <point x="1093" y="243"/>
      <point x="1084" y="243" type="curve" smooth="yes"/>
      <point x="1028" y="243"/>
      <point x="941" y="262"/>
      <point x="852" y="281" type="curve"/>
      <point x="979" y="302"/>
      <point x="1085" y="343"/>
      <point x="1085" y="485" type="curve" smooth="yes"/>
      <point x="1085" y="641"/>
      <point x="963" y="710"/>
      <point x="564" y="710" type="curve" smooth="yes"/>
      <point x="503" y="710"/>
      <point x="328" y="707"/>
      <point x="75" y="700" type="curve"/>
      <point x="75" y="0" type="line"/>
      <point x="395" y="0" type="line"/>
      <point x="395" y="205" type="line"/>
      <point x="405" y="205"/>
      <point x="414" y="205"/>
      <point x="424" y="205" type="curve"/>
      <point x="436" y="205"/>
      <point x="448" y="205"/>
      <point x="460" y="205" type="curve"/>
      <point x="664" y="106"/>
      <point x="885" y="-10"/>
    </contour>
    <contour>
      <point x="590" y="383" type="curve" smooth="yes"/>
      <point x="481" y="383"/>
      <point x="460" y="384"/>
      <point x="395" y="388" type="curve"/>
      <point x="395" y="513" type="line"/>
      <point x="501" y="517"/>
      <point x="512" y="517"/>
      <point x="585" y="517" type="curve" smooth="yes"/>
      <point x="722" y="517"/>
      <point x="756" y="498"/>
      <point x="756" y="454" type="curve" smooth="yes"/>
      <point x="756" y="408"/>
      <point x="713" y="383"/>
    </contour>
  </outline>
</glyph>
<glyph name="S" format="2">
  <advance width="1041"/>
  <unicode hex="0053"/>
  <anchor x="533" y="700" name="top"/>
  <anchor x="511" y="0" name="bottom"/>
  <outline>
    <contour>
      <point x="972" y="670" type="line"/>
      <point x="864" y="691"/>
      <point x="725" y="710"/>
      <point x="541" y="710" type="curve" smooth="yes"/>
      <point x="199" y="710"/>
      <point x="38" y="645"/>
      <point x="38" y="462" type="curve" smooth="yes"/>
      <point x="38" y="335"/>
      <point x="128" y="269"/>
      <point x="298" y="249" type="curve" smooth="yes"/>
      <point x="565" y="218"/>
      <point x="673" y="236"/>
      <point x="673" y="203" type="curve" smooth="yes"/>
      <point x="673" y="186"/>
      <point x="657" y="181"/>
      <point x="544" y="181" type="curve" smooth="yes"/>
      <point x="384" y="181"/>
      <point x="203" y="209"/>
      <point x="58" y="252" type="curve"/>
      <point x="4" y="47" type="line"/>
      <point x="140" y="13"/>
      <point x="321" y="-10"/>
      <point x="496" y="-10" type="curve" smooth="yes"/>
      <point x="828" y="-10"/>
      <point x="1027" y="49"/>
      <point x="1027" y="235" type="curve" smooth="yes"/>
      <point x="1027" y="377"/>
      <point x="921" y="440"/>
      <point x="675" y="456" type="curve" smooth="yes"/>
      <point x="449" y="471"/>
      <point x="391" y="460"/>
      <point x="391" y="490" type="curve" smooth="yes"/>
      <point x="391" y="508"/>
      <point x="419" y="513"/>
      <point x="513" y="513" type="curve" smooth="yes"/>
      <point x="660" y="513"/>
      <point x="832" y="492"/>
      <point x="922" y="466" type="curve"/>
    </contour>
  </outline>
</glyph>
<glyph name="U" format="2">
  <advance width="1132"/>
  <unicode hex="0055"/>
  <anchor x="698" y="0" name="ogonek"/>
  <anchor x="566" y="700" name="top"/>
  <anchor x="1064" y="700" name="topright"/>
  <anchor x="566" y="0" name="bottom"/>
  <outline>
    <contour>
      <point x="68" y="292" type="line"/>
      <point x="68" y="94"/>
      <point x="216" y="-10"/>
      <point x="566" y="-10" type="curve" smooth="yes"/>
      <point x="916" y="-10"/>
      <point x="1064" y="94"/>
      <point x="1064" y="292" type="curve" smooth="yes"/>
      <point x="1064" y="700" type="line"/>
      <point x="752" y="700" type="line"/>
      <point x="752" y="324" type="line" smooth="yes"/>
      <point x="752" y="254"/>
      <point x="700" y="207"/>
      <point x="569" y="207" type="curve" smooth="yes"/>
      <point x="445" y="207"/>
      <point x="380" y="245"/>
      <point x="380" y="324" type="curve" smooth="yes"/>
      <point x="380" y="700" type="line"/>
      <point x="68" y="700" type="line"/>
    </contour>
  </outline>
</glyph>
<glyph name="Z" format="2">
  <advance width="1035"/>
  <unicode hex="005A"/>
  <anchor x="519" y="350" name="center"/>
  <anchor x="519" y="0" name="bottom"/>
  <anchor x="519" y="700" name="top"/>
  <outline>
    <contour>
      <point x="37" y="0" type="line"/>
      <point x="998" y="0" type="line"/>
      <point x="998" y="210" type="line"/>
      <point x="512" y="210" type="line"/>
      <point x="512" y="212" type="line"/>
      <point x="958" y="510" type="line"/>
      <point x="958" y="700" type="line"/>
      <point x="64" y="700" type="line"/>
      <point x="64" y="490" type="line"/>
      <point x="500" y="490" type="line"/>
      <point x="500" y="488" type="line"/>
      <point x="37" y="190" type="line"/>
    </contour>
  </outline>
</glyph>
<glyph name="backslash" format="2">
  <advance width="645"/>
  <unicode hex="005C"/>
  <outline>
    <contour>
      <point x="235" y="740" type="line"/>
      <point x="10" y="740" type="line"/>
      <point x="410" y="-210" type="line"/>
      <point x="635" y="-210" type="line"/>
    </contour>
  </outline>
</glyph>
<glyph name="underscore" format="2">
  <advance width="1040"/>
  <unicode hex="005F"/>
  <outline>
    <contour>
      <point x="20" y="-210" type="line"/>
      <point x="1020" y="-210" type="line"/>
      <point x="1020" y="-42" type="line"/>
      <point x="20" y="-42" type="line"/>
    </contour>
  </outline>
</glyph>
<glyph name="a" format="2">
  <advance width="864"/>
  <unicode hex="0061"/>
  <anchor x="804" y="10" name="ogonek"/>
  <anchor x="428" y="0" name="bottom"/>
  <anchor x="428" y="550" name="top"/>
  <outline>
    <contour>
      <point x="28" y="165" type="curve" smooth="yes"/>
      <point x="28" y="23"/>
      <point x="149" y="-10"/>
      <point x="259" y="-10" type="curve" smooth="yes"/>
      <point x="359" y="-10"/>
      <point x="437" y="10"/>
      <point x="527" y="59" type="curve"/>
      <point x="558" y="13"/>
      <point x="621" y="-10"/>
      <point x="701" y="-10" type="curve" smooth="yes"/>
      <point x="761" y="-10"/>
      <point x="822" y="6"/>
      <point x="864" y="37" type="curve"/>
      <point x="840" y="196" type="line"/>
      <point x="831" y="192"/>
      <point x="819" y="192"/>
      <point x="811" y="192" type="curve" smooth="yes"/>
      <point x="797" y="192"/>
      <point x="786" y="202"/>
      <point x="786" y="233" type="curve" smooth="yes"/>
      <point x="786" y="350" type="line" smooth="yes"/>
      <point x="786" y="494"/>
      <point x="672" y="560"/>
      <point x="382" y="560" type="curve" smooth="yes"/>
      <point x="271" y="560"/>
      <point x="158" y="544"/>
      <point x="68" y="525" type="curve"/>
      <point x="99" y="343" type="line"/>
      <point x="162" y="357"/>
      <point x="285" y="373"/>
      <point x="362" y="373" type="curve" smooth="yes"/>
      <point x="451" y="373"/>
      <point x="493" y="369"/>
      <point x="493" y="345" type="curve" smooth="yes"/>
      <point x="493" y="343" type="line"/>
      <point x="145" y="336"/>
      <point x="28" y="307"/>
    </contour>
    <contour>
      <point x="337" y="170" type="curve" smooth="yes"/>
      <point x="337" y="200"/>
      <point x="359" y="213"/>
      <point x="493" y="217" type="curve"/>
      <point x="493" y="175" type="line"/>
      <point x="470" y="153"/>
      <point x="410" y="138"/>
      <point x="384" y="138" type="curve" smooth="yes"/>
      <point x="354" y="138"/>
      <point x="337" y="151"/>
    </contour>
  </outline>
</glyph>
<glyph name="b" format="2">
  <advance width="929"/>
  <unicode hex="0062"/>
  <outline>
    <contour>
      <point x="54" y="23" type="line"/>
      <point x="220" y="1"/>
      <point x="356" y="-10"/>
      <point x="468" y="-10" type="curve" smooth="yes"/>
      <point x="770" y="-10"/>
      <point x="900" y="77"/>
      <point x="900" y="279" type="curve" smooth="yes"/>
      <point x="900" y="456"/>
      <point x="799" y="560"/>
      <point x="626" y="560" type="curve" smooth="yes"/>
      <point x="530" y="560"/>
      <point x="448" y="539"/>
      <point x="354" y="489" type="curve"/>
      <point x="354" y="740" type="line"/>
      <point x="54" y="740" type="line"/>
    </contour>
    <contour>
      <point x="354" y="186" type="curve"/>
      <point x="354" y="321" type="line"/>
      <point x="409" y="339"/>
      <point x="458" y="348"/>
      <point x="497" y="348" type="curve" smooth="yes"/>
      <point x="562" y="348"/>
      <point x="596" y="320"/>
      <point x="596" y="265" type="curve" smooth="yes"/>
      <point x="596" y="204"/>
      <point x="552" y="171"/>
      <point x="471" y="171" type="curve" smooth="yes"/>
      <point x="432" y="171"/>
      <point x="390" y="176"/>
    </contour>
  </outline>
</glyph>
<glyph name="c" format="2">
  <advance width="839"/>
  <unicode hex="0063"/>
  <anchor x="456" y="550" name="top"/>
  <anchor x="453" y="0" name="bottom"/>
  <outline>
    <contour>
      <point x="29" y="254" type="curve" smooth="yes"/>
      <point x="29" y="74"/>
      <point x="164" y="-10"/>
      <point x="451" y="-10" type="curve" smooth="yes"/>
      <point x="570" y="-10"/>
      <point x="696" y="2"/>
      <point x="814" y="25" type="curve"/>
      <point x="784" y="204" type="line"/>
      <point x="675" y="188"/>
      <point x="602" y="182"/>
      <point x="508" y="182" type="curve" smooth="yes"/>
      <point x="399" y="182"/>
      <point x="333" y="205"/>
      <point x="333" y="266" type="curve" smooth="yes"/>
      <point x="333" y="330"/>
      <point x="378" y="363"/>
      <point x="486" y="363" type="curve" smooth="yes"/>
      <point x="564" y="363"/>
      <point x="658" y="355"/>
      <point x="765" y="338" type="curve"/>
      <point x="795" y="530" type="line"/>
      <point x="703" y="549"/>
      <point x="590" y="560"/>
      <point x="481" y="560" type="curve" smooth="yes"/>
      <point x="190" y="560"/>
      <point x="29" y="451"/>
    </contour>
  </outline>
</glyph>
<glyph name="g" format="2">
  <advance width="892"/>
  <unicode hex="0067"/>
  <anchor x="418" y="550" name="top"/>
  <anchor x="400" y="-220" name="bottom"/>
  <outline>
    <contour>
      <point x="360" y="-220" type="curve" smooth="yes"/>
      <point x="709" y="-220"/>
      <point x="866" y="-150"/>
      <point x="866" y="2" type="curve" smooth="yes"/>
      <point x="866" y="97"/>
      <point x="772" y="163"/>
      <point x="619" y="163" type="curve" smooth="yes"/>
      <point x="324" y="163" type="line" smooth="yes"/>
      <point x="298" y="163"/>
      <point x="286" y="169"/>
      <point x="286" y="185" type="curve" smooth="yes"/>
      <point x="286" y="200"/>
      <point x="293" y="211"/>
      <point x="313" y="224" type="curve"/>
      <point x="176" y="255" type="line"/>
      <point x="91" y="227"/>
      <point x="36" y="182"/>
      <point x="36" y="113" type="curve" smooth="yes"/>
      <point x="36" y="-5"/>
      <point x="173" y="-23"/>
      <point x="367" y="-23" type="curve" smooth="yes"/>
      <point x="493" y="-23" type="line" smooth="yes"/>
      <point x="578" y="-23"/>
      <point x="578" y="-23"/>
      <point x="578" y="-39" type="curve" smooth="yes"/>
      <point x="578" y="-61"/>
      <point x="518" y="-71"/>
      <point x="390" y="-71" type="curve" smooth="yes"/>
      <point x="269" y="-71"/>
      <point x="247" y="-66"/>
      <point x="247" y="-36" type="curve" smooth="yes"/>
      <point x="247" y="-24"/>
      <point x="254" y="-19"/>
      <point x="262" y="-7" type="curve"/>
      <point x="138" y="33" type="line"/>
      <point x="40" y="0"/>
      <point x="9" y="-44"/>
      <point x="9" y="-94" type="curve" smooth="yes"/>
      <point x="9" y="-179"/>
      <point x="126" y="-220"/>
    </contour>
    <contour>
      <point x="418" y="191" type="curve" smooth="yes"/>
      <point x="663" y="191"/>
      <point x="785" y="252"/>
      <point x="785" y="376" type="curve" smooth="yes"/>
      <point x="785" y="500"/>
      <point x="663" y="561"/>
      <point x="418" y="561" type="curve" smooth="yes"/>
      <point x="173" y="561"/>
      <point x="51" y="500"/>
      <point x="51" y="376" type="curve" smooth="yes"/>
      <point x="51" y="252"/>
      <point x="173" y="191"/>
    </contour>
    <contour>
      <point x="418" y="341" type="curve" smooth="yes"/>
      <point x="357" y="341"/>
      <point x="330" y="350"/>
      <point x="330" y="376" type="curve" smooth="yes"/>
      <point x="330" y="402"/>
      <point x="357" y="411"/>
      <point x="418" y="411" type="curve" smooth="yes"/>
      <point x="479" y="411"/>
      <point x="506" y="402"/>
      <point x="506" y="376" type="curve" smooth="yes"/>
      <point x="506" y="350"/>
      <point x="479" y="341"/>
    </contour>
    <contour>
      <point x="760" y="401" type="line"/>
      <point x="772" y="411"/>
      <point x="785" y="414"/>
      <point x="802" y="414" type="curve" smooth="yes"/>
      <point x="820" y="414"/>
      <point x="845" y="412"/>
      <point x="863" y="408" type="curve"/>
      <point x="886" y="586" type="line"/>
      <point x="868" y="589"/>
      <point x="847" y="590"/>
      <point x="819" y="590" type="curve" smooth="yes"/>
      <point x="720" y="590"/>
      <point x="661" y="553"/>
      <point x="648" y="484" type="curve"/>
    </contour>
  </outline>
</glyph>
<glyph name="m" format="2">
  <advance width="1306"/>
  <unicode hex="006D"/>
  <outline>
    <contour>
      <point x="54" y="0" type="line"/>
      <point x="354" y="0" type="line"/>
      <point x="354" y="327" type="line"/>
      <point x="382" y="338"/>
      <point x="408" y="344"/>
      <point x="429" y="344" type="curve" smooth="yes"/>
      <point x="478" y="344"/>
      <point x="503" y="311"/>
      <point x="503" y="244" type="curve" smooth="yes"/>
      <point x="503" y="0" type="line"/>
      <point x="803" y="0" type="line"/>
      <point x="803" y="278" type="line" smooth="yes"/>
      <point x="803" y="294"/>
      <point x="803" y="311"/>
      <point x="802" y="327" type="curve"/>
      <point x="839" y="340"/>
      <point x="863" y="345"/>
      <point x="882" y="345" type="curve" smooth="yes"/>
      <point x="930" y="345"/>
      <point x="952" y="313"/>
      <point x="952" y="244" type="curve" smooth="yes"/>
      <point x="952" y="0" type="line"/>
      <point x="1252" y="0" type="line"/>
      <point x="1252" y="352" type="line" smooth="yes"/>
      <point x="1252" y="476"/>
      <point x="1162" y="560"/>
      <point x="1028" y="560" type="curve" smooth="yes"/>
      <point x="943" y="560"/>
      <point x="881" y="541"/>
      <point x="750" y="475" type="curve"/>
      <point x="714" y="536"/>
      <point x="662" y="560"/>
      <point x="564" y="560" type="curve" smooth="yes"/>
      <point x="493" y="560"/>
      <point x="418" y="537"/>
      <point x="323" y="486" type="curve"/>
      <point x="323" y="550" type="line"/>
      <point x="54" y="550" type="line"/>
    </contour>
  </outline>
</glyph>
<glyph name="o" format="2">
  <advance width="892"/>
  <unicode hex="006F"/>
  <anchor x="587" y="1" name="ogonek"/>
  <anchor x="446" y="550" name="top"/>
  <anchor x="716" y="540" name="topright"/>
  <anchor x="447" y="0" name="bottom"/>
  <outline>
    <contour>
      <point x="29" y="277" type="curve" smooth="yes"/>
      <point x="29" y="88"/>
      <point x="156" y="-10"/>
      <point x="447" y="-10" type="curve" smooth="yes"/>
      <point x="736" y="-10"/>
      <point x="863" y="88"/>
      <point x="863" y="277" type="curve" smooth="yes"/>
      <point x="863" y="453"/>
      <point x="754" y="560"/>
      <point x="447" y="560" type="curve" smooth="yes"/>
      <point x="138" y="560"/>
      <point x="29" y="453"/>
    </contour>
    <contour>
      <point x="334" y="276" type="curve" smooth="yes"/>
      <point x="334" y="341"/>
      <point x="362" y="391"/>
      <point x="446" y="391" type="curve" smooth="yes"/>
      <point x="531" y="391"/>
      <point x="558" y="341"/>
      <point x="558" y="276" type="curve" smooth="yes"/>
      <point x="558" y="206"/>
      <point x="525" y="159"/>
      <point x="446" y="159" type="curve" smooth="yes"/>
      <point x="367" y="159"/>
      <point x="334" y="206"/>
    </contour>
  </outline>
</glyph>
<glyph name="q" format="2">
  <advance width="929"/>
  <unicode hex="0071"/>
  <outline>
    <contour>
      <point x="875" y="527" type="line"/>
      <point x="709" y="549"/>
      <point x="573" y="560"/>
      <point x="461" y="560" type="curve" smooth="yes"/>
      <point x="159" y="560"/>
      <point x="29" y="473"/>
      <point x="29" y="271" type="curve" smooth="yes"/>
      <point x="29" y="94"/>
      <point x="130" y="-10"/>
      <point x="303" y="-10" type="curve" smooth="yes"/>
      <point x="399" y="-10"/>
      <point x="481" y="11"/>
      <point x="575" y="61" type="curve"/>
      <point x="575" y="-210" type="line"/>
      <point x="875" y="-210" type="line"/>
    </contour>
    <contour>
      <point x="575" y="364" type="curve"/>
      <point x="575" y="229" type="line"/>
      <point x="520" y="211"/>
      <point x="471" y="202"/>
      <point x="432" y="202" type="curve" smooth="yes"/>
      <point x="367" y="202"/>
      <point x="333" y="230"/>
      <point x="333" y="285" type="curve" smooth="yes"/>
      <point x="333" y="346"/>
      <point x="377" y="379"/>
      <point x="458" y="379" type="curve" smooth="yes"/>
      <point x="498" y="379"/>
      <point x="539" y="374"/>
    </contour>
  </outline>
</glyph>
<glyph name="r" format="2">
  <advance width="659"/>
  <unicode hex="0072"/>
  <anchor x="335" y="550" name="top"/>
  <anchor x="204" y="0" name="bottom"/>
  <outline>
    <contour>
      <point x="323" y="550" type="line"/>
      <point x="54" y="550" type="line"/>
      <point x="54" y="0" type="line"/>
      <point x="354" y="0" type="line"/>
      <point x="354" y="307" type="line"/>
      <point x="411" y="329"/>
      <point x="456" y="335"/>
      <point x="495" y="335" type="curve" smooth="yes"/>
      <point x="533" y="335"/>
      <point x="567" y="329"/>
      <point x="610" y="320" type="curve"/>
      <point x="650" y="547" type="line"/>
      <point x="613" y="555"/>
      <point x="578" y="560"/>
      <point x="547" y="560" type="curve" smooth="yes"/>
      <point x="464" y="560"/>
      <point x="416" y="535"/>
      <point x="323" y="465" type="curve"/>
    </contour>
  </outline>
</glyph>
<glyph name="t" format="2">
  <advance width="650"/>
  <unicode hex="0074"/>
  <anchor x="312" y="275" name="center"/>
  <anchor x="281" y="665" name="top"/>
  <anchor x="460" y="790" name="topright"/>
  <anchor x="353" y="0" name="bottom"/>
  <outline>
    <contour>
      <point x="372" y="-10" type="curve" smooth="yes"/>
      <point x="465" y="-10"/>
      <point x="537" y="3"/>
      <point x="627" y="22" type="curve"/>
      <point x="593" y="227" type="line"/>
      <point x="535" y="217"/>
      <point x="503" y="210"/>
      <point x="474" y="210" type="curve" smooth="yes"/>
      <point x="432" y="210"/>
      <point x="416" y="224"/>
      <point x="416" y="261" type="curve" smooth="yes"/>
      <point x="416" y="371" type="line"/>
      <point x="597" y="371" type="line"/>
      <point x="597" y="550" type="line"/>
      <point x="416" y="550" type="line"/>
      <point x="416" y="665" type="line"/>
      <point x="146" y="665" type="line"/>
      <point x="116" y="550" type="line"/>
      <point x="4" y="530" type="line"/>
      <point x="4" y="371" type="line"/>
      <point x="116" y="371" type="line"/>
      <point x="116" y="247" type="line" smooth="yes"/>
      <point x="116" y="48"/>
      <point x="214" y="-10"/>
    </contour>
  </outline>
</glyph>
<glyph name="u" format="2">
  <advance width="916"/>
  <unicode hex="0075"/>
  <anchor x="916" y="37" name="ogonek"/>
  <anchor x="459" y="550" name="top"/>
  <anchor x="838" y="550" name="topright"/>
  <anchor x="459" y="0" name="bottom"/>
  <outline>
    <contour>
      <point x="310" y="-10" type="curve" smooth="yes"/>
      <point x="409" y="-10"/>
      <point x="486" y="14"/>
      <point x="577" y="60" type="curve"/>
      <point x="611" y="13"/>
      <point x="651" y="-10"/>
      <point x="736" y="-10" type="curve" smooth="yes"/>
      <point x="801" y="-10"/>
      <point x="880" y="11"/>
      <point x="916" y="37" type="curve"/>
      <point x="892" y="197" type="line"/>
      <point x="883" y="193"/>
      <point x="876" y="192"/>
      <point x="867" y="192" type="curve" smooth="yes"/>
      <point x="851" y="192"/>
      <point x="838" y="202"/>
      <point x="838" y="223" type="curve" smooth="yes"/>
      <point x="838" y="550" type="line"/>
      <point x="538" y="550" type="line"/>
      <point x="538" y="217" type="line"/>
      <point x="492" y="201"/>
      <point x="468" y="197"/>
      <point x="436" y="197" type="curve" smooth="yes"/>
      <point x="386" y="197"/>
      <point x="354" y="223"/>
      <point x="354" y="292" type="curve" smooth="yes"/>
      <point x="354" y="550" type="line"/>
      <point x="54" y="550" type="line"/>
      <point x="54" y="198" type="line" smooth="yes"/>
      <point x="54" y="71"/>
      <point x="154" y="-10"/>
    </contour>
  </outline>
</glyph>
<glyph name="v" format="2">
  <advance width="874"/>
  <unicode hex="0076"/>
  <outline>
    <contour>
      <point x="287" y="0" type="line"/>
      <point x="587" y="0" type="line"/>
      <point x="867" y="550" type="line"/>
      <point x="529" y="550" type="line"/>
      <point x="450" y="215" type="line"/>
      <point x="345" y="550" type="line"/>
      <point x="7" y="550" type="line"/>
    </contour>
  </outline>
</glyph>
<glyph name="x" format="2">
  <advance width="923"/>
  <unicode hex="0078"/>
  <outline>
    <contour>
      <point x="-2" y="0" type="line"/>
      <point x="392" y="0" type="line"/>
      <point x="474" y="133" type="line"/>
      <point x="559" y="0" type="line"/>
      <point x="925" y="0" type="line"/>
      <point x="652" y="284" type="line"/>
      <point x="912" y="550" type="line"/>
      <point x="559" y="550" type="line"/>
      <point x="471" y="430" type="line"/>
      <point x="391" y="550" type="line"/>
      <point x="22" y="550" type="line"/>
      <point x="281" y="286" type="line"/>
    </contour>
  </outline>
</glyph>
<glyph name="y" format="2">
  <advance width="881"/>
  <unicode hex="0079"/>
  <anchor x="441" y="550" name="top"/>
  <anchor x="726" y="0" name="bottom"/>
  <outline>
    <contour>
      <point x="199" y="-210" type="line"/>
      <point x="517" y="-210" type="line"/>
      <point x="874" y="550" type="line"/>
      <point x="561" y="550" type="line"/>
      <point x="451" y="210" type="line"/>
      <point x="345" y="550" type="line"/>
      <point x="7" y="550" type="line"/>
      <point x="274" y="0" type="line"/>
      <point x="296" y="0" type="line"/>
    </contour>
  </outline>
</glyph>
<glyph name="exclamdown" format="2">
  <advance width="390"/>
  <unicode hex="00A1"/>
  <outline>
    <contour>
      <point x="324" y="290" type="line"/>
      <point x="73" y="290" type="line"/>
      <point x="53" y="-191" type="line"/>
      <point x="344" y="-191" type="line"/>
    </contour>
    <contour>
      <point x="358" y="446" type="curve" smooth="yes"/>
      <point x="358" y="521"/>
      <point x="313" y="560"/>
      <point x="195" y="560" type="curve" smooth="yes"/>
      <point x="77" y="560"/>
      <point x="32" y="521"/>
      <point x="32" y="446" type="curve" smooth="yes"/>
      <point x="32" y="370"/>
      <point x="77" y="331"/>
      <point x="195" y="331" type="curve" smooth="yes"/>
      <point x="313" y="331"/>
      <point x="358" y="370"/>
    </contour>
  </outline>
</glyph>
<glyph name="cent" format="2">
  <advance width="1050"/>
  <unicode hex="00A2"/>
  <outline>
    <contour>
      <point x="534" y="-10" type="curve" smooth="yes"/>
      <point x="655" y="-10"/>
      <point x="779" y="2"/>
      <point x="889" y="25" type="curve"/>
      <point x="860" y="204" type="line"/>
      <point x="757" y="188"/>
      <point x="687" y="182"/>
      <point x="607" y="182" type="curve" smooth="yes"/>
      <point x="495" y="182"/>
      <point x="431" y="207"/>
      <point x="431" y="272" type="curve" smooth="yes"/>
      <point x="431" y="334"/>
      <point x="482" y="363"/>
      <point x="576" y="363" type="curve" smooth="yes"/>
      <point x="661" y="363"/>
      <point x="751" y="355"/>
      <point x="842" y="338" type="curve"/>
      <point x="871" y="530" type="line"/>
      <point x="769" y="551"/>
      <point x="696" y="560"/>
      <point x="566" y="560" type="curve" smooth="yes"/>
      <point x="259" y="560"/>
      <point x="141" y="421"/>
      <point x="141" y="266" type="curve" smooth="yes"/>
      <point x="141" y="90"/>
      <point x="283" y="-10"/>
    </contour>
    <contour>
      <point x="422" y="-105" type="line"/>
      <point x="623" y="-105" type="line"/>
      <point x="623" y="8" type="line"/>
      <point x="422" y="14" type="line"/>
    </contour>
    <contour>
      <point x="422" y="531" type="line"/>
      <point x="623" y="543" type="line"/>
      <point x="623" y="655" type="line"/>
      <point x="422" y="655" type="line"/>
    </contour>
  </outline>
</glyph>
<glyph name="sterling" format="2">
  <advance width="1050"/>
  <unicode hex="00A3"/>
  <outline>
    <contour>
      <point x="129" y="0" type="line"/>
      <point x="933" y="0" type="line"/>
      <point x="933" y="200" type="line"/>
      <point x="483" y="200" type="line"/>
      <point x="517" y="217"/>
      <point x="537" y="259"/>
      <point x="537" y="284" type="curve" smooth="yes"/>
      <point x="537" y="331"/>
      <point x="471" y="399"/>
      <point x="471" y="438" type="curve" smooth="yes"/>
      <point x="471" y="485"/>
      <point x="538" y="496"/>
      <point x="600" y="496" type="curve" smooth="yes"/>
      <point x="716" y="496"/>
      <point x="808" y="484"/>
      <point x="891" y="459" type="curve"/>
      <point x="926" y="663" type="line"/>
      <point x="813" y="694"/>
      <point x="732" y="710"/>
      <point x="580" y="710" type="curve" smooth="yes"/>
      <point x="305" y="710"/>
      <point x="166" y="637"/>
      <point x="166" y="514" type="curve" smooth="yes"/>
      <point x="166" y="433"/>
      <point x="250" y="333"/>
      <point x="250" y="289" type="curve" smooth="yes"/>
      <point x="250" y="228"/>
      <point x="220" y="216"/>
      <point x="129" y="168" type="curve"/>
    </contour>
    <contour>
      <point x="120" y="281" type="line"/>
      <point x="773" y="281" type="line"/>
      <point x="773" y="392" type="line"/>
      <point x="120" y="392" type="line"/>
    </contour>
  </outline>
</glyph>
<glyph name="ordfeminine" format="2">
  <advance width="634"/>
  <unicode hex="00AA"/>
  <outline>
    <contour>
      <point x="67" y="141" type="line"/>
      <point x="608" y="141" type="line"/>
      <point x="608" y="295" type="line"/>
      <point x="67" y="295" type="line"/>
    </contour>
    <component base="a.superior" xOffset="8"/>
  </outline>
</glyph>
<glyph name="registered" format="2">
  <advance width="874"/>
  <unicode hex="00AE"/>
  <outline>
    <contour>
      <point x="424" y="206" type="curve" smooth="yes"/>
      <point x="681" y="206"/>
      <point x="823" y="341"/>
      <point x="823" y="549" type="curve" smooth="yes"/>
      <point x="823" y="749"/>
      <point x="682" y="894"/>
      <point x="424" y="894" type="curve" smooth="yes"/>
      <point x="183" y="894"/>
      <point x="51" y="749"/>
      <point x="51" y="549" type="curve" smooth="yes"/>
      <point x="51" y="350"/>
      <point x="180" y="206"/>
    </contour>
    <contour>
      <point x="424" y="291" type="curve" smooth="yes"/>
      <point x="235" y="291"/>
      <point x="152" y="398"/>
      <point x="152" y="549" type="curve" smooth="yes"/>
      <point x="152" y="702"/>
      <point x="236" y="803"/>
      <point x="424" y="803" type="curve" smooth="yes"/>
      <point x="628" y="803"/>
      <point x="722" y="701"/>
      <point x="722" y="549" type="curve" smooth="yes"/>
      <point x="722" y="397"/>
      <point x="626" y="291"/>
    </contour>
    <contour>
      <point x="643" y="406" type="curve" smooth="yes"/>
      <point x="645" y="406"/>
      <point x="645" y="406"/>
      <point x="647" y="406" type="curve"/>
      <point x="647" y="508" type="line"/>
      <point x="646" y="508"/>
      <point x="645" y="508"/>
      <point x="645" y="508" type="curve" smooth="yes"/>
      <point x="624" y="509"/>
      <point x="589" y="517"/>
      <point x="557" y="528" type="curve"/>
      <point x="608" y="531"/>
      <point x="649" y="547"/>
      <point x="649" y="607" type="curve" smooth="yes"/>
      <point x="649" y="670"/>
      <point x="600" y="698"/>
      <point x="438" y="698" type="curve" smooth="yes"/>
      <point x="412" y="698"/>
      <point x="343" y="697"/>
      <point x="242" y="693" type="curve"/>
      <point x="242" y="411" type="line"/>
      <point x="370" y="411" type="line"/>
      <point x="370" y="495" type="line"/>
      <point x="375" y="495"/>
      <point x="379" y="495"/>
      <point x="383" y="495" type="curve"/>
      <point x="389" y="495"/>
      <point x="394" y="495"/>
      <point x="400" y="495" type="curve"/>
      <point x="478" y="455"/>
      <point x="557" y="406"/>
    </contour>
    <contour>
      <point x="417" y="565" type="curve" smooth="yes"/>
      <point x="406" y="565"/>
      <point x="396" y="566"/>
      <point x="370" y="566" type="curve"/>
      <point x="370" y="616" type="line"/>
      <point x="412" y="617"/>
      <point x="417" y="617"/>
      <point x="447" y="617" type="curve" smooth="yes"/>
      <point x="505" y="617"/>
      <point x="516" y="610"/>
      <point x="516" y="592" type="curve" smooth="yes"/>
      <point x="516" y="570"/>
      <point x="507" y="565"/>
    </contour>
  </outline>
</glyph>
<glyph name="paragraph" format="2">
  <advance width="990"/>
  <unicode hex="00B6"/>
  <outline>
    <contour>
      <point x="654" y="-210" type="line"/>
      <point x="884" y="-210" type="line"/>
      <point x="884" y="740" type="line"/>
      <point x="654" y="740" type="line"/>
    </contour>
    <contour>
      <point x="365" y="337" type="line"/>
      <point x="337" y="347"/>
      <point x="324" y="379"/>
      <point x="324" y="435" type="curve" smooth="yes"/>
      <point x="324" y="517"/>
      <point x="344" y="535"/>
      <point x="389" y="535" type="curve"/>
      <point x="389" y="-210" type="line"/>
      <point x="619" y="-210" type="line"/>
      <point x="619" y="740" type="line"/>
      <point x="449" y="740" type="line" smooth="yes"/>
      <point x="174" y="740"/>
      <point x="75" y="660"/>
      <point x="75" y="469" type="curve" smooth="yes"/>
      <point x="75" y="300"/>
      <point x="159" y="209"/>
      <point x="341" y="196" type="curve"/>
    </contour>
  </outline>
</glyph>
<glyph name="periodcentered" format="2">
  <advance width="390"/>
  <unicode hex="00B7"/>
  <outline>
    <contour>
      <point x="32" y="316" type="curve" smooth="yes"/>
      <point x="32" y="241"/>
      <point x="77" y="202"/>
      <point x="195" y="202" type="curve" smooth="yes"/>
      <point x="313" y="202"/>
      <point x="358" y="241"/>
      <point x="358" y="316" type="curve" smooth="yes"/>
      <point x="358" y="392"/>
      <point x="313" y="431"/>
      <point x="195" y="431" type="curve" smooth="yes"/>
      <point x="77" y="431"/>
      <point x="32" y="392"/>
    </contour>
  </outline>
</glyph>
<glyph name="Oslash" format="2">
  <advance width="1143"/>
  <unicode hex="00D8"/>
  <anchor x="572" y="700" name="top"/>
  <outline>
    <contour>
      <point x="269" y="-20" type="line"/>
      <point x="415" y="100" type="line"/>
      <point x="411" y="102" type="line"/>
      <point x="889" y="512" type="line"/>
      <point x="887" y="517" type="line"/>
      <point x="1117" y="720" type="line"/>
      <point x="872" y="720" type="line"/>
      <point x="744" y="616" type="line"/>
      <point x="748" y="614" type="line"/>
      <point x="247" y="183" type="line"/>
      <point x="250" y="178" type="line"/>
      <point x="26" y="-20" type="line"/>
    </contour>
    <contour>
      <point x="573" y="179" type="curve" smooth="yes"/>
      <point x="427" y="179"/>
      <point x="351" y="238"/>
      <point x="351" y="352" type="curve" smooth="yes"/>
      <point x="351" y="463"/>
      <point x="427" y="521"/>
      <point x="573" y="521" type="curve" smooth="yes"/>
      <point x="715" y="521"/>
      <point x="792" y="462"/>
      <point x="792" y="352" type="curve" smooth="yes"/>
      <point x="792" y="240"/>
      <point x="714" y="179"/>
    </contour>
    <contour>
      <point x="573" y="-10" type="curve" smooth="yes"/>
      <point x="944" y="-10"/>
      <point x="1107" y="115"/>
      <point x="1107" y="354" type="curve" smooth="yes"/>
      <point x="1107" y="578"/>
      <point x="967" y="710"/>
      <point x="573" y="710" type="curve" smooth="yes"/>
      <point x="176" y="710"/>
      <point x="36" y="578"/>
      <point x="36" y="354" type="curve" smooth="yes"/>
      <point x="36" y="115"/>
      <point x="199" y="-10"/>
    </contour>
  </outline>
</glyph>
<glyph name="divide" format="2">
  <advance width="782"/>
  <unicode hex="00F7"/>
  <outline>
    <contour>
      <point x="267" y="77" type="curve" smooth="yes"/>
      <point x="267" y="20"/>
      <point x="302" y="-10"/>
      <point x="391" y="-10" type="curve" smooth="yes"/>
      <point x="481" y="-10"/>
      <point x="516" y="20"/>
      <point x="516" y="77" type="curve" smooth="yes"/>
      <point x="516" y="136"/>
      <point x="481" y="166"/>
      <point x="391" y="166" type="curve" smooth="yes"/>
      <point x="302" y="166"/>
      <point x="267" y="136"/>
    </contour>
    <contour>
      <point x="267" y="560" type="curve" smooth="yes"/>
      <point x="267" y="503"/>
      <point x="302" y="473"/>
      <point x="391" y="473" type="curve" smooth="yes"/>
      <point x="481" y="473"/>
      <point x="516" y="503"/>
      <point x="516" y="560" type="curve" smooth="yes"/>
      <point x="516" y="619"/>
      <point x="481" y="649"/>
      <point x="391" y="649" type="curve" smooth="yes"/>
      <point x="302" y="649"/>
      <point x="267" y="619"/>
    </contour>
    <contour>
      <point x="60" y="216" type="line"/>
      <point x="722" y="216" type="line"/>
      <point x="722" y="421" type="line"/>
      <point x="60" y="421" type="line"/>
    </contour>
  </outline>
</glyph>
<glyph name="thorn" format="2">
  <advance width="929"/>
  <unicode hex="00FE"/>
  <outline>
    <contour>
      <point x="54" y="-210" type="line"/>
      <point x="355" y="-210" type="line"/>
      <point x="355" y="-7" type="line"/>
      <point x="392" y="-9"/>
      <point x="430" y="-10"/>
      <point x="468" y="-10" type="curve" smooth="yes"/>
      <point x="770" y="-10"/>
      <point x="900" y="77"/>
      <point x="900" y="279" type="curve" smooth="yes"/>
      <point x="900" y="456"/>
      <point x="799" y="560"/>
      <point x="626" y="560" type="curve" smooth="yes"/>
      <point x="539" y="560"/>
      <point x="451" y="538"/>
      <point x="355" y="491" type="curve"/>
      <point x="355" y="740" type="line"/>
      <point x="54" y="740" type="line"/>
    </contour>
    <contour>
      <point x="471" y="171" type="curve" smooth="yes"/>
      <point x="432" y="171"/>
      <point x="390" y="176"/>
      <point x="354" y="186" type="curve"/>
      <point x="354" y="321" type="line"/>
      <point x="409" y="339"/>
      <point x="458" y="348"/>
      <point x="497" y="348" type="curve" smooth="yes"/>
      <point x="562" y="348"/>
      <point x="596" y="320"/>
      <point x="596" y="265" type="curve" smooth="yes"/>
      <point x="596" y="204"/>
      <point x="552" y="171"/>
    </contour>
  </outline>
</glyph>
<glyph name="Dcroat" format="2">
  <advance width="1147"/>
  <unicode hex="0110"/>
  <outline>
    <contour>
      <point x="24" y="261" type="line"/>
      <point x="587" y="261" type="line"/>
      <point x="587" y="446" type="line"/>
      <point x="24" y="446" type="line"/>
    </contour>
    <component base="D" xOffset="8"/>
  </outline>
</glyph>
<glyph name="dcroat" format="2">
  <advance width="940"/>
  <unicode hex="0111"/>
  <outline>
    <contour>
      <point x="348" y="585" type="line"/>
      <point x="945" y="585" type="line"/>
      <point x="945" y="689" type="line"/>
      <point x="348" y="689" type="line"/>
    </contour>
    <component base="d"/>
  </outline>
</glyph>
<glyph name="Hbar" format="2">
  <advance width="1156"/>
  <unicode hex="0126"/>
  <outline>
    <contour>
      <point x="30" y="500" type="line"/>
      <point x="80" y="500" type="line"/>
      <point x="80" y="0" type="line"/>
      <point x="400" y="0" type="line"/>
      <point x="400" y="211" type="line"/>
      <point x="766" y="211" type="line"/>
      <point x="766" y="0" type="line"/>
      <point x="1076" y="0" type="line"/>
      <point x="1076" y="500" type="line"/>
      <point x="1126" y="500" type="line"/>
      <point x="1126" y="640" type="line"/>
      <point x="1076" y="640" type="line"/>
      <point x="1076" y="700" type="line"/>
      <point x="766" y="700" type="line"/>
      <point x="766" y="640" type="line"/>
      <point x="400" y="640" type="line"/>
      <point x="400" y="700" type="line"/>
      <point x="80" y="700" type="line"/>
      <point x="80" y="640" type="line"/>
      <point x="30" y="640" type="line"/>
    </contour>
    <contour>
      <point x="400" y="451" type="line"/>
      <point x="400" y="500" type="line"/>
      <point x="766" y="500" type="line"/>
      <point x="766" y="451" type="line"/>
    </contour>
  </outline>
</glyph>
<glyph name="kgreenlandic" format="2">
  <advance width="878"/>
  <unicode hex="0138"/>
  <anchor x="431" y="550" name="top"/>
  <anchor x="431" y="0" name="bottom"/>
  <outline>
    <contour>
      <point x="785" y="-10" type="curve" smooth="yes"/>
      <point x="815" y="-10"/>
      <point x="827" y="-9"/>
      <point x="838" y="-8" type="curve"/>
      <point x="838" y="239" type="line"/>
      <point x="827" y="238"/>
      <point x="817" y="238"/>
      <point x="805" y="238" type="curve" smooth="yes"/>
      <point x="752" y="238"/>
      <point x="695" y="251"/>
      <point x="566" y="314" type="curve" smooth="yes"/>
      <point x="344" y="421" type="line"/>
      <point x="344" y="550" type="line"/>
      <point x="54" y="550" type="line"/>
      <point x="54" y="0" type="line"/>
      <point x="344" y="0" type="line"/>
      <point x="344" y="165" type="line"/>
      <point x="528" y="69" type="line" smooth="yes"/>
      <point x="657" y="2"/>
      <point x="723" y="-10"/>
    </contour>
    <contour>
      <point x="529" y="263" type="line"/>
      <point x="622" y="309"/>
      <point x="786" y="419"/>
      <point x="835" y="542" type="curve"/>
      <point x="513" y="552" type="line"/>
      <point x="483" y="489"/>
      <point x="419" y="423"/>
      <point x="241" y="293" type="curve"/>
    </contour>
  </outline>
</glyph>
<glyph name="lslash" format="2">
  <advance width="562"/>
  <unicode hex="0142"/>
  <outline>
    <contour>
      <point x="295" y="-10" type="curve" smooth="yes"/>
      <point x="389" y="-10"/>
      <point x="485" y="4"/>
      <point x="564" y="25" type="curve"/>
      <point x="530" y="227" type="line"/>
      <point x="480" y="218"/>
      <point x="444" y="213"/>
      <point x="416" y="213" type="curve" smooth="yes"/>
      <point x="382" y="213"/>
      <point x="364" y="223"/>
      <point x="364" y="256" type="curve" smooth="yes"/>
      <point x="364" y="317" type="line"/>
      <point x="501" y="377" type="line"/>
      <point x="501" y="574" type="line"/>
      <point x="364" y="514" type="line"/>
      <point x="364" y="740" type="line"/>
      <point x="64" y="740" type="line"/>
      <point x="64" y="383" type="line"/>
      <point x="-6" y="353" type="line"/>
      <point x="-6" y="156" type="line"/>
      <point x="66" y="187" type="line"/>
      <point x="68" y="171" type="line" smooth="yes"/>
      <point x="85" y="38"/>
      <point x="154" y="-10"/>
    </contour>
  </outline>
</glyph>
<glyph name="Eng" format="2">
  <advance width="1065"/>
  <unicode hex="014A"/>
  <outline>
    <contour>
      <point x="75" y="0" type="line"/>
      <point x="365" y="0" type="line"/>
      <point x="365" y="314" type="line"/>
      <point x="700" y="19" type="line"/>
      <point x="700" y="7" type="line" smooth="yes"/>
      <point x="700" y="-9"/>
      <point x="672" y="-24"/>
      <point x="616" y="-24" type="curve" smooth="yes"/>
      <point x="587" y="-24"/>
      <point x="546" y="-20"/>
      <point x="493" y="-10" type="curve"/>
      <point x="452" y="-205" type="line"/>
      <point x="518" y="-216"/>
      <point x="581" y="-220"/>
      <point x="640" y="-220" type="curve" smooth="yes"/>
      <point x="843" y="-220"/>
      <point x="990" y="-156"/>
      <point x="990" y="-10" type="curve" smooth="yes"/>
      <point x="990" y="700" type="line"/>
      <point x="700" y="700" type="line"/>
      <point x="700" y="355" type="line"/>
      <point x="347" y="700" type="line"/>
      <point x="75" y="700" type="line"/>
    </contour>
  </outline>
</glyph>
<glyph name="eng" format="2">
  <advance width="892"/>
  <unicode hex="014B"/>
  <outline>
    <contour>
      <point x="838" y="59" type="curve"/>
      <point x="838" y="352" type="line" smooth="yes"/>
      <point x="838" y="461"/>
      <point x="760" y="560"/>
      <point x="582" y="560" type="curve" smooth="yes"/>
      <point x="491" y="560"/>
      <point x="426" y="536"/>
      <point x="323" y="486" type="curve"/>
      <point x="323" y="550" type="line"/>
      <point x="54" y="550" type="line"/>
      <point x="54" y="0" type="line"/>
      <point x="354" y="0" type="line"/>
      <point x="354" y="327" type="line"/>
      <point x="395" y="340"/>
      <point x="430" y="349"/>
      <point x="459" y="349" type="curve" smooth="yes"/>
      <point x="507" y="349"/>
      <point x="538" y="323"/>
      <point x="538" y="244" type="curve" smooth="yes"/>
      <point x="538" y="63" type="line" smooth="yes"/>
      <point x="538" y="0"/>
      <point x="518" y="-12"/>
      <point x="478" y="-12" type="curve" smooth="yes"/>
      <point x="465" y="-12"/>
      <point x="448" y="-10"/>
      <point x="431" y="-8" type="curve"/>
      <point x="412" y="-211" type="line"/>
      <point x="449" y="-217"/>
      <point x="484" y="-220"/>
      <point x="517" y="-220" type="curve" smooth="yes"/>
      <point x="710" y="-220"/>
      <point x="838" y="-114"/>
    </contour>
  </outline>
</glyph>
<glyph name="uni0162" format="2">
  <advance width="1064"/>
  <unicode hex="0162"/>
  <outline>
    <contour>
      <point x="375" y="-56" type="curve"/>
      <point x="369" y="-208" type="line"/>
      <point x="413" y="-216"/>
      <point x="451" y="-220"/>
      <point x="485" y="-220" type="curve" smooth="yes"/>
      <point x="638" y="-220"/>
      <point x="695" y="-146"/>
      <point x="695" y="-72" type="curve" smooth="yes"/>
      <point x="695" y="-43"/>
      <point x="687" y="-14"/>
      <point x="672" y="10" type="curve"/>
      <point x="429" y="10" type="line"/>
      <point x="442" y="-1"/>
      <point x="448" y="-12"/>
      <point x="448" y="-24" type="curve" smooth="yes"/>
      <point x="448" y="-48"/>
      <point x="434" y="-58"/>
      <point x="397" y="-58" type="curve" smooth="yes"/>
      <point x="393" y="-58"/>
      <point x="379" y="-57"/>
    </contour>
    <component base="T"/>
  </outline>
</glyph>
<glyph name="Tbar" format="2">
  <advance width="1084"/>
  <unicode hex="0166"/>
  <outline>
    <contour>
      <point x="166" y="178" type="line"/>
      <point x="382" y="178" type="line"/>
      <point x="382" y="0" type="line"/>
      <point x="702" y="0" type="line"/>
      <point x="702" y="178" type="line"/>
      <point x="918" y="178" type="line"/>
      <point x="918" y="388" type="line"/>
      <point x="702" y="388" type="line"/>
      <point x="702" y="460" type="line"/>
      <point x="1049" y="460" type="line"/>
      <point x="1049" y="700" type="line"/>
      <point x="35" y="700" type="line"/>
      <point x="35" y="460" type="line"/>
      <point x="382" y="460" type="line"/>
      <point x="382" y="388" type="line"/>
      <point x="166" y="388" type="line"/>
    </contour>
  </outline>
</glyph>
<glyph name="tbar" format="2">
  <advance width="650"/>
  <unicode hex="0167"/>
  <outline>
    <contour>
      <point x="416" y="248" type="line"/>
      <point x="581" y="248" type="line"/>
      <point x="581" y="368" type="line"/>
      <point x="416" y="368" type="line"/>
      <point x="416" y="403" type="line"/>
      <point x="597" y="403" type="line"/>
      <point x="597" y="550" type="line"/>
      <point x="416" y="550" type="line"/>
      <point x="416" y="665" type="line"/>
      <point x="146" y="665" type="line"/>
      <point x="116" y="550" type="line"/>
      <point x="4" y="530" type="line"/>
      <point x="4" y="403" type="line"/>
      <point x="116" y="403" type="line"/>
      <point x="116" y="368" type="line"/>
      <point x="4" y="368" type="line"/>
      <point x="4" y="248" type="line"/>
      <point x="116" y="248" type="line"/>
      <point x="116" y="231" type="line" smooth="yes"/>
      <point x="116" y="57"/>
      <point x="214" y="-10"/>
      <point x="372" y="-10" type="curve" smooth="yes"/>
      <point x="465" y="-10"/>
      <point x="537" y="3"/>
      <point x="627" y="22" type="curve"/>
      <point x="593" y="227" type="line"/>
      <point x="542" y="214"/>
      <point x="504" y="210"/>
      <point x="477" y="210" type="curve" smooth="yes"/>
      <point x="432" y="210"/>
      <point x="416" y="222"/>
      <point x="416" y="231" type="curve" smooth="yes"/>
    </contour>
  </outline>
</glyph>
<glyph name="uni018F" format="2">
  <advance width="1057"/>
  <unicode hex="018F"/>
  <outline>
    <contour>
      <point x="65" y="457" type="line"/>
      <point x="214" y="482"/>
      <point x="347" y="496"/>
      <point x="445" y="496" type="curve" smooth="yes"/>
      <point x="608" y="496"/>
      <point x="671" y="470"/>
      <point x="671" y="439" type="curve" smooth="yes"/>
      <point x="671" y="437"/>
      <point x="671" y="436"/>
      <point x="671" y="434" type="curve"/>
      <point x="407" y="427"/>
      <point x="194" y="418"/>
      <point x="24" y="410" type="curve"/>
      <point x="22" y="392"/>
      <point x="21" y="370"/>
      <point x="21" y="336" type="curve" smooth="yes"/>
      <point x="21" y="99"/>
      <point x="169" y="-10"/>
      <point x="489" y="-10" type="curve" smooth="yes"/>
      <point x="791" y="-10"/>
      <point x="1021" y="120"/>
      <point x="1021" y="376" type="curve" smooth="yes"/>
      <point x="1021" y="599"/>
      <point x="837" y="710"/>
      <point x="468" y="710" type="curve" smooth="yes"/>
      <point x="325" y="710"/>
      <point x="218" y="698"/>
      <point x="26" y="662" type="curve"/>
    </contour>
    <contour>
      <point x="670" y="263" type="curve"/>
      <point x="671" y="219"/>
      <point x="599" y="198"/>
      <point x="513" y="198" type="curve" smooth="yes"/>
      <point x="412" y="198"/>
      <point x="384" y="214"/>
      <point x="370" y="256" type="curve"/>
      <point x="447" y="258"/>
      <point x="593" y="261"/>
    </contour>
  </outline>
</glyph>
<glyph name="uni0237" format="2">
  <advance width="436"/>
  <unicode hex="0237"/>
  <anchor x="232" y="550" name="top"/>
  <outline>
    <contour>
      <point x="382" y="78" type="curve" smooth="yes"/>
      <point x="382" y="550" type="line"/>
      <point x="82" y="550" type="line"/>
      <point x="82" y="85" type="line"/>
      <point x="82" y="13"/>
      <point x="53" y="-9"/>
      <point x="-15" y="-9" type="curve" smooth="yes"/>
      <point x="-20" y="-9"/>
      <point x="-25" y="-9"/>
      <point x="-30" y="-9" type="curve"/>
      <point x="-40" y="-215" type="line"/>
      <point x="-10" y="-217"/>
      <point x="47" y="-220"/>
      <point x="76" y="-220" type="curve" smooth="yes"/>
      <point x="291" y="-220"/>
      <point x="382" y="-114"/>
    </contour>
  </outline>
</glyph>
<glyph name="gravecomb" format="2">
  <unicode hex="0300"/>
  <anchor x="-534" y="790" name="top"/>
  <anchor x="-446" y="550" name="_top"/>
  <outline>
    <contour>
      <point x="-564" y="596" type="line"/>
      <point x="-335" y="596" type="line"/>
      <point x="-440" y="790" type="line"/>
      <point x="-734" y="790" type="line"/>
    </contour>
  </outline>
</glyph>
<glyph name="uni0326" format="2">
  <unicode hex="0326"/>
  <anchor x="-445" y="0" name="_bottom"/>
  <outline>
    <contour>
      <point x="-634" y="-210" type="curve"/>
      <point x="-374" y="-210" type="line"/>
      <point x="-332" y="-184"/>
      <point x="-282" y="-133"/>
      <point x="-282" y="-76" type="curve" smooth="yes"/>
      <point x="-282" y="-66"/>
      <point x="-284" y="-56"/>
      <point x="-289" y="-46" type="curve"/>
      <point x="-595" y="-46" type="line"/>
      <point x="-591" y="-57"/>
      <point x="-589" y="-69"/>
      <point x="-589" y="-89" type="curve" smooth="yes"/>
      <point x="-589" y="-126"/>
      <point x="-607" y="-176"/>
    </contour>
  </outline>
</glyph>
<glyph name="uni0328" format="2">
  <unicode hex="0328"/>
  <anchor x="-318" y="0" name="_ogonek"/>
  <outline>
    <contour>
      <point x="-434" y="-220" type="curve" smooth="yes"/>
      <point x="-383" y="-220"/>
      <point x="-344" y="-216"/>
      <point x="-317" y="-208" type="curve"/>
      <point x="-323" y="-69" type="line"/>
      <point x="-329" y="-70"/>
      <point x="-336" y="-71"/>
      <point x="-345" y="-71" type="curve" smooth="yes"/>
      <point x="-374" y="-71"/>
      <point x="-388" y="-63"/>
      <point x="-388" y="-43" type="curve" smooth="yes"/>
      <point x="-388" y="-24"/>
      <point x="-371" y="-11"/>
      <point x="-318" y="0" type="curve"/>
      <point x="-482" y="16" type="line"/>
      <point x="-532" y="6"/>
      <point x="-598" y="-34"/>
      <point x="-598" y="-99" type="curve" smooth="yes"/>
      <point x="-598" y="-172"/>
      <point x="-534" y="-220"/>
    </contour>
  </outline>
</glyph>
<glyph name="uni0335" format="2">
  <unicode hex="0335"/>
  <anchor x="-229" y="350" name="_center"/>
  <outline>
    <contour>
      <point x="-516" y="263" type="line"/>
      <point x="58" y="263" type="line"/>
      <point x="58" y="437" type="line"/>
      <point x="-516" y="437" type="line"/>
    </contour>
  </outline>
</glyph>
<glyph name="emdash" format="2">
  <advance width="1040"/>
  <unicode hex="2014"/>
  <outline>
    <contour>
      <point x="20" y="234" type="line"/>
      <point x="1020" y="234" type="line"/>
      <point x="1020" y="402" type="line"/>
      <point x="20" y="402" type="line"/>
    </contour>
  </outline>
</glyph>
<glyph name="quoteleft" format="2">
  <advance width="354"/>
  <unicode hex="2018"/>
  <outline>
    <contour>
      <point x="41" y="430" type="curve"/>
      <point x="294" y="430" type="line"/>
      <point x="291" y="455"/>
      <point x="289" y="479"/>
      <point x="289" y="504" type="curve" smooth="yes"/>
      <point x="289" y="554"/>
      <point x="297" y="607"/>
      <point x="316" y="678" type="curve"/>
      <point x="109" y="700" type="line"/>
      <point x="63" y="633"/>
      <point x="40" y="564"/>
      <point x="40" y="465" type="curve" smooth="yes"/>
      <point x="40" y="454"/>
      <point x="40" y="442"/>
    </contour>
  </outline>
</glyph>
<glyph name="quoteright" format="2">
  <advance width="350"/>
  <unicode hex="2019"/>
  <outline>
    <contour>
      <point x="241" y="430" type="line"/>
      <point x="287" y="497"/>
      <point x="310" y="566"/>
      <point x="310" y="665" type="curve" smooth="yes"/>
      <point x="310" y="676"/>
      <point x="310" y="688"/>
      <point x="309" y="700" type="curve"/>
      <point x="56" y="700" type="line"/>
      <point x="59" y="675"/>
      <point x="61" y="651"/>
      <point x="61" y="626" type="curve" smooth="yes"/>
      <point x="61" y="576"/>
      <point x="53" y="523"/>
      <point x="34" y="452" type="curve"/>
    </contour>
  </outline>
</glyph>
<glyph name="guilsinglright" format="2">
  <advance width="422"/>
  <unicode hex="203A"/>
  <outline>
    <contour>
      <point x="382" y="387" type="line"/>
      <point x="40" y="560" type="line"/>
      <point x="40" y="318" type="line"/>
      <point x="207" y="274" type="line"/>
      <point x="40" y="231" type="line"/>
      <point x="40" y="-11" type="line"/>
      <point x="382" y="172" type="line"/>
    </contour>
  </outline>
</glyph>
<glyph name="fraction" format="2">
  <advance width="346"/>
  <unicode hex="2044"/>
  <outline>
    <contour>
      <point x="-16" y="-10" type="line"/>
      <point x="581" y="740" type="line"/>
      <point x="362" y="740" type="line"/>
      <point x="-235" y="-10" type="line"/>
    </contour>
  </outline>
</glyph>
<glyph name="uni2052" format="2">
  <advance width="1050"/>
  <unicode hex="2052"/>
  <outline>
    <contour>
      <point x="56" y="0" type="line"/>
      <point x="300" y="0" type="line"/>
      <point x="994" y="700" type="line"/>
      <point x="750" y="700" type="line"/>
    </contour>
    <component base="period" xOffset="24" yOffset="492"/>
    <component base="period" xOffset="622"/>
  </outline>
</glyph>
<glyph name="uni2070" format="2">
  <advance width="670"/>
  <unicode hex="2070"/>
  <outline>
    <contour>
      <point x="16" y="568" type="curve" smooth="yes"/>
      <point x="16" y="407"/>
      <point x="158" y="363"/>
      <point x="337" y="363" type="curve" smooth="yes"/>
      <point x="514" y="363"/>
      <point x="654" y="407"/>
      <point x="654" y="568" type="curve" smooth="yes"/>
      <point x="654" y="733"/>
      <point x="514" y="773"/>
      <point x="337" y="773" type="curve" smooth="yes"/>
      <point x="158" y="773"/>
      <point x="16" y="733"/>
    </contour>
    <contour>
      <point x="258" y="568" type="curve" smooth="yes"/>
      <point x="258" y="642"/>
      <point x="287" y="656"/>
      <point x="337" y="656" type="curve" smooth="yes"/>
      <point x="386" y="656"/>
      <point x="412" y="642"/>
      <point x="412" y="568" type="curve" smooth="yes"/>
      <point x="412" y="499"/>
      <point x="386" y="480"/>
      <point x="337" y="480" type="curve" smooth="yes"/>
      <point x="287" y="480"/>
      <point x="258" y="499"/>
    </contour>
  </outline>
</glyph>
<glyph name="uni2075" format="2">
  <advance width="625"/>
  <unicode hex="2075"/>
  <outline>
    <contour>
      <point x="17" y="391" type="line"/>
      <point x="103" y="369"/>
      <point x="198" y="363"/>
      <point x="291" y="363" type="curve" smooth="yes"/>
      <point x="478" y="363"/>
      <point x="606" y="404"/>
      <point x="606" y="506" type="curve" smooth="yes"/>
      <point x="606" y="602"/>
      <point x="540" y="628"/>
      <point x="300" y="628" type="curve" smooth="yes"/>
      <point x="218" y="628" type="line"/>
      <point x="220" y="652" type="line"/>
      <point x="567" y="652" type="line"/>
      <point x="567" y="773" type="line"/>
      <point x="89" y="773" type="line"/>
      <point x="45" y="536" type="line"/>
      <point x="53" y="523" type="line"/>
      <point x="256" y="523" type="line" smooth="yes"/>
      <point x="399" y="523"/>
      <point x="408" y="513"/>
      <point x="408" y="502" type="curve" smooth="yes"/>
      <point x="408" y="488"/>
      <point x="384" y="481"/>
      <point x="282" y="481" type="curve" smooth="yes"/>
      <point x="149" y="481"/>
      <point x="104" y="492"/>
      <point x="49" y="500" type="curve"/>
    </contour>
  </outline>
</glyph>
<glyph name="uni2079" format="2">
  <advance width="674"/>
  <unicode hex="2079"/>
  <outline>
    <contour>
      <point x="309" y="363" type="curve" smooth="yes"/>
      <point x="536" y="363"/>
      <point x="658" y="439"/>
      <point x="658" y="579" type="curve" smooth="yes"/>
      <point x="658" y="707"/>
      <point x="546" y="773"/>
      <point x="327" y="773" type="curve" smooth="yes"/>
      <point x="117" y="773"/>
      <point x="12" y="727"/>
      <point x="12" y="636" type="curve" smooth="yes"/>
      <point x="12" y="549"/>
      <point x="98" y="513"/>
      <point x="262" y="513" type="curve" smooth="yes"/>
      <point x="352" y="513"/>
      <point x="406" y="514"/>
      <point x="453" y="527" type="curve"/>
      <point x="423" y="500"/>
      <point x="371" y="486"/>
      <point x="264" y="486" type="curve" smooth="yes"/>
      <point x="199" y="486"/>
      <point x="152" y="486"/>
      <point x="73" y="507" type="curve"/>
      <point x="40" y="387" type="line"/>
      <point x="102" y="371"/>
      <point x="188" y="363"/>
    </contour>
    <contour>
      <point x="362" y="614" type="curve" smooth="yes"/>
      <point x="288" y="614"/>
      <point x="260" y="621"/>
      <point x="260" y="638" type="curve" smooth="yes"/>
      <point x="260" y="654"/>
      <point x="282" y="661"/>
      <point x="336" y="661" type="curve" smooth="yes"/>
      <point x="393" y="661"/>
      <point x="439" y="645"/>
      <point x="453" y="619" type="curve"/>
      <point x="418" y="616"/>
      <point x="390" y="614"/>
    </contour>
  </outline>
</glyph>
<glyph name="uni207A" format="2">
  <advance width="500"/>
  <unicode hex="207A"/>
  <outline>
    <contour>
      <point x="180" y="420" type="line"/>
      <point x="320" y="420" type="line"/>
      <point x="320" y="493" type="line"/>
      <point x="439" y="493" type="line"/>
      <point x="439" y="610" type="line"/>
      <point x="320" y="610" type="line"/>
      <point x="320" y="683" type="line"/>
      <point x="180" y="683" type="line"/>
      <point x="180" y="610" type="line"/>
      <point x="61" y="610" type="line"/>
      <point x="61" y="493" type="line"/>
      <point x="180" y="493" type="line"/>
    </contour>
  </outline>
</glyph>
<glyph name="uni207C" format="2">
  <advance width="500"/>
  <unicode hex="207C"/>
  <outline>
    <contour>
      <point x="439" y="538" type="line"/>
      <point x="61" y="538" type="line"/>
      <point x="61" y="421" type="line"/>
      <point x="439" y="421" type="line"/>
    </contour>
    <contour>
      <point x="439" y="682" type="line"/>
      <point x="61" y="682" type="line"/>
      <point x="61" y="565" type="line"/>
      <point x="439" y="565" type="line"/>
    </contour>
  </outline>
</glyph>
<glyph name="uni207D" format="2">
  <advance width="277"/>
  <unicode hex="207D"/>
  <outline>
    <contour>
      <point x="25" y="556" type="curve" smooth="yes"/>
      <point x="25" y="399"/>
      <point x="104" y="288"/>
      <point x="281" y="274" type="curve"/>
      <point x="281" y="371" type="line"/>
      <point x="196" y="396"/>
      <point x="196" y="473"/>
      <point x="196" y="556" type="curve" smooth="yes"/>
      <point x="196" y="647"/>
      <point x="196" y="715"/>
      <point x="281" y="740" type="curve"/>
      <point x="281" y="837" type="line"/>
      <point x="104" y="824"/>
      <point x="25" y="712"/>
    </contour>
  </outline>
</glyph>
<glyph name="n.superior" format="2">
  <advance width="649"/>
  <unicode hex="207F"/>
  <outline>
    <contour>
      <point x="55" y="370" type="line"/>
      <point x="285" y="370" type="line"/>
      <point x="285" y="549" type="line"/>
      <point x="306" y="553"/>
      <point x="321" y="555"/>
      <point x="331" y="555" type="curve" smooth="yes"/>
      <point x="356" y="555"/>
      <point x="374" y="544"/>
      <point x="374" y="503" type="curve" smooth="yes"/>
      <point x="374" y="370" type="line"/>
      <point x="604" y="370" type="line"/>
      <point x="604" y="569" type="line" smooth="yes"/>
      <point x="604" y="628"/>
      <point x="552" y="691"/>
      <point x="429" y="691" type="curve" smooth="yes"/>
      <point x="362" y="691"/>
      <point x="330" y="683"/>
      <point x="261" y="655" type="curve"/>
      <point x="261" y="683" type="line"/>
      <point x="55" y="683" type="line"/>
    </contour>
  </outline>
</glyph>
<glyph name="lira" format="2">
  <advance width="1050"/>
  <unicode hex="20A4"/>
  <outline>
    <contour>
      <point x="129" y="0" type="line"/>
      <point x="933" y="0" type="line"/>
      <point x="933" y="200" type="line"/>
      <point x="473" y="200" type="line"/>
      <point x="507" y="217"/>
      <point x="527" y="253"/>
      <point x="527" y="282" type="curve" smooth="yes"/>
      <point x="527" y="329"/>
      <point x="461" y="399"/>
      <point x="461" y="438" type="curve" smooth="yes"/>
      <point x="461" y="485"/>
      <point x="538" y="505"/>
      <point x="600" y="505" type="curve" smooth="yes"/>
      <point x="716" y="505"/>
      <point x="808" y="493"/>
      <point x="891" y="468" type="curve"/>
      <point x="926" y="663" type="line"/>
      <point x="813" y="694"/>
      <point x="732" y="710"/>
      <point x="580" y="710" type="curve" smooth="yes"/>
      <point x="305" y="710"/>
      <point x="166" y="637"/>
      <point x="166" y="514" type="curve" smooth="yes"/>
      <point x="166" y="433"/>
      <point x="250" y="333"/>
      <point x="250" y="289" type="curve" smooth="yes"/>
      <point x="250" y="228"/>
      <point x="220" y="216"/>
      <point x="129" y="168" type="curve"/>
    </contour>
    <contour>
      <point x="120" y="364" type="line"/>
      <point x="773" y="364" type="line"/>
      <point x="773" y="445" type="line"/>
      <point x="120" y="445" type="line"/>
    </contour>
    <contour>
      <point x="120" y="245" type="line"/>
      <point x="773" y="245" type="line"/>
      <point x="773" y="326" type="line"/>
      <point x="120" y="326" type="line"/>
    </contour>
  </outline>
</glyph>
<glyph name="peseta" format="2">
  <advance width="1050"/>
  <unicode hex="20A7"/>
  <outline>
    <contour>
      <point x="96" y="0" type="line"/>
      <point x="395" y="0" type="line"/>
      <point x="395" y="180" type="line"/>
      <point x="553" y="176"/>
      <point x="458" y="175"/>
      <point x="613" y="175" type="curve" smooth="yes"/>
      <point x="854" y="175"/>
      <point x="948" y="250"/>
      <point x="948" y="438" type="curve" smooth="yes"/>
      <point x="948" y="646"/>
      <point x="850" y="710"/>
      <point x="530" y="710" type="curve" smooth="yes"/>
      <point x="468" y="710"/>
      <point x="333" y="708"/>
      <point x="96" y="700" type="curve"/>
    </contour>
    <contour>
      <point x="0" y="380" type="line"/>
      <point x="229" y="380" type="line"/>
      <point x="229" y="491" type="line"/>
      <point x="0" y="491" type="line"/>
    </contour>
    <contour>
      <point x="517" y="371" type="curve" smooth="yes"/>
      <point x="481" y="371"/>
      <point x="462" y="372"/>
      <point x="395" y="377" type="curve"/>
      <point x="395" y="502" type="line"/>
      <point x="498" y="506"/>
      <point x="481" y="505"/>
      <point x="546" y="505" type="curve" smooth="yes"/>
      <point x="615" y="505"/>
      <point x="648" y="486"/>
      <point x="648" y="441" type="curve" smooth="yes"/>
      <point x="648" y="390"/>
      <point x="616" y="371"/>
    </contour>
    <contour>
      <point x="811" y="380" type="line"/>
      <point x="1049" y="380" type="line"/>
      <point x="1049" y="491" type="line"/>
      <point x="811" y="491" type="line"/>
    </contour>
  </outline>
</glyph>
<glyph name="uni20A9" format="2">
  <advance width="1050"/>
  <unicode hex="20A9"/>
  <outline>
    <contour>
      <point x="178" y="0" type="line"/>
      <point x="476" y="0" type="line"/>
      <point x="531" y="369" type="line"/>
      <point x="592" y="0" type="line"/>
      <point x="863" y="0" type="line"/>
      <point x="1019" y="700" type="line"/>
      <point x="767" y="701" type="line"/>
      <point x="725" y="256" type="line"/>
      <point x="669" y="662" type="line"/>
      <point x="405" y="662" type="line"/>
      <point x="336" y="253" type="line"/>
      <point x="293" y="700" type="line"/>
      <point x="31" y="700" type="line"/>
    </contour>
    <contour>
      <point x="-5" y="285" type="line"/>
      <point x="226" y="285" type="line"/>
      <point x="226" y="396" type="line"/>
      <point x="-5" y="396" type="line"/>
    </contour>
    <contour>
      <point x="882" y="285" type="line"/>
      <point x="1056" y="285" type="line"/>
      <point x="1056" y="396" type="line"/>
      <point x="882" y="396" type="line"/>
    </contour>
  </outline>
</glyph>
<glyph name="dong" format="2">
  <advance width="1050"/>
  <unicode hex="20AB"/>
  <outline>
    <contour>
      <point x="374" y="130" type="curve" smooth="yes"/>
      <point x="470" y="130"/>
      <point x="552" y="151"/>
      <point x="646" y="201" type="curve"/>
      <point x="692" y="136" type="line"/>
      <point x="947" y="136" type="line"/>
      <point x="947" y="740" type="line"/>
      <point x="647" y="740" type="line"/>
      <point x="647" y="554" type="line"/>
      <point x="609" y="558"/>
      <point x="571" y="560"/>
      <point x="532" y="560" type="curve" smooth="yes"/>
      <point x="230" y="560"/>
      <point x="100" y="498"/>
      <point x="100" y="336" type="curve" smooth="yes"/>
      <point x="100" y="190"/>
      <point x="202" y="130"/>
    </contour>
    <contour>
      <point x="89" y="0" type="line"/>
      <point x="991" y="0" type="line"/>
      <point x="991" y="106" type="line"/>
      <point x="89" y="106" type="line"/>
    </contour>
    <contour>
      <point x="503" y="285" type="curve" smooth="yes"/>
      <point x="438" y="285"/>
      <point x="404" y="313"/>
      <point x="404" y="355" type="curve" smooth="yes"/>
      <point x="404" y="396"/>
      <point x="448" y="429"/>
      <point x="529" y="429" type="curve" smooth="yes"/>
      <point x="569" y="429"/>
      <point x="610" y="424"/>
      <point x="646" y="416" type="curve"/>
      <point x="646" y="312" type="line"/>
      <point x="591" y="294"/>
      <point x="542" y="285"/>
    </contour>
    <contour>
      <point x="359" y="594" type="line"/>
      <point x="1014" y="594" type="line"/>
      <point x="1014" y="690" type="line"/>
      <point x="359" y="690" type="line"/>
    </contour>
  </outline>
</glyph>
<glyph name="Euro" format="2">
  <advance width="1050"/>
  <unicode hex="20AC"/>
  <outline>
    <contour>
      <point x="147" y="345" type="curve" smooth="yes"/>
      <point x="147" y="82"/>
      <point x="338" y="-10"/>
      <point x="643" y="-10" type="curve" smooth="yes"/>
      <point x="782" y="-10"/>
      <point x="884" y="4"/>
      <point x="981" y="26" type="curve"/>
      <point x="934" y="203" type="line"/>
      <point x="865" y="195"/>
      <point x="794" y="189"/>
      <point x="722" y="189" type="curve" smooth="yes"/>
      <point x="487" y="189"/>
      <point x="426" y="245"/>
      <point x="426" y="345" type="curve" smooth="yes"/>
      <point x="426" y="467"/>
      <point x="495" y="506"/>
      <point x="723" y="506" type="curve" smooth="yes"/>
      <point x="791" y="506"/>
      <point x="853" y="501"/>
      <point x="921" y="494" type="curve"/>
      <point x="960" y="677" type="line"/>
      <point x="899" y="693"/>
      <point x="823" y="710"/>
      <point x="684" y="710" type="curve" smooth="yes"/>
      <point x="310" y="710"/>
      <point x="147" y="594"/>
    </contour>
    <contour>
      <point x="798" y="366" type="line"/>
      <point x="798" y="457" type="line"/>
      <point x="85" y="457" type="line"/>
      <point x="85" y="366" type="line"/>
    </contour>
    <contour>
      <point x="798" y="237" type="line"/>
      <point x="798" y="328" type="line"/>
      <point x="85" y="328" type="line"/>
      <point x="85" y="237" type="line"/>
    </contour>
  </outline>
</glyph>
<glyph name="uni20AD" format="2">
  <advance width="1050"/>
  <unicode hex="20AD"/>
  <outline>
    <contour>
      <point x="994" y="-10" type="curve" smooth="yes"/>
      <point x="1004" y="-10"/>
      <point x="1016" y="-10"/>
      <point x="1028" y="-9" type="curve"/>
      <point x="1028" y="177" type="line"/>
      <point x="1016" y="175"/>
      <point x="1005" y="175"/>
      <point x="995" y="175" type="curve" smooth="yes"/>
      <point x="943" y="175"/>
      <point x="850" y="208"/>
      <point x="773" y="241" type="curve" smooth="yes"/>
      <point x="674" y="283" type="line"/>
      <point x="998" y="283" type="line"/>
      <point x="998" y="394" type="line"/>
      <point x="660" y="394" type="line"/>
      <point x="794" y="443"/>
      <point x="939" y="536"/>
      <point x="1000" y="603" type="curve"/>
      <point x="796" y="720" type="line"/>
      <point x="668" y="594"/>
      <point x="511" y="503"/>
      <point x="360" y="440" type="curve"/>
      <point x="360" y="700" type="line"/>
      <point x="90" y="700" type="line"/>
      <point x="90" y="394" type="line"/>
      <point x="11" y="394" type="line"/>
      <point x="11" y="283" type="line"/>
      <point x="90" y="283" type="line"/>
      <point x="90" y="0" type="line"/>
      <point x="360" y="0" type="line"/>
      <point x="360" y="264" type="line"/>
      <point x="686" y="67" type="line" smooth="yes"/>
      <point x="772" y="15"/>
      <point x="865" y="-10"/>
    </contour>
  </outline>
</glyph>
<glyph name="uni20B1" format="2">
  <advance width="1050"/>
  <unicode hex="20B1"/>
  <outline>
    <contour>
      <point x="99" y="0" type="line"/>
      <point x="399" y="0" type="line"/>
      <point x="399" y="179" type="line"/>
      <point x="557" y="175"/>
      <point x="462" y="175"/>
      <point x="617" y="175" type="curve" smooth="yes"/>
      <point x="850" y="175"/>
      <point x="941" y="249"/>
      <point x="941" y="437" type="curve" smooth="yes"/>
      <point x="941" y="646"/>
      <point x="845" y="710"/>
      <point x="533" y="710" type="curve" smooth="yes"/>
      <point x="472" y="710"/>
      <point x="337" y="707"/>
      <point x="99" y="700" type="curve"/>
    </contour>
    <contour>
      <point x="0" y="443" type="line"/>
      <point x="229" y="443" type="line"/>
      <point x="229" y="557" type="line"/>
      <point x="0" y="557" type="line"/>
    </contour>
    <contour>
      <point x="521" y="371" type="curve" smooth="yes"/>
      <point x="485" y="371"/>
      <point x="466" y="372"/>
      <point x="399" y="376" type="curve"/>
      <point x="399" y="501" type="line"/>
      <point x="487" y="505"/>
      <point x="474" y="505"/>
      <point x="530" y="505" type="curve" smooth="yes"/>
      <point x="602" y="505"/>
      <point x="641" y="485"/>
      <point x="641" y="440" type="curve" smooth="yes"/>
      <point x="641" y="389"/>
      <point x="609" y="371"/>
    </contour>
    <contour>
      <point x="811" y="443" type="line"/>
      <point x="1049" y="443" type="line"/>
      <point x="1049" y="557" type="line"/>
      <point x="811" y="557" type="line"/>
    </contour>
    <contour>
      <point x="0" y="289" type="line"/>
      <point x="229" y="289" type="line"/>
      <point x="229" y="403" type="line"/>
      <point x="0" y="403" type="line"/>
    </contour>
    <contour>
      <point x="811" y="289" type="line"/>
      <point x="1049" y="289" type="line"/>
      <point x="1049" y="403" type="line"/>
      <point x="811" y="403" type="line"/>
    </contour>
  </outline>
</glyph>
<glyph name="uni20B9" format="2">
  <advance width="1050"/>
  <unicode hex="20B9"/>
  <outline>
    <contour>
      <point x="529" y="0" type="line"/>
      <point x="1003" y="0" type="line"/>
      <point x="480" y="189" type="line"/>
      <point x="480" y="189" type="line"/>
      <point x="585" y="189" type="line"/>
      <point x="755" y="189"/>
      <point x="870" y="281"/>
      <point x="870" y="434" type="curve" smooth="yes"/>
      <point x="870" y="488"/>
      <point x="851" y="532"/>
      <point x="819" y="565" type="curve"/>
      <point x="994" y="565" type="line"/>
      <point x="994" y="700" type="line"/>
      <point x="48" y="700" type="line"/>
      <point x="48" y="565" type="line"/>
      <point x="468" y="565" type="line" smooth="yes"/>
      <point x="597" y="565"/>
      <point x="630" y="527"/>
      <point x="630" y="447" type="curve" smooth="yes"/>
      <point x="630" y="367"/>
      <point x="597" y="329"/>
      <point x="468" y="329" type="curve" smooth="yes"/>
      <point x="48" y="329" type="line"/>
      <point x="48" y="189" type="line"/>
    </contour>
    <contour>
      <point x="48" y="377" type="line"/>
      <point x="994" y="377" type="line"/>
      <point x="994" y="517" type="line"/>
      <point x="48" y="517" type="line"/>
    </contour>
  </outline>
</glyph>
<glyph name="uni20BA" format="2">
  <advance width="1050"/>
  <unicode hex="20BA"/>
  <outline>
    <contour>
      <point x="128" y="0" type="line"/>
      <point x="500" y="0" type="line" smooth="yes"/>
      <point x="843" y="0"/>
      <point x="1031" y="131"/>
      <point x="1031" y="428" type="curve"/>
      <point x="729" y="428" type="line"/>
      <point x="729" y="296"/>
      <point x="661" y="215"/>
      <point x="518" y="215" type="curve" smooth="yes"/>
      <point x="429" y="215" type="line"/>
      <point x="429" y="700" type="line"/>
      <point x="128" y="700" type="line"/>
    </contour>
    <contour>
      <point x="39" y="313" type="line"/>
      <point x="622" y="557" type="line"/>
      <point x="622" y="651" type="line"/>
      <point x="39" y="407" type="line"/>
    </contour>
    <contour>
      <point x="39" y="168" type="line"/>
      <point x="622" y="412" type="line"/>
      <point x="622" y="506" type="line"/>
      <point x="39" y="262" type="line"/>
    </contour>
  </outline>
</glyph>
<glyph name="uni20BC" format="2">
  <advance width="1050"/>
  <unicode hex="20BC"/>
  <outline>
    <contour>
      <point x="42" y="0" type="curve"/>
      <point x="308" y="0" type="line"/>
      <point x="307" y="11"/>
      <point x="306" y="24"/>
      <point x="306" y="37" type="curve" smooth="yes"/>
      <point x="306" y="410"/>
      <point x="410" y="449"/>
      <point x="525" y="449" type="curve" smooth="yes"/>
      <point x="640" y="449"/>
      <point x="744" y="410"/>
      <point x="744" y="37" type="curve" smooth="yes"/>
      <point x="744" y="24"/>
      <point x="743" y="11"/>
      <point x="742" y="0" type="curve"/>
      <point x="1008" y="0" type="line"/>
      <point x="1009" y="12"/>
      <point x="1009" y="24"/>
      <point x="1009" y="37" type="curve" smooth="yes"/>
      <point x="1009" y="554"/>
      <point x="780" y="633"/>
      <point x="525" y="633" type="curve" smooth="yes"/>
      <point x="270" y="633"/>
      <point x="41" y="554"/>
      <point x="41" y="37" type="curve" smooth="yes"/>
      <point x="41" y="24"/>
      <point x="41" y="12"/>
    </contour>
    <contour>
      <point x="425" y="52" type="line"/>
      <point x="626" y="52" type="line"/>
      <point x="626" y="710" type="line"/>
      <point x="425" y="710" type="line"/>
    </contour>
  </outline>
</glyph>
<glyph name="uni2120" format="2">
  <advance width="1136"/>
  <unicode hex="2120"/>
  <outline>
    <contour>
      <point x="499" y="685" type="line"/>
      <point x="448" y="695"/>
      <point x="388" y="704"/>
      <point x="301" y="704" type="curve" smooth="yes"/>
      <point x="140" y="704"/>
      <point x="64" y="673"/>
      <point x="64" y="585" type="curve" smooth="yes"/>
      <point x="64" y="526"/>
      <point x="106" y="496"/>
      <point x="186" y="486" type="curve" smooth="yes"/>
      <point x="313" y="470"/>
      <point x="360" y="480"/>
      <point x="360" y="466" type="curve" smooth="yes"/>
      <point x="360" y="460"/>
      <point x="352" y="458"/>
      <point x="303" y="458" type="curve" smooth="yes"/>
      <point x="227" y="458"/>
      <point x="142" y="471"/>
      <point x="74" y="490" type="curve"/>
      <point x="49" y="392" type="line"/>
      <point x="112" y="377"/>
      <point x="197" y="366"/>
      <point x="280" y="366" type="curve" smooth="yes"/>
      <point x="435" y="366"/>
      <point x="531" y="393"/>
      <point x="531" y="481" type="curve" smooth="yes"/>
      <point x="531" y="550"/>
      <point x="479" y="577"/>
      <point x="364" y="587" type="curve"/>
      <point x="257" y="595"/>
      <point x="232" y="589"/>
      <point x="232" y="600" type="curve" smooth="yes"/>
      <point x="232" y="608"/>
      <point x="243" y="610"/>
      <point x="288" y="610" type="curve" smooth="yes"/>
      <point x="357" y="610"/>
      <point x="433" y="600"/>
      <point x="475" y="588" type="curve"/>
    </contour>
    <contour>
      <point x="577" y="371" type="line"/>
      <point x="721" y="371" type="line"/>
      <point x="721" y="517" type="line"/>
      <point x="795" y="414" type="line"/>
      <point x="855" y="414" type="line"/>
      <point x="942" y="517" type="line"/>
      <point x="942" y="371" type="line"/>
      <point x="1086" y="371" type="line"/>
      <point x="1086" y="700" type="line"/>
      <point x="942" y="700" type="line"/>
      <point x="826" y="571" type="line"/>
      <point x="719" y="700" type="line"/>
      <point x="577" y="700" type="line"/>
    </contour>
  </outline>
</glyph>
<glyph name="uni2126" format="2">
  <advance width="1183"/>
  <unicode hex="2126"/>
  <outline>
    <contour>
      <point x="48" y="0" type="line"/>
      <point x="563" y="0" type="line"/>
      <point x="563" y="159" type="line"/>
      <point x="468" y="192"/>
      <point x="398" y="269"/>
      <point x="398" y="358" type="curve" smooth="yes"/>
      <point x="398" y="459"/>
      <point x="462" y="511"/>
      <point x="593" y="511" type="curve" smooth="yes"/>
      <point x="665" y="511"/>
      <point x="789" y="499"/>
      <point x="789" y="358" type="curve" smooth="yes"/>
      <point x="789" y="269"/>
      <point x="719" y="192"/>
      <point x="624" y="159" type="curve"/>
      <point x="624" y="0" type="line"/>
      <point x="1135" y="0" type="line"/>
      <point x="1135" y="240" type="line"/>
      <point x="1003" y="240" type="line"/>
      <point x="1086" y="297"/>
      <point x="1120" y="336"/>
      <point x="1120" y="431" type="curve" smooth="yes"/>
      <point x="1120" y="541"/>
      <point x="1001" y="710"/>
      <point x="593" y="710" type="curve" smooth="yes"/>
      <point x="186" y="710"/>
      <point x="67" y="541"/>
      <point x="67" y="431" type="curve" smooth="yes"/>
      <point x="67" y="336"/>
      <point x="101" y="297"/>
      <point x="184" y="240" type="curve"/>
      <point x="48" y="240" type="line"/>
    </contour>
  </outline>
</glyph>
<glyph name="arrowup" format="2">
  <advance width="825"/>
  <unicode hex="2191"/>
  <outline>
    <contour>
      <point x="521" y="-37" type="line"/>
      <point x="521" y="319" type="line"/>
      <point x="641" y="199" type="line"/>
      <point x="792" y="350" type="line"/>
      <point x="413" y="729" type="line"/>
      <point x="34" y="350" type="line"/>
      <point x="186" y="199" type="line"/>
      <point x="307" y="321" type="line"/>
      <point x="307" y="-37" type="line"/>
    </contour>
  </outline>
</glyph>
<glyph name="arrowright" format="2">
  <advance width="825"/>
  <unicode hex="2192"/>
  <outline>
    <contour>
      <point x="45" y="244" type="line"/>
      <point x="403" y="244" type="line"/>
      <point x="281" y="123" type="line"/>
      <point x="432" y="-29" type="line"/>
      <point x="811" y="350" type="line"/>
      <point x="432" y="729" type="line"/>
      <point x="281" y="578" type="line"/>
      <point x="401" y="458" type="line"/>
      <point x="45" y="458" type="line"/>
    </contour>
  </outline>
</glyph>
<glyph name="uni2196" format="2">
  <advance width="825"/>
  <unicode hex="2196"/>
  <outline>
    <contour>
      <point x="671" y="404" type="line"/>
      <point x="671" y="618" type="line"/>
      <point x="135" y="618" type="line"/>
      <point x="135" y="82" type="line"/>
      <point x="349" y="82" type="line"/>
      <point x="349" y="254" type="line"/>
      <point x="602" y="1" type="line"/>
      <point x="753" y="153" type="line"/>
      <point x="501" y="404" type="line"/>
    </contour>
  </outline>
</glyph>
<glyph name="uni2197" format="2">
  <advance width="825"/>
  <unicode hex="2197"/>
  <outline>
    <contour>
      <point x="690" y="82" type="line"/>
      <point x="690" y="618" type="line"/>
      <point x="154" y="618" type="line"/>
      <point x="154" y="404" type="line"/>
      <point x="324" y="404" type="line"/>
      <point x="72" y="153" type="line"/>
      <point x="223" y="1" type="line"/>
      <point x="476" y="254" type="line"/>
      <point x="476" y="82" type="line"/>
    </contour>
  </outline>
</glyph>
<glyph name="uni2198" format="2">
  <advance width="825"/>
  <unicode hex="2198"/>
  <outline>
    <contour>
      <point x="223" y="699" type="line"/>
      <point x="72" y="547" type="line"/>
      <point x="324" y="296" type="line"/>
      <point x="154" y="296" type="line"/>
      <point x="154" y="82" type="line"/>
      <point x="690" y="82" type="line"/>
      <point x="690" y="618" type="line"/>
      <point x="476" y="618" type="line"/>
      <point x="476" y="446" type="line"/>
    </contour>
  </outline>
</glyph>
<glyph name="partialdiff" format="2">
  <advance width="906"/>
  <unicode hex="2202"/>
  <outline>
    <contour>
      <point x="380" y="-10" type="curve" smooth="yes"/>
      <point x="614" y="-10"/>
      <point x="851" y="93"/>
      <point x="851" y="379" type="curve" smooth="yes"/>
      <point x="851" y="600"/>
      <point x="690" y="710"/>
      <point x="405" y="710" type="curve" smooth="yes"/>
      <point x="291" y="710"/>
      <point x="158" y="692"/>
      <point x="104" y="671" type="curve"/>
      <point x="143" y="476" type="line"/>
      <point x="207" y="490"/>
      <point x="274" y="505"/>
      <point x="362" y="505" type="curve" smooth="yes"/>
      <point x="542" y="505"/>
      <point x="600" y="464"/>
      <point x="600" y="369" type="curve" smooth="yes"/>
      <point x="600" y="252"/>
      <point x="508" y="195"/>
      <point x="385" y="195" type="curve" smooth="yes"/>
      <point x="313" y="195"/>
      <point x="292" y="208"/>
      <point x="292" y="229" type="curve" smooth="yes"/>
      <point x="292" y="247"/>
      <point x="309" y="261"/>
      <point x="391" y="261" type="curve" smooth="yes"/>
      <point x="462" y="261"/>
      <point x="543" y="256"/>
      <point x="630" y="230" type="curve"/>
      <point x="664" y="386" type="line"/>
      <point x="559" y="441"/>
      <point x="459" y="457"/>
      <point x="382" y="457" type="curve" smooth="yes"/>
      <point x="199" y="457"/>
      <point x="25" y="401"/>
      <point x="25" y="222" type="curve" smooth="yes"/>
      <point x="25" y="90"/>
      <point x="124" y="-10"/>
    </contour>
  </outline>
</glyph>
<glyph name="uni2206" format="2">
  <advance width="1172"/>
  <unicode hex="2206"/>
  <outline>
    <contour>
      <point x="46" y="0" type="line"/>
      <point x="1126" y="0" type="line"/>
      <point x="1126" y="238" type="line"/>
      <point x="744" y="700" type="line"/>
      <point x="428" y="700" type="line"/>
      <point x="46" y="238" type="line"/>
    </contour>
    <contour>
      <point x="386" y="240" type="line"/>
      <point x="580" y="469" type="line"/>
      <point x="755" y="240" type="line"/>
    </contour>
  </outline>
</glyph>
<glyph name="summation" format="2">
  <advance width="1027"/>
  <unicode hex="2211"/>
  <outline>
    <contour>
      <point x="56" y="-210" type="line"/>
      <point x="972" y="-210" type="line"/>
      <point x="972" y="0" type="line"/>
      <point x="488" y="0" type="line"/>
      <point x="909" y="201" type="line"/>
      <point x="909" y="340" type="line"/>
      <point x="579" y="490" type="line"/>
      <point x="944" y="490" type="line"/>
      <point x="944" y="700" type="line"/>
      <point x="56" y="700" type="line"/>
      <point x="56" y="516" type="line"/>
      <point x="628" y="256" type="line"/>
      <point x="56" y="-6" type="line"/>
    </contour>
  </outline>
</glyph>
<glyph name="radical" format="2">
  <advance width="883"/>
  <unicode hex="221A"/>
  <outline>
    <contour>
      <point x="37" y="342" type="line"/>
      <point x="132" y="342" type="line"/>
      <point x="289" y="0" type="line"/>
      <point x="622" y="0" type="line"/>
      <point x="847" y="740" type="line"/>
      <point x="536" y="740" type="line"/>
      <point x="441" y="244" type="line"/>
      <point x="357" y="550" type="line"/>
      <point x="37" y="550" type="line"/>
    </contour>
  </outline>
</glyph>
<glyph name="infinity" format="2">
  <advance width="959"/>
  <unicode hex="221E"/>
  <outline>
    <contour>
      <point x="242" y="90" type="curve" smooth="yes"/>
      <point x="332" y="90"/>
      <point x="409" y="131"/>
      <point x="462" y="184" type="curve"/>
      <point x="524" y="135"/>
      <point x="597" y="96"/>
      <point x="687" y="96" type="curve" smooth="yes"/>
      <point x="827" y="96"/>
      <point x="937" y="174"/>
      <point x="937" y="330" type="curve" smooth="yes"/>
      <point x="937" y="457"/>
      <point x="853" y="559"/>
      <point x="713" y="559" type="curve" smooth="yes"/>
      <point x="627" y="559"/>
      <point x="557" y="521"/>
      <point x="500" y="458" type="curve"/>
      <point x="439" y="510"/>
      <point x="368" y="556"/>
      <point x="258" y="556" type="curve" smooth="yes"/>
      <point x="117" y="556"/>
      <point x="22" y="460"/>
      <point x="22" y="318" type="curve" smooth="yes"/>
      <point x="22" y="187"/>
      <point x="104" y="90"/>
    </contour>
    <contour>
      <point x="675" y="407" type="curve" smooth="yes"/>
      <point x="697" y="407"/>
      <point x="713" y="396"/>
      <point x="713" y="371" type="curve" smooth="yes"/>
      <point x="713" y="352"/>
      <point x="698" y="339"/>
      <point x="673" y="339" type="curve" smooth="yes"/>
      <point x="650" y="339"/>
      <point x="627" y="346"/>
      <point x="596" y="371" type="curve"/>
      <point x="621" y="394"/>
      <point x="647" y="407"/>
    </contour>
    <contour>
      <point x="289" y="243" type="curve" smooth="yes"/>
      <point x="256" y="243"/>
      <point x="243" y="261"/>
      <point x="243" y="282" type="curve" smooth="yes"/>
      <point x="243" y="305"/>
      <point x="262" y="316"/>
      <point x="281" y="316" type="curve" smooth="yes"/>
      <point x="306" y="316"/>
      <point x="334" y="297"/>
      <point x="360" y="274" type="curve"/>
      <point x="336" y="253"/>
      <point x="313" y="243"/>
    </contour>
  </outline>
</glyph>
<glyph name="notequal" format="2">
  <advance width="782"/>
  <unicode hex="2260"/>
  <outline>
    <contour>
      <point x="722" y="550" type="line"/>
      <point x="655" y="550" type="line"/>
      <point x="724" y="646" type="line"/>
      <point x="523" y="646" type="line"/>
      <point x="454" y="550" type="line"/>
      <point x="60" y="550" type="line"/>
      <point x="60" y="345" type="line"/>
      <point x="307" y="345" type="line"/>
      <point x="274" y="298" type="line"/>
      <point x="60" y="298" type="line"/>
      <point x="60" y="93" type="line"/>
      <point x="127" y="93" type="line"/>
      <point x="61" y="0" type="line"/>
      <point x="264" y="0" type="line"/>
      <point x="330" y="93" type="line"/>
      <point x="722" y="93" type="line"/>
      <point x="722" y="298" type="line"/>
      <point x="476" y="298" type="line"/>
      <point x="509" y="345" type="line"/>
      <point x="722" y="345" type="line"/>
    </contour>
  </outline>
</glyph>
<glyph name="lessequal" format="2">
  <advance width="782"/>
  <unicode hex="2264"/>
  <outline>
    <contour>
      <point x="722" y="206" type="line"/>
      <point x="722" y="418" type="line"/>
      <point x="341" y="453" type="line"/>
      <point x="722" y="487" type="line"/>
      <point x="722" y="702" type="line"/>
      <point x="60" y="539" type="line"/>
      <point x="60" y="368" type="line"/>
    </contour>
    <contour>
      <point x="60" y="0" type="line"/>
      <point x="722" y="0" type="line"/>
      <point x="722" y="205" type="line"/>
      <point x="60" y="205" type="line"/>
    </contour>
  </outline>
</glyph>
<glyph name="uni25A1" format="2">
  <advance width="694"/>
  <unicode hex="25A1"/>
  <outline>
    <contour>
      <point x="139" y="117" type="line"/>
      <point x="556" y="117" type="line"/>
      <point x="556" y="534" type="line"/>
      <point x="139" y="534" type="line"/>
    </contour>
    <contour>
      <point x="219" y="197" type="line"/>
      <point x="219" y="454" type="line"/>
      <point x="476" y="454" type="line"/>
      <point x="476" y="197" type="line"/>
    </contour>
  </outline>
</glyph>
<glyph name="uni25B7" format="2">
  <advance width="694"/>
  <unicode hex="25B7"/>
  <outline>
    <contour>
      <point x="120" y="94" type="line"/>
      <point x="634" y="328" type="line"/>
      <point x="120" y="563" type="line"/>
    </contour>
    <contour>
      <point x="200" y="219" type="line"/>
      <point x="200" y="438" type="line"/>
      <point x="441" y="328" type="line"/>
    </contour>
  </outline>
</glyph>
<glyph name="uni25BD" format="2">
  <advance width="694"/>
  <unicode hex="25BD"/>
  <outline>
    <contour>
      <point x="348" y="32" type="line"/>
      <point x="582" y="546" type="line"/>
      <point x="113" y="546" type="line"/>
    </contour>
    <contour>
      <point x="348" y="225" type="line"/>
      <point x="237" y="466" type="line"/>
      <point x="457" y="466" type="line"/>
    </contour>
  </outline>
</glyph>
<glyph name="uni25C6" format="2">
  <advance width="694"/>
  <unicode hex="25C6"/>
  <outline>
    <contour>
      <point x="52" y="326" type="line"/>
      <point x="347" y="31" type="line"/>
      <point x="642" y="326" type="line"/>
      <point x="347" y="621" type="line"/>
    </contour>
  </outline>
</glyph>
<glyph name="uni2782" format="2">
  <advance width="908"/>
  <unicode hex="2782"/>
  <outline>
    <contour>
      <point x="224" y="195" type="line"/>
      <point x="278" y="178"/>
      <point x="344" y="171"/>
      <point x="437" y="171" type="curve" smooth="yes"/>
      <point x="603" y="171"/>
      <point x="686" y="211"/>
      <point x="686" y="283" type="curve" smooth="yes"/>
      <point x="686" y="325"/>
      <point x="662" y="348"/>
      <point x="612" y="364" type="curve"/>
      <point x="656" y="372"/>
      <point x="681" y="399"/>
      <point x="681" y="436" type="curve" smooth="yes"/>
      <point x="681" y="497"/>
      <point x="604" y="525"/>
      <point x="448" y="525" type="curve" smooth="yes"/>
      <point x="357" y="525"/>
      <point x="273" y="517"/>
      <point x="231" y="505" type="curve"/>
      <point x="254" y="400" type="line"/>
      <point x="277" y="410"/>
      <point x="338" y="417"/>
      <point x="400" y="417" type="curve" smooth="yes"/>
      <point x="485" y="417"/>
      <point x="507" y="411"/>
      <point x="507" y="403" type="curve" smooth="yes"/>
      <point x="507" y="398"/>
      <point x="502" y="395"/>
      <point x="483" y="395" type="curve" smooth="yes"/>
      <point x="326" y="395" type="line"/>
      <point x="326" y="297" type="line"/>
      <point x="487" y="297" type="line" smooth="yes"/>
      <point x="500" y="297"/>
      <point x="508" y="294"/>
      <point x="508" y="287" type="curve" smooth="yes"/>
      <point x="508" y="276"/>
      <point x="486" y="273"/>
      <point x="420" y="273" type="curve" smooth="yes"/>
      <point x="353" y="273"/>
      <point x="287" y="278"/>
      <point x="252" y="290" type="curve"/>
    </contour>
    <contour>
      <point x="51" y="348" type="curve" smooth="yes"/>
      <point x="51" y="139"/>
      <point x="198" y="-10"/>
      <point x="454" y="-10" type="curve" smooth="yes"/>
      <point x="710" y="-10"/>
      <point x="857" y="139"/>
      <point x="857" y="348" type="curve" smooth="yes"/>
      <point x="857" y="559"/>
      <point x="707" y="710"/>
      <point x="454" y="710" type="curve" smooth="yes"/>
      <point x="201" y="710"/>
      <point x="51" y="559"/>
    </contour>
    <contour>
      <point x="157" y="348" type="curve" smooth="yes"/>
      <point x="157" y="509"/>
      <point x="256" y="614"/>
      <point x="454" y="614" type="curve" smooth="yes"/>
      <point x="652" y="614"/>
      <point x="751" y="509"/>
      <point x="751" y="348" type="curve" smooth="yes"/>
      <point x="751" y="189"/>
      <point x="653" y="79"/>
      <point x="454" y="79" type="curve" smooth="yes"/>
      <point x="255" y="79"/>
      <point x="157" y="189"/>
    </contour>
  </outline>
</glyph>
<glyph name="uni2786" format="2">
  <advance width="908"/>
  <unicode hex="2786"/>
  <outline>
    <contour>
      <point x="300" y="184" type="curve"/>
      <point x="487" y="184" type="line"/>
      <point x="491" y="219"/>
      <point x="507" y="261"/>
      <point x="571" y="323" type="curve" smooth="yes"/>
      <point x="675" y="425" type="line"/>
      <point x="675" y="516" type="line"/>
      <point x="229" y="516" type="line"/>
      <point x="229" y="405" type="line"/>
      <point x="464" y="405" type="line"/>
      <point x="383" y="333" type="line" smooth="yes"/>
      <point x="327" y="284"/>
      <point x="300" y="232"/>
    </contour>
    <contour>
      <point x="454" y="-10" type="curve" smooth="yes"/>
      <point x="710" y="-10"/>
      <point x="857" y="139"/>
      <point x="857" y="348" type="curve" smooth="yes"/>
      <point x="857" y="559"/>
      <point x="707" y="710"/>
      <point x="454" y="710" type="curve" smooth="yes"/>
      <point x="201" y="710"/>
      <point x="51" y="559"/>
      <point x="51" y="348" type="curve" smooth="yes"/>
      <point x="51" y="139"/>
      <point x="198" y="-10"/>
    </contour>
    <contour>
      <point x="454" y="614" type="curve" smooth="yes"/>
      <point x="652" y="614"/>
      <point x="751" y="509"/>
      <point x="751" y="348" type="curve" smooth="yes"/>
      <point x="751" y="189"/>
      <point x="653" y="79"/>
      <point x="454" y="79" type="curve" smooth="yes"/>
      <point x="255" y="79"/>
      <point x="157" y="189"/>
      <point x="157" y="348" type="curve" smooth="yes"/>
      <point x="157" y="509"/>
      <point x="256" y="614"/>
    </contour>
  </outline>
</glyph>
<glyph name="uni278A" format="2">
  <advance width="908"/>
  <unicode hex="278A"/>
  <outline>
    <contour>
      <point x="454" y="-10" type="curve" smooth="yes"/>
      <point x="710" y="-10"/>
      <point x="857" y="139"/>
      <point x="857" y="348" type="curve" smooth="yes"/>
      <point x="857" y="559"/>
      <point x="707" y="710"/>
      <point x="454" y="710" type="curve" smooth="yes"/>
      <point x="201" y="710"/>
      <point x="51" y="559"/>
      <point x="51" y="348" type="curve" smooth="yes"/>
      <point x="51" y="139"/>
      <point x="198" y="-10"/>
    </contour>
    <contour>
      <point x="260" y="184" type="line"/>
      <point x="260" y="295" type="line"/>
      <point x="368" y="295" type="line"/>
      <point x="368" y="351" type="line"/>
      <point x="268" y="324" type="line"/>
      <point x="222" y="444" type="line"/>
      <point x="465" y="519" type="line"/>
      <point x="560" y="519" type="line"/>
      <point x="560" y="295" type="line"/>
      <point x="658" y="295" type="line"/>
      <point x="658" y="184" type="line"/>
    </contour>
  </outline>
</glyph>
<glyph name="uni278B" format="2">
  <advance width="908"/>
  <unicode hex="278B"/>
  <outline>
    <contour>
      <point x="454" y="-10" type="curve" smooth="yes"/>
      <point x="710" y="-10"/>
      <point x="857" y="139"/>
      <point x="857" y="348" type="curve" smooth="yes"/>
      <point x="857" y="559"/>
      <point x="707" y="710"/>
      <point x="454" y="710" type="curve" smooth="yes"/>
      <point x="201" y="710"/>
      <point x="51" y="559"/>
      <point x="51" y="348" type="curve" smooth="yes"/>
      <point x="51" y="139"/>
      <point x="198" y="-10"/>
    </contour>
    <contour>
      <point x="242" y="184" type="line"/>
      <point x="242" y="278" type="line"/>
      <point x="387" y="316"/>
      <point x="439" y="341"/>
      <point x="439" y="373" type="curve" smooth="yes"/>
      <point x="439" y="392"/>
      <point x="419" y="405"/>
      <point x="390" y="405" type="curve" smooth="yes"/>
      <point x="353" y="405"/>
      <point x="324" y="393"/>
      <point x="279" y="376" type="curve"/>
      <point x="242" y="483" type="line"/>
      <point x="287" y="508"/>
      <point x="374" y="527"/>
      <point x="439" y="527" type="curve" smooth="yes"/>
      <point x="554" y="527"/>
      <point x="633" y="477"/>
      <point x="633" y="402" type="curve" smooth="yes"/>
      <point x="633" y="356"/>
      <point x="610" y="327"/>
      <point x="546" y="297" type="curve"/>
      <point x="679" y="297" type="line"/>
      <point x="679" y="184" type="line"/>
    </contour>
  </outline>
</glyph>
<glyph name="uni278E" format="2">
  <advance width="908"/>
  <unicode hex="278E"/>
  <outline>
    <contour>
      <point x="454" y="-10" type="curve" smooth="yes"/>
      <point x="710" y="-10"/>
      <point x="857" y="139"/>
      <point x="857" y="348" type="curve" smooth="yes"/>
      <point x="857" y="559"/>
      <point x="707" y="710"/>
      <point x="454" y="710" type="curve" smooth="yes"/>
      <point x="201" y="710"/>
      <point x="51" y="559"/>
      <point x="51" y="348" type="curve" smooth="yes"/>
      <point x="51" y="139"/>
      <point x="198" y="-10"/>
    </contour>
    <contour>
      <point x="437" y="173" type="curve" smooth="yes"/>
      <point x="362" y="173"/>
      <point x="286" y="178"/>
      <point x="218" y="197" type="curve"/>
      <point x="246" y="296" type="line"/>
      <point x="290" y="289"/>
      <point x="323" y="279"/>
      <point x="406" y="279" type="curve" smooth="yes"/>
      <point x="487" y="279"/>
      <point x="506" y="282"/>
      <point x="506" y="294" type="curve" smooth="yes"/>
      <point x="506" y="303"/>
      <point x="499" y="312"/>
      <point x="385" y="312" type="curve" smooth="yes"/>
      <point x="246" y="312" type="line"/>
      <point x="240" y="323" type="line"/>
      <point x="275" y="524" type="line"/>
      <point x="658" y="524" type="line"/>
      <point x="658" y="413" type="line"/>
      <point x="380" y="413" type="line"/>
      <point x="378" y="401" type="line"/>
      <point x="444" y="401" type="line" smooth="yes"/>
      <point x="598" y="401"/>
      <point x="689" y="386"/>
      <point x="689" y="289" type="curve" smooth="yes"/>
      <point x="689" y="211"/>
      <point x="586" y="173"/>
    </contour>
  </outline>
</glyph>
<glyph name="uni2791" format="2">
  <advance width="908"/>
  <unicode hex="2791"/>
  <outline>
    <contour>
      <point x="454" y="-10" type="curve" smooth="yes"/>
      <point x="710" y="-10"/>
      <point x="857" y="139"/>
      <point x="857" y="348" type="curve" smooth="yes"/>
      <point x="857" y="559"/>
      <point x="707" y="710"/>
      <point x="454" y="710" type="curve" smooth="yes"/>
      <point x="201" y="710"/>
      <point x="51" y="559"/>
      <point x="51" y="348" type="curve" smooth="yes"/>
      <point x="51" y="139"/>
      <point x="198" y="-10"/>
    </contour>
    <contour>
      <point x="460" y="257" type="curve" smooth="yes"/>
      <point x="517" y="257"/>
      <point x="533" y="262"/>
      <point x="533" y="270" type="curve" smooth="yes"/>
      <point x="533" y="286"/>
      <point x="454" y="282"/>
      <point x="375" y="293" type="curve"/>
      <point x="374" y="291"/>
      <point x="374" y="288"/>
      <point x="374" y="285" type="curve" smooth="yes"/>
      <point x="374" y="267"/>
      <point x="403" y="257"/>
    </contour>
    <contour>
      <point x="445" y="171" type="curve" smooth="yes"/>
      <point x="272" y="171"/>
      <point x="188" y="207"/>
      <point x="188" y="282" type="curve" smooth="yes"/>
      <point x="188" y="309"/>
      <point x="202" y="328"/>
      <point x="239" y="350" type="curve"/>
      <point x="226" y="364"/>
      <point x="219" y="383"/>
      <point x="219" y="406" type="curve" smooth="yes"/>
      <point x="219" y="484"/>
      <point x="299" y="525"/>
      <point x="451" y="525" type="curve" smooth="yes"/>
      <point x="599" y="525"/>
      <point x="686" y="488"/>
      <point x="686" y="426" type="curve" smooth="yes"/>
      <point x="686" y="402"/>
      <point x="671" y="383"/>
      <point x="649" y="369" type="curve"/>
      <point x="690" y="353"/>
      <point x="719" y="327"/>
      <point x="719" y="286" type="curve" smooth="yes"/>
      <point x="719" y="205"/>
      <point x="637" y="171"/>
    </contour>
    <contour>
      <point x="511" y="397" type="curve"/>
      <point x="513" y="400"/>
      <point x="515" y="405"/>
      <point x="515" y="410" type="curve" smooth="yes"/>
      <point x="515" y="426"/>
      <point x="492" y="430"/>
      <point x="441" y="430" type="curve" smooth="yes"/>
      <point x="402" y="430"/>
      <point x="388" y="426"/>
      <point x="388" y="415" type="curve" smooth="yes"/>
      <point x="388" y="403"/>
      <point x="445" y="403"/>
    </contour>
  </outline>
</glyph>
<glyph name="uni2793" format="2">
  <advance width="908"/>
  <unicode hex="2793"/>
  <outline>
    <contour>
      <point x="454" y="-10" type="curve" smooth="yes"/>
      <point x="710" y="-10"/>
      <point x="857" y="139"/>
      <point x="857" y="348" type="curve" smooth="yes"/>
      <point x="857" y="559"/>
      <point x="707" y="710"/>
      <point x="454" y="710" type="curve" smooth="yes"/>
      <point x="201" y="710"/>
      <point x="51" y="559"/>
      <point x="51" y="348" type="curve" smooth="yes"/>
      <point x="51" y="139"/>
      <point x="198" y="-10"/>
    </contour>
    <contour>
      <point x="217" y="184" type="line"/>
      <point x="217" y="295" type="line"/>
      <point x="277" y="295" type="line"/>
      <point x="277" y="351" type="line"/>
      <point x="221" y="324" type="line"/>
      <point x="195" y="444" type="line"/>
      <point x="332" y="519" type="line"/>
      <point x="385" y="519" type="line"/>
      <point x="385" y="295" type="line"/>
      <point x="440" y="295" type="line"/>
      <point x="440" y="184" type="line"/>
    </contour>
    <contour>
      <point x="587" y="171" type="curve" smooth="yes"/>
      <point x="507" y="171"/>
      <point x="443" y="210"/>
      <point x="443" y="347" type="curve" smooth="yes"/>
      <point x="443" y="487"/>
      <point x="507" y="525"/>
      <point x="587" y="525" type="curve" smooth="yes"/>
      <point x="667" y="525"/>
      <point x="730" y="487"/>
      <point x="730" y="347" type="curve" smooth="yes"/>
      <point x="730" y="210"/>
      <point x="667" y="171"/>
    </contour>
    <contour>
      <point x="581" y="271" type="curve" smooth="yes"/>
      <point x="603" y="271"/>
      <point x="615" y="288"/>
      <point x="615" y="347" type="curve" smooth="yes"/>
      <point x="615" y="409"/>
      <point x="603" y="426"/>
      <point x="581" y="426" type="curve" smooth="yes"/>
      <point x="559" y="426"/>
      <point x="546" y="409"/>
      <point x="546" y="347" type="curve" smooth="yes"/>
      <point x="546" y="288"/>
      <point x="559" y="271"/>
    </contour>
  </outline>
</glyph>
<glyph name="fi" format="2">
  <advance width="996"/>
  <unicode hex="FB01"/>
  <outline>
    <contour>
      <point x="118" y="0" type="line"/>
      <point x="414" y="0" type="line"/>
      <point x="414" y="305" type="line"/>
      <point x="632" y="305" type="line"/>
      <point x="632" y="0" type="line"/>
      <point x="932" y="0" type="line"/>
      <point x="932" y="484" type="line"/>
      <point x="414" y="484" type="line"/>
      <point x="414" y="493" type="line" smooth="yes"/>
      <point x="414" y="535"/>
      <point x="478" y="557"/>
      <point x="600" y="557" type="curve" smooth="yes"/>
      <point x="684" y="557"/>
      <point x="830" y="542"/>
      <point x="888" y="528" type="curve"/>
      <point x="944" y="710" type="line"/>
      <point x="820" y="735"/>
      <point x="673" y="750"/>
      <point x="558" y="750" type="curve" smooth="yes"/>
      <point x="270" y="750"/>
      <point x="118" y="662"/>
      <point x="118" y="500" type="curve" smooth="yes"/>
      <point x="118" y="484" type="line"/>
      <point x="14" y="464" type="line"/>
      <point x="14" y="305" type="line"/>
      <point x="118" y="305" type="line"/>
    </contour>
  </outline>
</glyph>
<glyph name="fl" format="2">
  <advance width="1110"/>
  <unicode hex="FB02"/>
  <outline>
    <contour>
      <point x="905" y="-10" type="curve" smooth="yes"/>
      <point x="988" y="-10"/>
      <point x="1053" y="4"/>
      <point x="1114" y="25" type="curve"/>
      <point x="1080" y="220" type="line"/>
      <point x="1043" y="211"/>
      <point x="1017" y="206"/>
      <point x="996" y="206" type="curve" smooth="yes"/>
      <point x="955" y="206"/>
      <point x="934" y="215"/>
      <point x="934" y="258" type="curve" smooth="yes"/>
      <point x="934" y="710" type="line"/>
      <point x="793" y="736"/>
      <point x="663" y="750"/>
      <point x="558" y="750" type="curve" smooth="yes"/>
      <point x="270" y="750"/>
      <point x="118" y="662"/>
      <point x="118" y="500" type="curve" smooth="yes"/>
      <point x="118" y="484" type="line"/>
      <point x="14" y="464" type="line"/>
      <point x="14" y="305" type="line"/>
      <point x="118" y="305" type="line"/>
      <point x="118" y="0" type="line"/>
      <point x="414" y="0" type="line"/>
      <point x="414" y="305" type="line"/>
      <point x="565" y="305" type="line"/>
      <point x="565" y="484" type="line"/>
      <point x="414" y="484" type="line"/>
      <point x="414" y="503" type="line" smooth="yes"/>
      <point x="414" y="552"/>
      <point x="471" y="564"/>
      <point x="573" y="564" type="curve" smooth="yes"/>
      <point x="592" y="564"/>
      <point x="613" y="563"/>
      <point x="634" y="561" type="curve"/>
      <point x="634" y="244" type="line" smooth="yes"/>
      <point x="634" y="55"/>
      <point x="724" y="-10"/>
    </contour>
  </outline>
</glyph>
<glyph name="Euro.tosf" format="2">
  <advance width="1050"/>
  <outline>
    <contour>
      <point x="167" y="272" type="curve" smooth="yes"/>
      <point x="167" y="78"/>
      <point x="296" y="-10"/>
      <point x="630" y="-10" type="curve" smooth="yes"/>
      <point x="769" y="-10"/>
      <point x="854" y="-2"/>
      <point x="951" y="15" type="curve"/>
      <point x="921" y="140" type="line"/>
      <point x="852" y="134"/>
      <point x="781" y="130"/>
      <point x="717" y="130" type="curve" smooth="yes"/>
      <point x="507" y="130"/>
      <point x="476" y="169"/>
      <point x="476" y="270" type="curve" smooth="yes"/>
      <point x="476" y="385"/>
      <point x="492" y="413"/>
      <point x="723" y="413" type="curve" smooth="yes"/>
      <point x="778" y="413"/>
      <point x="840" y="409"/>
      <point x="908" y="403" type="curve"/>
      <point x="934" y="537" type="line"/>
      <point x="873" y="549"/>
      <point x="769" y="560"/>
      <point x="630" y="560" type="curve" smooth="yes"/>
      <point x="296" y="560"/>
      <point x="167" y="482"/>
    </contour>
    <contour>
      <point x="858" y="289" type="line"/>
      <point x="858" y="375" type="line"/>
      <point x="105" y="375" type="line"/>
      <point x="105" y="289" type="line"/>
    </contour>
    <contour>
      <point x="858" y="165" type="line"/>
      <point x="858" y="251" type="line"/>
      <point x="105" y="251" type="line"/>
      <point x="105" y="165" type="line"/>
    </contour>
  </outline>
</glyph>
<glyph name="T_h.liga" format="2">
  <advance width="1807"/>
  <outline>
    <contour>
      <point x="969" y="0" type="line"/>
      <point x="1269" y="0" type="line"/>
      <point x="1269" y="327" type="line"/>
      <point x="1310" y="340"/>
      <point x="1345" y="349"/>
      <point x="1374" y="349" type="curve" smooth="yes"/>
      <point x="1422" y="349"/>
      <point x="1453" y="323"/>
      <point x="1453" y="244" type="curve" smooth="yes"/>
      <point x="1453" y="0" type="line"/>
      <point x="1753" y="0" type="line"/>
      <point x="1753" y="352" type="line" smooth="yes"/>
      <point x="1753" y="461"/>
      <point x="1675" y="560"/>
      <point x="1497" y="560" type="curve" smooth="yes"/>
      <point x="1415" y="560"/>
      <point x="1355" y="541"/>
      <point x="1269" y="501" type="curve"/>
      <point x="1269" y="700" type="line"/>
      <point x="35" y="700" type="line"/>
      <point x="35" y="460" type="line"/>
      <point x="382" y="460" type="line"/>
      <point x="382" y="0" type="line"/>
      <point x="702" y="0" type="line"/>
      <point x="702" y="460" type="line"/>
      <point x="969" y="460" type="line"/>
    </contour>
  </outline>
</glyph>
<glyph name="a.sc" format="2">
  <advance width="1088"/>
  <anchor x="1076" y="0" name="ogonek"/>
  <anchor x="544" y="0" name="bottom"/>
  <anchor x="544" y="625" name="top"/>
  <outline>
    <contour>
      <point x="12" y="0" type="line"/>
      <point x="351" y="0" type="line"/>
      <point x="390" y="75" type="line"/>
      <point x="701" y="75" type="line"/>
      <point x="741" y="0" type="line"/>
      <point x="1076" y="0" type="line"/>
      <point x="699" y="625" type="line"/>
      <point x="389" y="625" type="line"/>
    </contour>
    <contour>
      <point x="467" y="253" type="line"/>
      <point x="546" y="404" type="line"/>
      <point x="625" y="253" type="line"/>
    </contour>
  </outline>
</glyph>
<glyph name="a.superior" format="2">
  <advance width="618"/>
  <outline>
    <contour>
      <point x="30" y="455" type="curve" smooth="yes"/>
      <point x="30" y="362"/>
      <point x="138" y="362"/>
      <point x="197" y="362" type="curve" smooth="yes"/>
      <point x="268" y="362"/>
      <point x="309" y="369"/>
      <point x="369" y="397" type="curve"/>
      <point x="395" y="374"/>
      <point x="435" y="362"/>
      <point x="490" y="362" type="curve" smooth="yes"/>
      <point x="537" y="362"/>
      <point x="583" y="375"/>
      <point x="613" y="395" type="curve"/>
      <point x="595" y="487" type="line"/>
      <point x="590" y="485"/>
      <point x="581" y="485"/>
      <point x="576" y="485" type="curve" smooth="yes"/>
      <point x="571" y="485"/>
      <point x="564" y="490"/>
      <point x="564" y="504" type="curve" smooth="yes"/>
      <point x="564" y="559" type="line" smooth="yes"/>
      <point x="564" y="644"/>
      <point x="488" y="690"/>
      <point x="276" y="690" type="curve" smooth="yes"/>
      <point x="197" y="690"/>
      <point x="115" y="683"/>
      <point x="52" y="668" type="curve"/>
      <point x="76" y="551" type="line"/>
      <point x="106" y="560"/>
      <point x="163" y="572"/>
      <point x="241" y="572" type="curve" smooth="yes"/>
      <point x="316" y="572"/>
      <point x="334" y="561"/>
      <point x="334" y="555" type="curve" smooth="yes"/>
      <point x="334" y="553" type="line"/>
      <point x="101" y="553"/>
      <point x="30" y="533"/>
    </contour>
    <contour>
      <point x="242" y="459" type="curve" smooth="yes"/>
      <point x="242" y="475"/>
      <point x="259" y="482"/>
      <point x="335" y="482" type="curve"/>
      <point x="335" y="459" type="line"/>
      <point x="320" y="449"/>
      <point x="299" y="442"/>
      <point x="277" y="442" type="curve" smooth="yes"/>
      <point x="251" y="442"/>
      <point x="242" y="447"/>
    </contour>
  </outline>
</glyph>
<glyph name="at.sc" format="2">
  <advance width="936"/>
  <outline>
    <contour>
      <point x="444" y="-10" type="curve" smooth="yes"/>
      <point x="509" y="-10"/>
      <point x="572" y="-2"/>
      <point x="626" y="10" type="curve"/>
      <point x="606" y="99" type="line"/>
      <point x="561" y="89"/>
      <point x="508" y="82"/>
      <point x="456" y="82" type="curve" smooth="yes"/>
      <point x="308" y="82"/>
      <point x="176" y="131"/>
      <point x="176" y="295" type="curve" smooth="yes"/>
      <point x="176" y="433"/>
      <point x="291" y="538"/>
      <point x="480" y="538" type="curve" smooth="yes"/>
      <point x="663" y="538"/>
      <point x="783" y="468"/>
      <point x="783" y="319" type="curve" smooth="yes"/>
      <point x="783" y="266"/>
      <point x="756" y="222"/>
      <point x="725" y="222" type="curve" smooth="yes"/>
      <point x="703" y="222"/>
      <point x="686" y="234"/>
      <point x="689" y="273" type="curve" smooth="yes"/>
      <point x="701" y="451" type="line"/>
      <point x="631" y="475"/>
      <point x="543" y="489"/>
      <point x="487" y="489" type="curve" smooth="yes"/>
      <point x="315" y="489"/>
      <point x="235" y="383"/>
      <point x="235" y="288" type="curve" smooth="yes"/>
      <point x="235" y="185"/>
      <point x="313" y="140"/>
      <point x="402" y="140" type="curve" smooth="yes"/>
      <point x="470" y="140"/>
      <point x="521" y="170"/>
      <point x="554" y="211" type="curve"/>
      <point x="573" y="160"/>
      <point x="625" y="129"/>
      <point x="703" y="129" type="curve" smooth="yes"/>
      <point x="810" y="129"/>
      <point x="882" y="217"/>
      <point x="882" y="338" type="curve" smooth="yes"/>
      <point x="882" y="482"/>
      <point x="770" y="634"/>
      <point x="485" y="634" type="curve" smooth="yes"/>
      <point x="196" y="634"/>
      <point x="50" y="470"/>
      <point x="50" y="289" type="curve" smooth="yes"/>
      <point x="50" y="56"/>
      <point x="239" y="-10"/>
    </contour>
    <contour>
      <point x="453" y="244" type="curve" smooth="yes"/>
      <point x="430" y="244"/>
      <point x="410" y="263"/>
      <point x="410" y="309" type="curve" smooth="yes"/>
      <point x="410" y="365"/>
      <point x="442" y="389"/>
      <point x="482" y="389" type="curve" smooth="yes"/>
      <point x="498" y="389"/>
      <point x="516" y="385"/>
      <point x="533" y="378" type="curve"/>
      <point x="533" y="357" type="line" smooth="yes"/>
      <point x="533" y="288"/>
      <point x="488" y="244"/>
    </contour>
  </outline>
</glyph>
<glyph name="b.superior" format="2">
  <advance width="643"/>
  <outline>
    <contour>
      <point x="55" y="383" type="line"/>
      <point x="132" y="371"/>
      <point x="255" y="362"/>
      <point x="331" y="362" type="curve" smooth="yes"/>
      <point x="533" y="362"/>
      <point x="627" y="417"/>
      <point x="627" y="536" type="curve" smooth="yes"/>
      <point x="627" y="636"/>
      <point x="563" y="690"/>
      <point x="443" y="690" type="curve" smooth="yes"/>
      <point x="383" y="690"/>
      <point x="331" y="679"/>
      <point x="285" y="656" type="curve"/>
      <point x="285" y="792" type="line"/>
      <point x="55" y="792" type="line"/>
    </contour>
    <contour>
      <point x="285" y="492" type="curve"/>
      <point x="285" y="546" type="line"/>
      <point x="311" y="552"/>
      <point x="335" y="556"/>
      <point x="352" y="556" type="curve" smooth="yes"/>
      <point x="383" y="556"/>
      <point x="397" y="544"/>
      <point x="397" y="518" type="curve" smooth="yes"/>
      <point x="397" y="493"/>
      <point x="383" y="485"/>
      <point x="341" y="485" type="curve" smooth="yes"/>
      <point x="316" y="485"/>
      <point x="298" y="487"/>
    </contour>
  </outline>
</glyph>
<glyph name="blacktriangle" format="2">
  <advance width="694"/>
  <outline>
    <contour>
      <point x="170" y="94" type="line"/>
      <point x="576" y="328" type="line"/>
      <point x="170" y="563" type="line"/>
    </contour>
  </outline>
</glyph>
<glyph name="c.superior" format="2">
  <advance width="550"/>
  <outline>
    <contour>
      <point x="297" y="362" type="curve" smooth="yes"/>
      <point x="381" y="362"/>
      <point x="450" y="368"/>
      <point x="515" y="381" type="curve"/>
      <point x="494" y="497" type="line"/>
      <point x="429" y="488"/>
      <point x="395" y="485"/>
      <point x="337" y="485" type="curve" smooth="yes"/>
      <point x="277" y="485"/>
      <point x="247" y="497"/>
      <point x="247" y="522" type="curve" smooth="yes"/>
      <point x="247" y="555"/>
      <point x="272" y="568"/>
      <point x="337" y="568" type="curve" smooth="yes"/>
      <point x="385" y="568"/>
      <point x="417" y="564"/>
      <point x="483" y="550" type="curve"/>
      <point x="503" y="669" type="line"/>
      <point x="448" y="683"/>
      <point x="376" y="690"/>
      <point x="295" y="690" type="curve" smooth="yes"/>
      <point x="117" y="690"/>
      <point x="16" y="627"/>
      <point x="16" y="516" type="curve" smooth="yes"/>
      <point x="16" y="411"/>
      <point x="106" y="362"/>
    </contour>
  </outline>
</glyph>
<glyph name="centsuperior" format="2">
  <advance width="500"/>
  <outline>
    <contour>
      <point x="260" y="364" type="curve" smooth="yes"/>
      <point x="329" y="364"/>
      <point x="400" y="371"/>
      <point x="463" y="384" type="curve"/>
      <point x="446" y="487" type="line"/>
      <point x="388" y="477"/>
      <point x="348" y="474"/>
      <point x="302" y="474" type="curve" smooth="yes"/>
      <point x="238" y="474"/>
      <point x="202" y="488"/>
      <point x="202" y="525" type="curve" smooth="yes"/>
      <point x="202" y="560"/>
      <point x="231" y="576"/>
      <point x="284" y="576" type="curve" smooth="yes"/>
      <point x="333" y="576"/>
      <point x="384" y="572"/>
      <point x="436" y="562" type="curve"/>
      <point x="453" y="672" type="line"/>
      <point x="395" y="684"/>
      <point x="353" y="689"/>
      <point x="279" y="689" type="curve" smooth="yes"/>
      <point x="103" y="689"/>
      <point x="36" y="609"/>
      <point x="36" y="522" type="curve" smooth="yes"/>
      <point x="36" y="421"/>
      <point x="117" y="364"/>
    </contour>
    <contour>
      <point x="197" y="310" type="line"/>
      <point x="311" y="310" type="line"/>
      <point x="311" y="375" type="line"/>
      <point x="197" y="378" type="line"/>
    </contour>
    <contour>
      <point x="197" y="672" type="line"/>
      <point x="311" y="679" type="line"/>
      <point x="311" y="743" type="line"/>
      <point x="197" y="743" type="line"/>
    </contour>
  </outline>
</glyph>
<glyph name="commasuperior" format="2">
  <advance width="281"/>
  <outline>
    <contour>
      <point x="71" y="414" type="line"/>
      <point x="72" y="402"/>
      <point x="73" y="389"/>
      <point x="73" y="376" type="curve" smooth="yes"/>
      <point x="73" y="333"/>
      <point x="64" y="291"/>
      <point x="31" y="250" type="curve"/>
      <point x="164" y="237" type="line"/>
      <point x="210" y="281"/>
      <point x="234" y="324"/>
      <point x="234" y="372" type="curve" smooth="yes"/>
      <point x="234" y="388"/>
      <point x="231" y="403"/>
      <point x="227" y="415" type="curve"/>
    </contour>
  </outline>
</glyph>
<glyph name="d.superior" format="2">
  <advance width="653"/>
  <outline>
    <contour>
      <point x="199" y="362" type="curve" smooth="yes"/>
      <point x="287" y="362"/>
      <point x="316" y="371"/>
      <point x="368" y="396" type="curve"/>
      <point x="397" y="370" type="line"/>
      <point x="598" y="370" type="line"/>
      <point x="598" y="792" type="line"/>
      <point x="370" y="792" type="line"/>
      <point x="370" y="680" type="line"/>
      <point x="349" y="684"/>
      <point x="302" y="690"/>
      <point x="251" y="690" type="curve" smooth="yes"/>
      <point x="84" y="690"/>
      <point x="16" y="638"/>
      <point x="16" y="529" type="curve" smooth="yes"/>
      <point x="16" y="415"/>
      <point x="103" y="362"/>
    </contour>
    <contour>
      <point x="302" y="492" type="curve" smooth="yes"/>
      <point x="273" y="492"/>
      <point x="249" y="507"/>
      <point x="249" y="538" type="curve" smooth="yes"/>
      <point x="249" y="565"/>
      <point x="268" y="582"/>
      <point x="303" y="582" type="curve" smooth="yes"/>
      <point x="322" y="582"/>
      <point x="353" y="578"/>
      <point x="370" y="573" type="curve"/>
      <point x="370" y="504" type="line"/>
      <point x="351" y="494"/>
      <point x="320" y="492"/>
    </contour>
  </outline>
</glyph>
<glyph name="dcroat.sc" format="2">
  <advance width="1122"/>
  <outline>
    <contour>
      <point x="30" y="217" type="line"/>
      <point x="80" y="217" type="line"/>
      <point x="80" y="0" type="line"/>
      <point x="226" y="-4"/>
      <point x="369" y="-9"/>
      <point x="559" y="-9" type="curve" smooth="yes"/>
      <point x="925" y="-9"/>
      <point x="1065" y="132"/>
      <point x="1065" y="307" type="curve" smooth="yes"/>
      <point x="1065" y="512"/>
      <point x="922" y="634"/>
      <point x="529" y="634" type="curve" smooth="yes"/>
      <point x="356" y="634"/>
      <point x="218" y="631"/>
      <point x="80" y="625" type="curve"/>
      <point x="80" y="413" type="line"/>
      <point x="30" y="413" type="line"/>
    </contour>
    <contour>
      <point x="381" y="181" type="curve"/>
      <point x="381" y="217" type="line"/>
      <point x="559" y="217" type="line"/>
      <point x="559" y="413" type="line"/>
      <point x="381" y="413" type="line"/>
      <point x="381" y="446" type="line"/>
      <point x="407" y="447"/>
      <point x="465" y="449"/>
      <point x="566" y="449" type="curve" smooth="yes"/>
      <point x="676" y="449"/>
      <point x="759" y="397"/>
      <point x="759" y="310" type="curve" smooth="yes"/>
      <point x="759" y="232"/>
      <point x="678" y="177"/>
      <point x="577" y="177" type="curve" smooth="yes"/>
      <point x="483" y="177"/>
      <point x="450" y="180"/>
    </contour>
  </outline>
</glyph>
<glyph name="dividesuperior" format="2">
  <advance width="500"/>
  <outline>
    <contour>
      <point x="179" y="414" type="curve" smooth="yes"/>
      <point x="179" y="381"/>
      <point x="199" y="364"/>
      <point x="250" y="364" type="curve" smooth="yes"/>
      <point x="301" y="364"/>
      <point x="321" y="381"/>
      <point x="321" y="414" type="curve" smooth="yes"/>
      <point x="321" y="448"/>
      <point x="301" y="465"/>
      <point x="250" y="465" type="curve" smooth="yes"/>
      <point x="199" y="465"/>
      <point x="179" y="448"/>
    </contour>
    <contour>
      <point x="179" y="689" type="curve" smooth="yes"/>
      <point x="179" y="657"/>
      <point x="199" y="640"/>
      <point x="250" y="640" type="curve" smooth="yes"/>
      <point x="301" y="640"/>
      <point x="321" y="657"/>
      <point x="321" y="689" type="curve" smooth="yes"/>
      <point x="321" y="723"/>
      <point x="301" y="740"/>
      <point x="250" y="740" type="curve" smooth="yes"/>
      <point x="199" y="740"/>
      <point x="179" y="723"/>
    </contour>
    <contour>
      <point x="61" y="493" type="line"/>
      <point x="439" y="493" type="line"/>
      <point x="439" y="610" type="line"/>
      <point x="61" y="610" type="line"/>
    </contour>
  </outline>
</glyph>
<glyph name="dollar.tosf" format="2">
  <advance width="1050"/>
  <outline>
    <contour>
      <point x="520" y="-9" type="curve" smooth="yes"/>
      <point x="847" y="-9"/>
      <point x="997" y="52"/>
      <point x="997" y="184" type="curve" smooth="yes"/>
      <point x="997" y="292"/>
      <point x="897" y="347"/>
      <point x="673" y="362" type="curve" smooth="yes"/>
      <point x="466" y="376"/>
      <point x="415" y="363"/>
      <point x="415" y="381" type="curve" smooth="yes"/>
      <point x="415" y="392"/>
      <point x="438" y="401"/>
      <point x="524" y="401" type="curve" smooth="yes"/>
      <point x="651" y="401"/>
      <point x="799" y="387"/>
      <point x="888" y="367" type="curve"/>
      <point x="923" y="528" type="line"/>
      <point x="774" y="553"/>
      <point x="708" y="558"/>
      <point x="528" y="558" type="curve" smooth="yes"/>
      <point x="232" y="558"/>
      <point x="90" y="494"/>
      <point x="90" y="360" type="curve" smooth="yes"/>
      <point x="90" y="266"/>
      <point x="173" y="211"/>
      <point x="328" y="194" type="curve" smooth="yes"/>
      <point x="572" y="167"/>
      <point x="664" y="185"/>
      <point x="664" y="163" type="curve" smooth="yes"/>
      <point x="664" y="154"/>
      <point x="638" y="145"/>
      <point x="553" y="145" type="curve" smooth="yes"/>
      <point x="416" y="145"/>
      <point x="244" y="167"/>
      <point x="102" y="202" type="curve"/>
      <point x="60" y="35" type="line"/>
      <point x="198" y="5"/>
      <point x="342" y="-9"/>
    </contour>
    <contour>
      <point x="450" y="-105" type="line"/>
      <point x="651" y="-105" type="line"/>
      <point x="651" y="11" type="line"/>
      <point x="450" y="7" type="line"/>
    </contour>
    <contour>
      <point x="450" y="541" type="line"/>
      <point x="651" y="542" type="line"/>
      <point x="651" y="655" type="line"/>
      <point x="450" y="655" type="line"/>
    </contour>
  </outline>
</glyph>
<glyph name="e.sc" format="2">
  <advance width="988"/>
  <guideline x="715" y="673" angle="90"/>
  <anchor x="957" y="0" name="ogonek"/>
  <anchor x="513" y="625" name="top"/>
  <anchor x="20" y="625" name="topleft"/>
  <anchor x="510" y="0" name="bottom"/>
  <outline>
    <contour>
      <point x="80" y="0" type="line"/>
      <point x="957" y="0" type="line"/>
      <point x="957" y="187" type="line"/>
      <point x="372" y="187" type="line"/>
      <point x="372" y="228" type="line"/>
      <point x="899" y="228" type="line"/>
      <point x="899" y="396" type="line"/>
      <point x="372" y="396" type="line"/>
      <point x="372" y="438" type="line"/>
      <point x="929" y="438" type="line"/>
      <point x="929" y="625" type="line"/>
      <point x="80" y="625" type="line"/>
    </contour>
  </outline>
</glyph>
<glyph name="e.superior" format="2">
  <advance width="604"/>
  <outline>
    <contour>
      <point x="310" y="362" type="curve" smooth="yes"/>
      <point x="402" y="362"/>
      <point x="480" y="370"/>
      <point x="561" y="384" type="curve"/>
      <point x="540" y="489" type="line"/>
      <point x="457" y="476"/>
      <point x="365" y="471"/>
      <point x="326" y="471" type="curve" smooth="yes"/>
      <point x="261" y="471"/>
      <point x="244" y="478"/>
      <point x="240" y="487" type="curve"/>
      <point x="240" y="488"/>
      <point x="238" y="491"/>
      <point x="239" y="491" type="curve" smooth="yes"/>
      <point x="330" y="495"/>
      <point x="480" y="502"/>
      <point x="556" y="507" type="curve"/>
      <point x="559" y="519"/>
      <point x="559" y="528"/>
      <point x="559" y="536" type="curve" smooth="yes"/>
      <point x="559" y="646"/>
      <point x="459" y="690"/>
      <point x="281" y="690" type="curve" smooth="yes"/>
      <point x="133" y="690"/>
      <point x="16" y="638"/>
      <point x="16" y="516" type="curve" smooth="yes"/>
      <point x="16" y="413"/>
      <point x="116" y="362"/>
    </contour>
    <contour>
      <point x="245" y="570" type="curve"/>
      <point x="254" y="587"/>
      <point x="275" y="593"/>
      <point x="302" y="593" type="curve" smooth="yes"/>
      <point x="329" y="593"/>
      <point x="342" y="584"/>
      <point x="351" y="572" type="curve"/>
      <point x="316" y="571"/>
      <point x="280" y="571"/>
    </contour>
  </outline>
</glyph>
<glyph name="eng.sc" format="2">
  <advance width="1038"/>
  <outline>
    <contour>
      <point x="80" y="0" type="line"/>
      <point x="353" y="0" type="line"/>
      <point x="353" y="263" type="line"/>
      <point x="696" y="21" type="line"/>
      <point x="696" y="17" type="line" smooth="yes"/>
      <point x="696" y="-1"/>
      <point x="657" y="-13"/>
      <point x="601" y="-13" type="curve" smooth="yes"/>
      <point x="571" y="-13"/>
      <point x="532" y="-10"/>
      <point x="480" y="-1" type="curve"/>
      <point x="442" y="-184" type="line"/>
      <point x="505" y="-193"/>
      <point x="561" y="-196"/>
      <point x="623" y="-196" type="curve" smooth="yes"/>
      <point x="817" y="-196"/>
      <point x="958" y="-139"/>
      <point x="958" y="-9" type="curve" smooth="yes"/>
      <point x="958" y="625" type="line"/>
      <point x="685" y="625" type="line"/>
      <point x="685" y="342" type="line"/>
      <point x="336" y="625" type="line"/>
      <point x="80" y="625" type="line"/>
    </contour>
  </outline>
</glyph>
<glyph name="eurosuperior" format="2">
  <advance width="600"/>
  <outline>
    <contour>
      <point x="78" y="567" type="curve" smooth="yes"/>
      <point x="78" y="417"/>
      <point x="187" y="364"/>
      <point x="361" y="364" type="curve" smooth="yes"/>
      <point x="440" y="364"/>
      <point x="498" y="372"/>
      <point x="553" y="385" type="curve"/>
      <point x="527" y="488" type="line"/>
      <point x="487" y="484"/>
      <point x="447" y="480"/>
      <point x="410" y="480" type="curve" smooth="yes"/>
      <point x="272" y="480"/>
      <point x="254" y="510"/>
      <point x="254" y="567" type="curve" smooth="yes"/>
      <point x="254" y="638"/>
      <point x="276" y="657"/>
      <point x="414" y="657" type="curve" smooth="yes"/>
      <point x="445" y="657"/>
      <point x="481" y="654"/>
      <point x="519" y="650" type="curve"/>
      <point x="541" y="756" type="line"/>
      <point x="507" y="765"/>
      <point x="463" y="775"/>
      <point x="384" y="775" type="curve" smooth="yes"/>
      <point x="171" y="775"/>
      <point x="78" y="709"/>
    </contour>
    <contour>
      <point x="472" y="576" type="line"/>
      <point x="472" y="629" type="line"/>
      <point x="43" y="629" type="line"/>
      <point x="43" y="576" type="line"/>
    </contour>
    <contour>
      <point x="472" y="507" type="line"/>
      <point x="472" y="561" type="line"/>
      <point x="43" y="561" type="line"/>
      <point x="43" y="507" type="line"/>
    </contour>
  </outline>
</glyph>
<glyph name="exclamdown.case" format="2">
  <advance width="390"/>
  <outline>
    <contour>
      <point x="324" y="440" type="line"/>
      <point x="73" y="440" type="line"/>
      <point x="53" y="0" type="line"/>
      <point x="344" y="0" type="line"/>
    </contour>
    <contour>
      <point x="358" y="596" type="curve" smooth="yes"/>
      <point x="358" y="671"/>
      <point x="313" y="710"/>
      <point x="195" y="710" type="curve" smooth="yes"/>
      <point x="77" y="710"/>
      <point x="32" y="671"/>
      <point x="32" y="596" type="curve" smooth="yes"/>
      <point x="32" y="520"/>
      <point x="77" y="481"/>
      <point x="195" y="481" type="curve" smooth="yes"/>
      <point x="313" y="481"/>
      <point x="358" y="520"/>
    </contour>
  </outline>
</glyph>
<glyph name="f.sc" format="2">
  <advance width="942"/>
  <outline>
    <contour>
      <point x="80" y="0" type="line"/>
      <point x="381" y="0" type="line"/>
      <point x="381" y="151" type="line"/>
      <point x="850" y="151" type="line"/>
      <point x="850" y="348" type="line"/>
      <point x="381" y="348" type="line"/>
      <point x="381" y="419" type="line"/>
      <point x="920" y="419" type="line"/>
      <point x="920" y="625" type="line"/>
      <point x="80" y="625" type="line"/>
    </contour>
  </outline>
</glyph>
<glyph name="f.superior" format="2">
  <advance width="406"/>
  <outline>
    <contour>
      <point x="64" y="370" type="line"/>
      <point x="294" y="370" type="line"/>
      <point x="294" y="498" type="line"/>
      <point x="401" y="498" type="line"/>
      <point x="401" y="613" type="line"/>
      <point x="294" y="613" type="line"/>
      <point x="294" y="624" type="line" smooth="yes"/>
      <point x="294" y="642"/>
      <point x="315" y="651"/>
      <point x="348" y="651" type="curve" smooth="yes"/>
      <point x="387" y="651"/>
      <point x="395" y="648"/>
      <point x="420" y="644" type="curve"/>
      <point x="446" y="769" type="line"/>
      <point x="415" y="781"/>
      <point x="351" y="797"/>
      <point x="271" y="797" type="curve" smooth="yes"/>
      <point x="157" y="797"/>
      <point x="64" y="751"/>
      <point x="64" y="644" type="curve" smooth="yes"/>
      <point x="64" y="623" type="line"/>
      <point x="8" y="610" type="line"/>
      <point x="8" y="507" type="line"/>
      <point x="64" y="507" type="line"/>
    </contour>
  </outline>
</glyph>
<glyph name="f_b.liga" format="2">
  <advance width="1519"/>
  <outline>
    <contour>
      <point x="1058" y="-10" type="curve" smooth="yes"/>
      <point x="1360" y="-10"/>
      <point x="1490" y="77"/>
      <point x="1490" y="279" type="curve" smooth="yes"/>
      <point x="1490" y="456"/>
      <point x="1389" y="560"/>
      <point x="1216" y="560" type="curve" smooth="yes"/>
      <point x="1120" y="560"/>
      <point x="1038" y="539"/>
      <point x="944" y="489" type="curve"/>
      <point x="944" y="710" type="line"/>
      <point x="799" y="736"/>
      <point x="666" y="750"/>
      <point x="558" y="750" type="curve" smooth="yes"/>
      <point x="270" y="750"/>
      <point x="118" y="662"/>
      <point x="118" y="500" type="curve" smooth="yes"/>
      <point x="118" y="484" type="line"/>
      <point x="14" y="464" type="line"/>
      <point x="14" y="305" type="line"/>
      <point x="118" y="305" type="line"/>
      <point x="118" y="0" type="line"/>
      <point x="414" y="0" type="line"/>
      <point x="414" y="305" type="line"/>
      <point x="565" y="305" type="line"/>
      <point x="565" y="484" type="line"/>
      <point x="414" y="484" type="line"/>
      <point x="414" y="503" type="line" smooth="yes"/>
      <point x="414" y="552"/>
      <point x="471" y="564"/>
      <point x="573" y="564" type="curve" smooth="yes"/>
      <point x="595" y="564"/>
      <point x="619" y="563"/>
      <point x="644" y="561" type="curve"/>
      <point x="644" y="23" type="line"/>
      <point x="810" y="1"/>
      <point x="946" y="-10"/>
    </contour>
    <contour>
      <point x="1061" y="171" type="curve" smooth="yes"/>
      <point x="1022" y="171"/>
      <point x="980" y="176"/>
      <point x="944" y="186" type="curve"/>
      <point x="944" y="321" type="line"/>
      <point x="999" y="339"/>
      <point x="1048" y="348"/>
      <point x="1087" y="348" type="curve" smooth="yes"/>
      <point x="1152" y="348"/>
      <point x="1186" y="320"/>
      <point x="1186" y="265" type="curve" smooth="yes"/>
      <point x="1186" y="204"/>
      <point x="1142" y="171"/>
    </contour>
  </outline>
</glyph>
<glyph name="f_f.liga" format="2">
  <advance width="1184"/>
  <outline>
    <contour>
      <point x="118" y="0" type="line"/>
      <point x="414" y="0" type="line"/>
      <point x="414" y="305" type="line"/>
      <point x="645" y="305" type="line"/>
      <point x="645" y="0" type="line"/>
      <point x="941" y="0" type="line"/>
      <point x="941" y="305" type="line"/>
      <point x="1142" y="305" type="line"/>
      <point x="1142" y="474" type="line"/>
      <point x="941" y="474" type="line"/>
      <point x="941" y="494" type="line" smooth="yes"/>
      <point x="941" y="535"/>
      <point x="979" y="553"/>
      <point x="1040" y="553" type="curve" smooth="yes"/>
      <point x="1083" y="553"/>
      <point x="1147" y="545"/>
      <point x="1182" y="536" type="curve"/>
      <point x="1214" y="717" type="line"/>
      <point x="1146" y="738"/>
      <point x="1060" y="750"/>
      <point x="979" y="750" type="curve" smooth="yes"/>
      <point x="881" y="750"/>
      <point x="802" y="731"/>
      <point x="746" y="694" type="curve"/>
      <point x="669" y="726"/>
      <point x="559" y="750"/>
      <point x="453" y="750" type="curve" smooth="yes"/>
      <point x="278" y="750"/>
      <point x="118" y="688"/>
      <point x="118" y="500" type="curve" smooth="yes"/>
      <point x="118" y="484" type="line"/>
      <point x="14" y="464" type="line"/>
      <point x="14" y="305" type="line"/>
      <point x="118" y="305" type="line"/>
    </contour>
    <contour>
      <point x="414" y="464" type="line"/>
      <point x="414" y="498" type="line" smooth="yes"/>
      <point x="414" y="536"/>
      <point x="446" y="558"/>
      <point x="507" y="558" type="curve" smooth="yes"/>
      <point x="549" y="558"/>
      <point x="605" y="554"/>
      <point x="648" y="543" type="curve"/>
      <point x="646" y="529"/>
      <point x="645" y="515"/>
      <point x="645" y="500" type="curve" smooth="yes"/>
      <point x="645" y="464" type="line"/>
    </contour>
  </outline>
</glyph>
<glyph name="f_f_j.liga" format="2">
  <advance width="1523"/>
  <outline>
    <contour>
      <point x="1415" y="528" type="curve"/>
      <point x="1471" y="710" type="line"/>
      <point x="1347" y="735"/>
      <point x="1200" y="750"/>
      <point x="1085" y="750" type="curve" smooth="yes"/>
      <point x="944" y="750"/>
      <point x="835" y="729"/>
      <point x="761" y="688" type="curve"/>
      <point x="684" y="723"/>
      <point x="567" y="750"/>
      <point x="453" y="750" type="curve" smooth="yes"/>
      <point x="278" y="750"/>
      <point x="118" y="688"/>
      <point x="118" y="500" type="curve" smooth="yes"/>
      <point x="118" y="484" type="line"/>
      <point x="14" y="464" type="line"/>
      <point x="14" y="305" type="line"/>
      <point x="118" y="305" type="line"/>
      <point x="118" y="0" type="line"/>
      <point x="414" y="0" type="line"/>
      <point x="414" y="305" type="line"/>
      <point x="645" y="305" type="line"/>
      <point x="645" y="0" type="line"/>
      <point x="941" y="0" type="line"/>
      <point x="941" y="305" type="line"/>
      <point x="1149" y="305" type="line"/>
      <point x="1149" y="85" type="line" smooth="yes"/>
      <point x="1149" y="13"/>
      <point x="1120" y="-9"/>
      <point x="1052" y="-9" type="curve" smooth="yes"/>
      <point x="1047" y="-9"/>
      <point x="1042" y="-9"/>
      <point x="1037" y="-9" type="curve"/>
      <point x="1027" y="-215" type="line"/>
      <point x="1057" y="-217"/>
      <point x="1114" y="-220"/>
      <point x="1143" y="-220" type="curve" smooth="yes"/>
      <point x="1358" y="-220"/>
      <point x="1449" y="-114"/>
      <point x="1449" y="78" type="curve" smooth="yes"/>
      <point x="1449" y="484" type="line"/>
      <point x="941" y="484" type="line"/>
      <point x="941" y="493" type="line" smooth="yes"/>
      <point x="941" y="535"/>
      <point x="1005" y="557"/>
      <point x="1127" y="557" type="curve" smooth="yes"/>
      <point x="1211" y="557"/>
      <point x="1357" y="542"/>
    </contour>
    <contour>
      <point x="645" y="500" type="curve" smooth="yes"/>
      <point x="645" y="464" type="line"/>
      <point x="414" y="464" type="line"/>
      <point x="414" y="498" type="line" smooth="yes"/>
      <point x="414" y="536"/>
      <point x="446" y="558"/>
      <point x="507" y="558" type="curve" smooth="yes"/>
      <point x="549" y="558"/>
      <point x="606" y="554"/>
      <point x="649" y="543" type="curve"/>
      <point x="646" y="529"/>
      <point x="645" y="515"/>
    </contour>
  </outline>
</glyph>
<glyph name="f_f_l.liga" format="2">
  <advance width="1637"/>
  <outline>
    <contour>
      <point x="1432" y="-10" type="curve" smooth="yes"/>
      <point x="1515" y="-10"/>
      <point x="1580" y="4"/>
      <point x="1641" y="25" type="curve"/>
      <point x="1607" y="220" type="line"/>
      <point x="1570" y="211"/>
      <point x="1544" y="206"/>
      <point x="1523" y="206" type="curve" smooth="yes"/>
      <point x="1482" y="206"/>
      <point x="1461" y="215"/>
      <point x="1461" y="258" type="curve" smooth="yes"/>
      <point x="1461" y="710" type="line"/>
      <point x="1320" y="736"/>
      <point x="1190" y="750"/>
      <point x="1085" y="750" type="curve" smooth="yes"/>
      <point x="944" y="750"/>
      <point x="835" y="729"/>
      <point x="761" y="688" type="curve"/>
      <point x="684" y="723"/>
      <point x="567" y="750"/>
      <point x="453" y="750" type="curve" smooth="yes"/>
      <point x="278" y="750"/>
      <point x="118" y="688"/>
      <point x="118" y="500" type="curve" smooth="yes"/>
      <point x="118" y="484" type="line"/>
      <point x="14" y="464" type="line"/>
      <point x="14" y="305" type="line"/>
      <point x="118" y="305" type="line"/>
      <point x="118" y="0" type="line"/>
      <point x="414" y="0" type="line"/>
      <point x="414" y="305" type="line"/>
      <point x="645" y="305" type="line"/>
      <point x="645" y="0" type="line"/>
      <point x="941" y="0" type="line"/>
      <point x="941" y="305" type="line"/>
      <point x="1092" y="305" type="line"/>
      <point x="1092" y="484" type="line"/>
      <point x="941" y="484" type="line"/>
      <point x="941" y="503" type="line" smooth="yes"/>
      <point x="941" y="552"/>
      <point x="998" y="564"/>
      <point x="1100" y="564" type="curve" smooth="yes"/>
      <point x="1119" y="564"/>
      <point x="1140" y="563"/>
      <point x="1161" y="561" type="curve"/>
      <point x="1161" y="244" type="line" smooth="yes"/>
      <point x="1161" y="55"/>
      <point x="1251" y="-10"/>
    </contour>
    <contour>
      <point x="414" y="464" type="line"/>
      <point x="414" y="498" type="line" smooth="yes"/>
      <point x="414" y="536"/>
      <point x="446" y="558"/>
      <point x="507" y="558" type="curve" smooth="yes"/>
      <point x="549" y="558"/>
      <point x="606" y="554"/>
      <point x="649" y="543" type="curve"/>
      <point x="646" y="529"/>
      <point x="645" y="515"/>
      <point x="645" y="500" type="curve" smooth="yes"/>
      <point x="645" y="464" type="line"/>
    </contour>
  </outline>
</glyph>
<glyph name="f_f_t.liga" format="2">
  <advance width="1665"/>
  <outline>
    <contour>
      <point x="118" y="0" type="line"/>
      <point x="414" y="0" type="line"/>
      <point x="414" y="331" type="line"/>
      <point x="645" y="331" type="line"/>
      <point x="645" y="0" type="line"/>
      <point x="941" y="0" type="line"/>
      <point x="941" y="331" type="line"/>
      <point x="1131" y="331" type="line"/>
      <point x="1131" y="247" type="line" smooth="yes"/>
      <point x="1137" y="48"/>
      <point x="1235" y="-10"/>
      <point x="1387" y="-10" type="curve" smooth="yes"/>
      <point x="1480" y="-10"/>
      <point x="1552" y="3"/>
      <point x="1642" y="22" type="curve"/>
      <point x="1608" y="227" type="line"/>
      <point x="1550" y="217"/>
      <point x="1518" y="210"/>
      <point x="1489" y="210" type="curve" smooth="yes"/>
      <point x="1447" y="210"/>
      <point x="1431" y="224"/>
      <point x="1431" y="261" type="curve" smooth="yes"/>
      <point x="1431" y="331" type="line"/>
      <point x="1612" y="331" type="line"/>
      <point x="1612" y="510" type="line"/>
      <point x="1431" y="510" type="line"/>
      <point x="1431" y="710" type="line"/>
      <point x="1341" y="729"/>
      <point x="1204" y="750"/>
      <point x="1066" y="750" type="curve" smooth="yes"/>
      <point x="964" y="750"/>
      <point x="845" y="734"/>
      <point x="761" y="688" type="curve"/>
      <point x="683" y="723"/>
      <point x="566" y="750"/>
      <point x="453" y="750" type="curve" smooth="yes"/>
      <point x="278" y="750"/>
      <point x="118" y="688"/>
      <point x="118" y="500" type="curve" smooth="yes"/>
      <point x="118" y="490" type="line"/>
      <point x="14" y="470" type="line"/>
      <point x="14" y="331" type="line"/>
      <point x="118" y="331" type="line"/>
    </contour>
    <contour>
      <point x="941" y="490" type="line"/>
      <point x="941" y="503" type="line" smooth="yes"/>
      <point x="941" y="550"/>
      <point x="988" y="567"/>
      <point x="1051" y="567" type="curve" smooth="yes"/>
      <point x="1075" y="567"/>
      <point x="1103" y="565"/>
      <point x="1131" y="561" type="curve"/>
      <point x="1131" y="490" type="line"/>
    </contour>
    <contour>
      <point x="414" y="490" type="line"/>
      <point x="414" y="498" type="line" smooth="yes"/>
      <point x="414" y="542"/>
      <point x="446" y="568"/>
      <point x="507" y="568" type="curve" smooth="yes"/>
      <point x="550" y="568"/>
      <point x="607" y="564"/>
      <point x="651" y="553" type="curve"/>
      <point x="647" y="536"/>
      <point x="645" y="519"/>
      <point x="645" y="500" type="curve" smooth="yes"/>
      <point x="645" y="490" type="line"/>
    </contour>
  </outline>
</glyph>
<glyph name="g.sc" format="2">
  <advance width="1079"/>
  <anchor x="558" y="625" name="top"/>
  <anchor x="579" y="0" name="bottom"/>
  <outline>
    <contour>
      <point x="57" y="302" type="curve" smooth="yes"/>
      <point x="57" y="88"/>
      <point x="219" y="-9"/>
      <point x="554" y="-9" type="curve" smooth="yes"/>
      <point x="738" y="-9"/>
      <point x="887" y="12"/>
      <point x="1011" y="52" type="curve"/>
      <point x="1011" y="393" type="line"/>
      <point x="588" y="393" type="line"/>
      <point x="588" y="226" type="line"/>
      <point x="747" y="226" type="line"/>
      <point x="747" y="185" type="line"/>
      <point x="725" y="180"/>
      <point x="670" y="177"/>
      <point x="614" y="177" type="curve" smooth="yes"/>
      <point x="449" y="177"/>
      <point x="367" y="219"/>
      <point x="367" y="302" type="curve" smooth="yes"/>
      <point x="367" y="392"/>
      <point x="437" y="432"/>
      <point x="620" y="432" type="curve" smooth="yes"/>
      <point x="697" y="432"/>
      <point x="799" y="425"/>
      <point x="919" y="409" type="curve"/>
      <point x="975" y="598" type="line"/>
      <point x="843" y="627"/>
      <point x="761" y="634"/>
      <point x="606" y="634" type="curve" smooth="yes"/>
      <point x="236" y="634"/>
      <point x="57" y="523"/>
    </contour>
  </outline>
</glyph>
<glyph name="i.superior" format="2">
  <advance width="324"/>
  <outline>
    <contour>
      <point x="161" y="700" type="curve" smooth="yes"/>
      <point x="245" y="700"/>
      <point x="289" y="715"/>
      <point x="289" y="770" type="curve" smooth="yes"/>
      <point x="289" y="828"/>
      <point x="246" y="844"/>
      <point x="164" y="844" type="curve" smooth="yes"/>
      <point x="80" y="844"/>
      <point x="35" y="828"/>
      <point x="35" y="770" type="curve" smooth="yes"/>
      <point x="35" y="725"/>
      <point x="79" y="700"/>
    </contour>
    <contour>
      <point x="47" y="370" type="line"/>
      <point x="277" y="370" type="line"/>
      <point x="277" y="683" type="line"/>
      <point x="47" y="683" type="line"/>
    </contour>
  </outline>
</glyph>
<glyph name="k.sc" format="2">
  <advance width="1040"/>
  <anchor x="520" y="625" name="top"/>
  <anchor x="528" y="0" name="bottom"/>
  <outline>
    <contour>
      <point x="975" y="-9" type="curve" smooth="yes"/>
      <point x="985" y="-9"/>
      <point x="996" y="-8"/>
      <point x="1008" y="-7" type="curve"/>
      <point x="1008" y="236" type="line"/>
      <point x="996" y="235"/>
      <point x="984" y="235"/>
      <point x="976" y="235" type="curve" smooth="yes"/>
      <point x="900" y="235"/>
      <point x="817" y="251"/>
      <point x="712" y="293" type="curve" smooth="yes"/>
      <point x="380" y="426" type="line"/>
      <point x="380" y="625" type="line"/>
      <point x="80" y="625" type="line"/>
      <point x="80" y="0" type="line"/>
      <point x="380" y="0" type="line"/>
      <point x="380" y="180" type="line"/>
      <point x="689" y="41" type="line" smooth="yes"/>
      <point x="784" y="-2"/>
      <point x="895" y="-9"/>
    </contour>
    <contour>
      <point x="584" y="281" type="line"/>
      <point x="791" y="326"/>
      <point x="916" y="406"/>
      <point x="999" y="486" type="curve"/>
      <point x="788" y="644" type="line"/>
      <point x="664" y="527"/>
      <point x="527" y="437"/>
      <point x="372" y="370" type="curve"/>
    </contour>
  </outline>
</glyph>
<glyph name="k.superior" format="2">
  <advance width="645"/>
  <outline>
    <contour>
      <point x="285" y="792" type="line"/>
      <point x="55" y="792" type="line"/>
      <point x="55" y="370" type="line"/>
      <point x="285" y="370" type="line"/>
      <point x="285" y="458" type="line"/>
      <point x="437" y="383"/>
      <point x="493" y="362"/>
      <point x="555" y="362" type="curve" smooth="yes"/>
      <point x="598" y="362"/>
      <point x="616" y="371"/>
      <point x="621" y="374" type="curve"/>
      <point x="621" y="521" type="line"/>
      <point x="610" y="520"/>
      <point x="595" y="520"/>
      <point x="588" y="520" type="curve" smooth="yes"/>
      <point x="565" y="520"/>
      <point x="521" y="529"/>
      <point x="477" y="547" type="curve"/>
      <point x="527" y="580"/>
      <point x="599" y="626"/>
      <point x="620" y="674" type="curve"/>
      <point x="364" y="690" type="line"/>
      <point x="358" y="677"/>
      <point x="330" y="646"/>
      <point x="296" y="611" type="curve"/>
      <point x="285" y="613" type="line"/>
    </contour>
  </outline>
</glyph>
<glyph name="l.sc" format="2">
  <advance width="928"/>
  <anchor x="464" y="275" name="center"/>
  <anchor x="227" y="625" name="top"/>
  <anchor x="551" y="625" name="topright"/>
  <anchor x="463" y="0" name="bottom"/>
  <outline>
    <contour>
      <point x="80" y="0" type="line"/>
      <point x="899" y="0" type="line"/>
      <point x="899" y="225" type="line"/>
      <point x="381" y="225" type="line"/>
      <point x="381" y="625" type="line"/>
      <point x="80" y="625" type="line"/>
    </contour>
  </outline>
</glyph>
<glyph name="lslash.sc" format="2">
  <advance width="918"/>
  <outline>
    <contour>
      <point x="0" y="173" type="line"/>
      <point x="80" y="194" type="line"/>
      <point x="80" y="0" type="line"/>
      <point x="898" y="0" type="line"/>
      <point x="898" y="214" type="line"/>
      <point x="390" y="214" type="line"/>
      <point x="390" y="275" type="line"/>
      <point x="738" y="366" type="line"/>
      <point x="738" y="545" type="line"/>
      <point x="390" y="454" type="line"/>
      <point x="390" y="625" type="line"/>
      <point x="80" y="625" type="line"/>
      <point x="80" y="373" type="line"/>
      <point x="0" y="352" type="line"/>
    </contour>
  </outline>
</glyph>
<glyph name="m.superior" format="2">
  <advance width="912"/>
  <outline>
    <contour>
      <point x="55" y="370" type="line"/>
      <point x="285" y="370" type="line"/>
      <point x="285" y="555" type="line"/>
      <point x="296" y="557"/>
      <point x="309" y="558"/>
      <point x="314" y="558" type="curve" smooth="yes"/>
      <point x="330" y="558"/>
      <point x="345" y="549"/>
      <point x="345" y="519" type="curve" smooth="yes"/>
      <point x="345" y="370" type="line"/>
      <point x="575" y="370" type="line"/>
      <point x="575" y="530" type="line" smooth="yes"/>
      <point x="575" y="535"/>
      <point x="575" y="556"/>
      <point x="576" y="554" type="curve"/>
      <point x="591" y="558"/>
      <point x="602" y="558"/>
      <point x="606" y="558" type="curve" smooth="yes"/>
      <point x="621" y="558"/>
      <point x="637" y="552"/>
      <point x="637" y="517" type="curve" smooth="yes"/>
      <point x="637" y="370" type="line"/>
      <point x="867" y="370" type="line"/>
      <point x="867" y="576" type="line" smooth="yes"/>
      <point x="867" y="661"/>
      <point x="786" y="691"/>
      <point x="705" y="691" type="curve" smooth="yes"/>
      <point x="650" y="691"/>
      <point x="604" y="686"/>
      <point x="535" y="654" type="curve"/>
      <point x="501" y="681"/>
      <point x="459" y="691"/>
      <point x="419" y="691" type="curve" smooth="yes"/>
      <point x="350" y="691"/>
      <point x="313" y="681"/>
      <point x="261" y="654" type="curve"/>
      <point x="261" y="683" type="line"/>
      <point x="55" y="683" type="line"/>
    </contour>
  </outline>
</glyph>
<glyph name="o.sc" format="2">
  <advance width="1142"/>
  <anchor x="571" y="275" name="center"/>
  <anchor x="701" y="0" name="ogonek"/>
  <anchor x="571" y="625" name="top"/>
  <anchor x="902" y="620" name="topright"/>
  <anchor x="210" y="625" name="topleft"/>
  <anchor x="572" y="0" name="bottom"/>
  <outline>
    <contour>
      <point x="572" y="177" type="curve" smooth="yes"/>
      <point x="438" y="177"/>
      <point x="363" y="225"/>
      <point x="363" y="314" type="curve" smooth="yes"/>
      <point x="363" y="399"/>
      <point x="434" y="448"/>
      <point x="572" y="448" type="curve" smooth="yes"/>
      <point x="717" y="448"/>
      <point x="779" y="389"/>
      <point x="779" y="314" type="curve" smooth="yes"/>
      <point x="779" y="237"/>
      <point x="715" y="177"/>
    </contour>
    <contour>
      <point x="572" y="-9" type="curve" smooth="yes"/>
      <point x="926" y="-9"/>
      <point x="1085" y="106"/>
      <point x="1085" y="316" type="curve" smooth="yes"/>
      <point x="1085" y="513"/>
      <point x="947" y="634"/>
      <point x="572" y="634" type="curve" smooth="yes"/>
      <point x="195" y="634"/>
      <point x="57" y="513"/>
      <point x="57" y="316" type="curve" smooth="yes"/>
      <point x="57" y="105"/>
      <point x="217" y="-9"/>
    </contour>
  </outline>
</glyph>
<glyph name="oe.sc" format="2">
  <advance width="1608"/>
  <outline>
    <contour>
      <point x="1577" y="0" type="line"/>
      <point x="1577" y="187" type="line"/>
      <point x="1021" y="187" type="line"/>
      <point x="1021" y="230" type="line"/>
      <point x="1519" y="230" type="line"/>
      <point x="1519" y="396" type="line"/>
      <point x="1021" y="396" type="line"/>
      <point x="1021" y="438" type="line"/>
      <point x="1549" y="438" type="line"/>
      <point x="1549" y="625" type="line"/>
      <point x="1021" y="625" type="line"/>
      <point x="895" y="629"/>
      <point x="759" y="634"/>
      <point x="563" y="634" type="curve" smooth="yes"/>
      <point x="197" y="634"/>
      <point x="57" y="493"/>
      <point x="57" y="318" type="curve" smooth="yes"/>
      <point x="57" y="114"/>
      <point x="198" y="-9"/>
      <point x="593" y="-9" type="curve" smooth="yes"/>
      <point x="804" y="-9"/>
      <point x="913" y="-5"/>
      <point x="1021" y="0" type="curve"/>
    </contour>
    <contour>
      <point x="740" y="180" type="line"/>
      <point x="708" y="178"/>
      <point x="655" y="176"/>
      <point x="555" y="176" type="curve" smooth="yes"/>
      <point x="446" y="176"/>
      <point x="363" y="228"/>
      <point x="363" y="315" type="curve" smooth="yes"/>
      <point x="363" y="393"/>
      <point x="444" y="448"/>
      <point x="544" y="448" type="curve" smooth="yes"/>
      <point x="621" y="448"/>
      <point x="671" y="446"/>
      <point x="740" y="444" type="curve"/>
    </contour>
  </outline>
</glyph>
<glyph name="one.lf" format="2">
  <advance width="660"/>
  <outline>
    <contour>
      <point x="596" y="0" type="line"/>
      <point x="596" y="700" type="line"/>
      <point x="444" y="700" type="line"/>
      <point x="-2" y="541" type="line"/>
      <point x="78" y="314" type="line"/>
      <point x="281" y="386" type="line"/>
      <point x="281" y="0" type="line"/>
    </contour>
  </outline>
</glyph>
<glyph name="one.tosf" format="2">
  <advance width="1050"/>
  <outline>
    <contour>
      <point x="143" y="0" type="line"/>
      <point x="908" y="0" type="line"/>
      <point x="908" y="210" type="line"/>
      <point x="683" y="210" type="line"/>
      <point x="683" y="339" type="line"/>
      <point x="903" y="339" type="line"/>
      <point x="903" y="550" type="line"/>
      <point x="148" y="550" type="line"/>
      <point x="148" y="339" type="line"/>
      <point x="368" y="339" type="line"/>
      <point x="368" y="210" type="line"/>
      <point x="143" y="210" type="line"/>
    </contour>
  </outline>
</glyph>
<glyph name="oslash.sc" format="2">
  <advance width="1142"/>
  <anchor x="571" y="625" name="top"/>
  <anchor x="571" y="0" name="bottom"/>
  <outline>
    <contour>
      <point x="274" y="-18" type="line"/>
      <point x="1094" y="643" type="line"/>
      <point x="875" y="643" type="line"/>
      <point x="47" y="-18" type="line"/>
    </contour>
    <contour>
      <point x="572" y="167" type="curve" smooth="yes"/>
      <point x="431" y="167"/>
      <point x="352" y="219"/>
      <point x="352" y="314" type="curve" smooth="yes"/>
      <point x="352" y="407"/>
      <point x="431" y="458"/>
      <point x="572" y="458" type="curve" smooth="yes"/>
      <point x="707" y="458"/>
      <point x="789" y="405"/>
      <point x="789" y="314" type="curve" smooth="yes"/>
      <point x="789" y="223"/>
      <point x="707" y="167"/>
    </contour>
    <contour>
      <point x="572" y="-9" type="curve" smooth="yes"/>
      <point x="925" y="-9"/>
      <point x="1085" y="106"/>
      <point x="1085" y="316" type="curve" smooth="yes"/>
      <point x="1085" y="512"/>
      <point x="947" y="634"/>
      <point x="572" y="634" type="curve" smooth="yes"/>
      <point x="195" y="634"/>
      <point x="56" y="513"/>
      <point x="56" y="316" type="curve" smooth="yes"/>
      <point x="56" y="105"/>
      <point x="216" y="-9"/>
    </contour>
  </outline>
</glyph>
<glyph name="p.sc" format="2">
  <advance width="1102"/>
  <outline>
    <contour>
      <point x="80" y="0" type="line"/>
      <point x="381" y="0" type="line"/>
      <point x="381" y="145" type="line"/>
      <point x="536" y="142"/>
      <point x="475" y="142"/>
      <point x="636" y="142" type="curve" smooth="yes"/>
      <point x="968" y="142"/>
      <point x="1064" y="211"/>
      <point x="1064" y="389" type="curve" smooth="yes"/>
      <point x="1064" y="577"/>
      <point x="969" y="634"/>
      <point x="552" y="634" type="curve" smooth="yes"/>
      <point x="485" y="634"/>
      <point x="307" y="631"/>
      <point x="80" y="625" type="curve"/>
    </contour>
    <contour>
      <point x="381" y="439" type="line"/>
      <point x="491" y="442"/>
      <point x="503" y="442"/>
      <point x="577" y="442" type="curve" smooth="yes"/>
      <point x="721" y="442"/>
      <point x="756" y="422"/>
      <point x="756" y="388" type="curve" smooth="yes"/>
      <point x="756" y="352"/>
      <point x="740" y="336"/>
      <point x="503" y="336" type="curve" smooth="yes"/>
      <point x="475" y="336"/>
      <point x="449" y="337"/>
      <point x="381" y="341" type="curve"/>
    </contour>
  </outline>
</glyph>
<glyph name="parenright.sc" format="2">
  <advance width="500"/>
  <outline>
    <contour>
      <point x="38" y="32" type="curve"/>
      <point x="38" y="-117" type="line"/>
      <point x="343" y="-96"/>
      <point x="462" y="104"/>
      <point x="462" y="312" type="curve" smooth="yes"/>
      <point x="462" y="521"/>
      <point x="343" y="721"/>
      <point x="38" y="742" type="curve"/>
      <point x="38" y="593" type="line"/>
      <point x="185" y="555"/>
      <point x="220" y="470"/>
      <point x="220" y="312" type="curve" smooth="yes"/>
      <point x="220" y="155"/>
      <point x="185" y="70"/>
    </contour>
  </outline>
</glyph>
<glyph name="periodsuperior" format="2">
  <advance width="286"/>
  <outline>
    <contour>
      <point x="50" y="429" type="curve" smooth="yes"/>
      <point x="50" y="386"/>
      <point x="76" y="364"/>
      <point x="143" y="364" type="curve" smooth="yes"/>
      <point x="210" y="364"/>
      <point x="236" y="386"/>
      <point x="236" y="429" type="curve" smooth="yes"/>
      <point x="236" y="472"/>
      <point x="210" y="494"/>
      <point x="143" y="494" type="curve" smooth="yes"/>
      <point x="76" y="494"/>
      <point x="50" y="472"/>
    </contour>
  </outline>
</glyph>
<glyph name="questiondown.case" format="2">
  <advance width="777"/>
  <outline>
    <contour>
      <point x="544" y="440" type="line"/>
      <point x="293" y="440" type="line"/>
      <point x="291" y="396" type="line"/>
      <point x="95" y="362"/>
      <point x="35" y="298"/>
      <point x="35" y="184" type="curve" smooth="yes"/>
      <point x="35" y="23"/>
      <point x="211" y="-10"/>
      <point x="388" y="-10" type="curve" smooth="yes"/>
      <point x="499" y="-10"/>
      <point x="660" y="27"/>
      <point x="752" y="80" type="curve"/>
      <point x="685" y="275" type="line"/>
      <point x="596" y="237"/>
      <point x="510" y="208"/>
      <point x="439" y="208" type="curve" smooth="yes"/>
      <point x="376" y="208"/>
      <point x="347" y="215"/>
      <point x="347" y="237" type="curve" smooth="yes"/>
      <point x="347" y="259"/>
      <point x="355" y="272"/>
      <point x="551" y="305" type="curve"/>
    </contour>
    <contour>
      <point x="583" y="596" type="curve" smooth="yes"/>
      <point x="583" y="671"/>
      <point x="538" y="710"/>
      <point x="420" y="710" type="curve" smooth="yes"/>
      <point x="302" y="710"/>
      <point x="257" y="671"/>
      <point x="257" y="596" type="curve" smooth="yes"/>
      <point x="257" y="520"/>
      <point x="302" y="481"/>
      <point x="420" y="481" type="curve" smooth="yes"/>
      <point x="538" y="481"/>
      <point x="583" y="520"/>
    </contour>
  </outline>
</glyph>
<glyph name="r.sc" format="2">
  <advance width="1133"/>
  <anchor x="528" y="625" name="top"/>
  <anchor x="558" y="0" name="bottom"/>
  <outline>
    <contour>
      <point x="1039" y="-9" type="curve" smooth="yes"/>
      <point x="1050" y="-9"/>
      <point x="1065" y="-8"/>
      <point x="1074" y="-7" type="curve"/>
      <point x="1074" y="229" type="line"/>
      <point x="1066" y="229"/>
      <point x="1057" y="228"/>
      <point x="1048" y="228" type="curve" smooth="yes"/>
      <point x="993" y="228"/>
      <point x="908" y="239"/>
      <point x="821" y="250" type="curve"/>
      <point x="944" y="269"/>
      <point x="1046" y="305"/>
      <point x="1046" y="432" type="curve" smooth="yes"/>
      <point x="1046" y="571"/>
      <point x="928" y="634"/>
      <point x="546" y="634" type="curve" smooth="yes"/>
      <point x="480" y="634"/>
      <point x="305" y="631"/>
      <point x="80" y="625" type="curve"/>
      <point x="80" y="0" type="line"/>
      <point x="381" y="0" type="line"/>
      <point x="381" y="178" type="line"/>
      <point x="393" y="178"/>
      <point x="404" y="178"/>
      <point x="416" y="178" type="curve"/>
      <point x="428" y="178"/>
      <point x="440" y="178"/>
      <point x="452" y="178" type="curve"/>
      <point x="646" y="93"/>
      <point x="858" y="-9"/>
    </contour>
    <contour>
      <point x="572" y="345" type="curve" smooth="yes"/>
      <point x="467" y="345"/>
      <point x="445" y="345"/>
      <point x="381" y="349" type="curve"/>
      <point x="381" y="450" type="line"/>
      <point x="483" y="454"/>
      <point x="495" y="454"/>
      <point x="566" y="454" type="curve" smooth="yes"/>
      <point x="702" y="454"/>
      <point x="736" y="437"/>
      <point x="736" y="403" type="curve" smooth="yes"/>
      <point x="736" y="368"/>
      <point x="691" y="345"/>
    </contour>
  </outline>
</glyph>
<glyph name="s.sc" format="2">
  <advance width="1042"/>
  <anchor x="519" y="625" name="top"/>
  <anchor x="519" y="0" name="bottom"/>
  <outline>
    <contour>
      <point x="944" y="599" type="line"/>
      <point x="841" y="617"/>
      <point x="717" y="634"/>
      <point x="542" y="634" type="curve" smooth="yes"/>
      <point x="215" y="634"/>
      <point x="61" y="576"/>
      <point x="61" y="410" type="curve" smooth="yes"/>
      <point x="61" y="297"/>
      <point x="149" y="233"/>
      <point x="314" y="218" type="curve" smooth="yes"/>
      <point x="578" y="194"/>
      <point x="675" y="200"/>
      <point x="675" y="174" type="curve" smooth="yes"/>
      <point x="675" y="164"/>
      <point x="658" y="162"/>
      <point x="544" y="162" type="curve" smooth="yes"/>
      <point x="388" y="162"/>
      <point x="215" y="186"/>
      <point x="79" y="225" type="curve"/>
      <point x="28" y="41" type="line"/>
      <point x="157" y="10"/>
      <point x="334" y="-9"/>
      <point x="499" y="-9" type="curve" smooth="yes"/>
      <point x="817" y="-9"/>
      <point x="1010" y="44"/>
      <point x="1010" y="212" type="curve" smooth="yes"/>
      <point x="1010" y="339"/>
      <point x="903" y="398"/>
      <point x="665" y="412" type="curve" smooth="yes"/>
      <point x="451" y="425"/>
      <point x="393" y="414"/>
      <point x="393" y="436" type="curve" smooth="yes"/>
      <point x="393" y="448"/>
      <point x="413" y="456"/>
      <point x="515" y="456" type="curve" smooth="yes"/>
      <point x="656" y="456"/>
      <point x="810" y="437"/>
      <point x="897" y="414" type="curve"/>
    </contour>
  </outline>
</glyph>
<glyph name="t.sc" format="2">
  <advance width="1030"/>
  <anchor x="515" y="275" name="center"/>
  <anchor x="515" y="0" name="bottom"/>
  <anchor x="515" y="625" name="top"/>
  <outline>
    <contour>
      <point x="1000" y="400" type="line"/>
      <point x="1000" y="625" type="line"/>
      <point x="30" y="625" type="line"/>
      <point x="30" y="400" type="line"/>
      <point x="364" y="400" type="line"/>
      <point x="364" y="0" type="line"/>
      <point x="665" y="0" type="line"/>
      <point x="665" y="400" type="line"/>
    </contour>
  </outline>
</glyph>
<glyph name="t.superior" format="2">
  <advance width="478"/>
  <outline>
    <contour>
      <point x="325" y="569" type="line"/>
      <point x="431" y="569" type="line"/>
      <point x="431" y="683" type="line"/>
      <point x="325" y="683" type="line"/>
      <point x="325" y="750" type="line"/>
      <point x="114" y="750" type="line"/>
      <point x="95" y="683" type="line"/>
      <point x="25" y="671" type="line"/>
      <point x="25" y="569" type="line"/>
      <point x="95" y="569" type="line"/>
      <point x="95" y="506" type="line" smooth="yes"/>
      <point x="95" y="388"/>
      <point x="163" y="362"/>
      <point x="272" y="362" type="curve" smooth="yes"/>
      <point x="373" y="362"/>
      <point x="406" y="371"/>
      <point x="458" y="381" type="curve"/>
      <point x="437" y="510" type="line"/>
      <point x="437" y="510"/>
      <point x="401" y="504"/>
      <point x="377" y="504" type="curve" smooth="yes"/>
      <point x="337" y="504"/>
      <point x="325" y="510"/>
      <point x="325" y="527" type="curve" smooth="yes"/>
    </contour>
  </outline>
</glyph>
<glyph name="two.tosf" format="2">
  <advance width="1050"/>
  <outline>
    <contour>
      <point x="78" y="0" type="line"/>
      <point x="978" y="0" type="line"/>
      <point x="978" y="210" type="line"/>
      <point x="633" y="210" type="line"/>
      <point x="783" y="252"/>
      <point x="861" y="301"/>
      <point x="861" y="388" type="curve" smooth="yes"/>
      <point x="861" y="502"/>
      <point x="739" y="560"/>
      <point x="499" y="560" type="curve" smooth="yes"/>
      <point x="354" y="560"/>
      <point x="187" y="538"/>
      <point x="77" y="500" type="curve"/>
      <point x="126" y="291" type="line"/>
      <point x="237" y="324"/>
      <point x="321" y="338"/>
      <point x="425" y="338" type="curve" smooth="yes"/>
      <point x="481" y="338"/>
      <point x="506" y="328"/>
      <point x="506" y="307" type="curve" smooth="yes"/>
      <point x="506" y="273"/>
      <point x="413" y="241"/>
      <point x="73" y="154" type="curve"/>
    </contour>
  </outline>
</glyph>
<glyph name="u.superior" format="2">
  <advance width="684"/>
  <outline>
    <contour>
      <point x="222" y="362" type="curve" smooth="yes"/>
      <point x="275" y="362"/>
      <point x="326" y="377"/>
      <point x="376" y="398" type="curve"/>
      <point x="403" y="378"/>
      <point x="443" y="362"/>
      <point x="501" y="362" type="curve" smooth="yes"/>
      <point x="547" y="362"/>
      <point x="613" y="373"/>
      <point x="644" y="391" type="curve"/>
      <point x="625" y="509" type="line"/>
      <point x="619" y="507"/>
      <point x="601" y="506"/>
      <point x="596" y="506" type="curve" smooth="yes"/>
      <point x="588" y="506"/>
      <point x="582" y="512"/>
      <point x="582" y="524" type="curve" smooth="yes"/>
      <point x="582" y="683" type="line"/>
      <point x="352" y="683" type="line"/>
      <point x="352" y="509" type="line"/>
      <point x="352" y="509"/>
      <point x="341" y="499"/>
      <point x="309" y="499" type="curve" smooth="yes"/>
      <point x="293" y="499"/>
      <point x="275" y="507"/>
      <point x="275" y="550" type="curve" smooth="yes"/>
      <point x="275" y="683" type="line"/>
      <point x="45" y="683" type="line"/>
      <point x="45" y="506" type="line" smooth="yes"/>
      <point x="45" y="415"/>
      <point x="95" y="362"/>
    </contour>
  </outline>
</glyph>
<glyph name="uni0302.case" format="2">
  <anchor x="-586" y="940" name="top"/>
  <anchor x="-586" y="700" name="_top"/>
  <anchor x="-221" y="806" name="top_viet"/>
  <outline>
    <contour>
      <point x="-888" y="746" type="line"/>
      <point x="-663" y="746" type="line"/>
      <point x="-587" y="834" type="line"/>
      <point x="-510" y="746" type="line"/>
      <point x="-285" y="746" type="line"/>
      <point x="-415" y="940" type="line"/>
      <point x="-748" y="940" type="line"/>
    </contour>
  </outline>
</glyph>
<glyph name="uni0304.case" format="2">
  <anchor x="-586" y="940" name="top"/>
  <anchor x="-586" y="700" name="_top"/>
  <outline>
    <contour>
      <point x="-806" y="746" type="line"/>
      <point x="-366" y="746" type="line"/>
      <point x="-366" y="920" type="line"/>
      <point x="-806" y="920" type="line"/>
    </contour>
  </outline>
</glyph>
